<svg xmlns="http://www.w3.org/2000/svg" viewBox="0 0 113.983 130.266" width="114" height="131"><style><![CDATA[.A{fill:#fff}]]></style><path class="A" d="M45.202 54.647c-3.713 0-6.644 3.257-6.644 7.23s2.996 7.23 6.644 7.23c3.713 0 6.644-3.257 6.644-7.23.065-3.973-2.93-7.23-6.644-7.23zm23.774 0c-3.713 0-6.644 3.257-6.644 7.23s2.996 7.23 6.644 7.23c3.713 0 6.644-3.257 6.644-7.23s-2.93-7.23-6.644-7.23zM100.63 0H13.352C5.992 0 0 5.992 0 13.417v88.06c0 7.425 5.992 13.417 13.352 13.417h73.86l-3.452-12.05 8.337 7.75 7.88 7.295 14.004 12.375V13.417C113.983 5.992 108 0 100.63 0zM75.5 85.064l-4.3-5.276c8.532-2.4 11.8-7.75 11.8-7.75-2.67 1.76-5.2 2.996-7.5 3.843-3.257 1.368-6.383 2.28-9.444 2.8-6.253 1.172-11.984.847-16.87-.065-3.713-.716-6.904-1.76-9.575-2.8-1.498-.586-3.126-1.303-4.755-2.215-.195-.13-.4-.195-.586-.326a.9.9 0 0 1-.261-.195c-1.172-.65-1.824-1.107-1.824-1.107s3.126 5.2 11.398 7.686L39.2 85.064c-14.394-.456-19.866-9.9-19.866-9.9 0-20.973 9.38-37.973 9.38-37.973 9.38-7.034 18.302-6.84 18.302-6.84l.65.782c-11.724 3.387-17.13 8.532-17.13 8.532s1.433-.782 3.843-1.9c6.97-3.06 12.506-3.908 14.785-4.103.4-.065.716-.13 1.107-.13a55.11 55.11 0 0 1 13.157-.13 53.08 53.08 0 0 1 19.605 6.253s-5.146-4.885-16.218-8.272l.912-1.042s8.923-.195 18.302 6.84c0 0 9.38 17 9.38 37.973 0 0-5.536 9.444-19.93 9.9z"/></svg>