<svg xmlns="http://www.w3.org/2000/svg" width="279" height="63" fill-rule="evenodd"><path d="M55.928 45.872c.96 0 1.44.528 1.44 1.584v1.008l-.072 2.52-.072 3.24v3.312l.072 2.664a3.33 3.33 0 0 1 .072.648c0 .48-.144.792-.432.936s-1.248.216-2.88.216h-5.04c-2.016 0-4.008-.024-5.976-.072l-5.328-.072H34.76l-3.168.216-3.168.072a19.05 19.05 0 0 1-1.584-.072L25.256 62l-9.36.216c-3.456.144-6.864.216-10.224.216a4.75 4.75 0 0 1-1.152-.144c-.384-.096-.768-.144-1.152-.144-.288 0-.576.024-.864.072a5.21 5.21 0 0 1-.864.072c-.96 0-1.44-.48-1.44-1.44 0-.096.336-.552 1.008-1.368l2.376-2.88 2.808-3.312c.96-1.104 1.728-2.04 2.304-2.808.672-.864 1.512-1.896 2.52-3.096l2.88-3.456c.912-1.104 1.68-2.112 2.304-3.024s.936-1.56.936-1.944c0-.096-.312-.528-.936-1.296l-2.16-2.592c-.816-.96-1.68-1.944-2.592-2.952s-1.656-1.896-2.232-2.664c-.768-.864-1.656-1.824-2.664-2.88a94.6 94.6 0 0 1-2.952-3.24c-.96-1.104-1.776-2.136-2.448-3.096S.296 18.464.2 17.792c0-.384.24-.624.72-.72a7.35 7.35 0 0 1 1.44-.144h1.944c.528 0 1.128.048 1.8.144.48 0 .984-.024 1.512-.072s1.032-.072 1.512-.072c.864 0 1.752.072 2.664.216s1.848.216 2.808.216c1.92 0 3.672-.072 5.256-.216s3.288-.216 5.112-.216c1.344 0 2.664.144 3.96.432s1.944 1.056 1.944 2.304c0 1.44-.024 2.952-.072 4.536l-.072 4.392c0 .384.048.936.144 1.656s.144 1.464.144 2.232c-.096.576-.144 1.152-.144 1.728v1.728a129.23 129.23 0 0 0 .072 4.68c.048 1.296.336 2.376.864 3.24s1.392 1.488 2.592 1.872 2.904.576 5.112.576c3.36 0 6.096-.072 8.208-.216s3.792-.216 5.04-.216c.288 0 .552.024.792.072s.552.072.936.072c.672 0 1.152-.048 1.44-.144zm170.784-3.312c-.48.096-1.104.144-1.872.144-.864 0-1.728-.072-2.592-.216s-1.68-.216-2.448-.216c-.96-.096-1.872-.072-2.736.072s-1.776.216-2.736.216c-2.496 0-5.064-.072-7.704-.216s-5.208-.216-7.704-.216a59.53 59.53 0 0 0-4.104.144 63.8 63.8 0 0 1-4.392.144c-1.344 0-3.456-.024-6.336-.072l-8.712-.072c-2.928 0-5.616-.024-8.064-.072l-4.392-.072c-.288 0-1.512.024-3.672.072l-7.128.072h-25.2c-2.592 0-4.944-.024-7.056-.072l-3.6-.072c-.672 0-2.232.024-4.68.072l-16.848.144-6.264.072a59.53 59.53 0 0 1-4.104-.144 59.53 59.53 0 0 0-4.104-.144 126.23 126.23 0 0 0-7.416.216 126.66 126.66 0 0 1-7.416.216c-1.056 0-2.064-.048-3.024-.144s-1.968-.144-3.024-.144a15.79 15.79 0 0 0-2.592.216c-.864.144-1.728.216-2.592.216-.768 0-1.584-.048-2.448-.144s-1.728-.144-2.592-.144c-1.44 0-2.784.072-4.032.216s-2.976.216-5.184.216c-1.44 0-2.736-.216-3.888-.648s-1.728-1.368-1.728-2.808a44.49 44.49 0 0 0 .216-2.088c.048-.624.072-1.32.072-2.088-.288-3.552-.432-7.104-.432-10.656V13.904a87.3 87.3 0 0 0-.072-3.312 97.37 97.37 0 0 1-.072-3.744 35.97 35.97 0 0 1 .144-3.384c.096-1.008.336-1.8.72-2.376 0-.096.672-.144 2.016-.144h11.736l6.624.072 5.184.072h2.232c4.8-.288 9.72-.48 14.76-.576L91.784.368c.96 0 1.872.024 2.736.072a49.55 49.55 0 0 0 2.736.072 53.6 53.6 0 0 0 2.808-.072c.912-.048 1.848-.072 2.808-.072a44.85 44.85 0 0 1 4.464.216c1.44.144 2.88.216 4.32.216 4.416 0 8.784-.144 13.104-.432.48 0 .984.024 1.512.072s1.032.072 1.512.072c.576 0 1.176-.024 1.8-.072s1.224-.072 1.8-.072c1.344 0 2.712.024 4.104.072a119.49 119.49 0 0 0 4.104.072 113.31 113.31 0 0 0 4.032-.072 113.31 113.31 0 0 1 4.032-.072c.672 0 1.296.024 1.872.072s1.152.072 1.728.072c.48 0 1.008-.024 1.584-.072s1.104-.072 1.584-.072c4.128.288 8.448.432 12.96.432a45.57 45.57 0 0 0 4.392-.216c1.488-.144 3-.216 4.536-.216.96 0 1.872.024 2.736.072a49.55 49.55 0 0 0 2.736.072c.96 0 1.896-.024 2.808-.072S186.44.368 187.4.368c2.496 0 5.112.096 7.848.288s5.304.288 7.704.288l6.768-.072a63.02 63.02 0 0 1 6.768.216h2.232l5.184-.072 6.624-.072h11.664c1.392 0 2.088.048 2.088.144a17.13 17.13 0 0 1 .504 1.44 4.99 4.99 0 0 1 .216 1.44l-.432 32.112c0 .576.024 1.104.072 1.584a17.71 17.71 0 0 1 .072 1.728c0 1.44-.552 2.352-1.656 2.736s-2.472.576-4.104.576-3.168-.048-4.608-.144-2.928-.144-4.464-.144h-1.584c-.576 0-1.104.048-1.584.144zm51.408 16.992l.576.576c.192.192.288.432.288.72 0 .96-.48 1.44-1.44 1.44a6.6 6.6 0 0 1-.936-.072c-.336-.048-.648-.072-.936-.072-.48 0-.888.048-1.224.144s-.696.144-1.08.144a232 232 0 0 1-9.936-.216c-3.36-.144-6.576-.216-9.648-.216a19.25 19.25 0 0 0-1.584.072c-.576.048-1.104.072-1.584.072a69.27 69.27 0 0 1-3.168-.072c-1.056-.048-2.112-.12-3.168-.216h-2.88l-5.256.072-5.976.072h-5.04c-1.632 0-2.592-.072-2.88-.216s-.432-.456-.432-.936V55.16c0-1.392-.024-2.76-.072-4.104l-.072-2.88c0-1.536.336-2.304 1.008-2.304a7.67 7.67 0 0 1 1.08.072 6.6 6.6 0 0 0 .936.072 5.21 5.21 0 0 0 .864-.072c.288-.048.576-.072.864-.072 2.112 0 3.504.024 4.176.072l1.728.144c.48.048 1.2.096 2.16.144s2.736.072 5.328.072c1.824 0 3.6-.168 5.328-.504s2.688-1.176 2.88-2.52c0-.864.024-2.016.072-3.456a134.11 134.11 0 0 0 .072-4.464 121.41 121.41 0 0 1 .072-4.32l.072-3.024a4.53 4.53 0 0 0-.072-.72c-.048-.288-.072-.672-.072-1.152 0-1.152-.048-2.28-.144-3.384s0-2.088.288-2.952.888-1.56 1.8-2.088 2.376-.792 4.392-.792c1.536 0 3.168.072 4.896.216a60.69 60.69 0 0 0 5.04.216c.96 0 1.896-.072 2.808-.216s1.848-.216 2.808-.216c.48 0 .984.024 1.512.072s1.032.072 1.512.072a4.75 4.75 0 0 1 1.152-.144h1.152a40.29 40.29 0 0 1 2.16.072c.864.048 1.296.264 1.296.648 0 1.152-.312 1.944-.936 2.376s-1.224 1.032-1.8 1.8c-.864 1.152-2.088 2.592-3.672 4.32l-4.752 5.112c-1.584 1.68-2.952 3.24-4.104 4.68s-1.728 2.448-1.728 3.024c0 .288.144.72.432 1.296s.624 1.008 1.008 1.296c1.344 1.44 2.616 2.976 3.816 4.608l3.528 4.896c1.152 1.632 2.352 3.192 3.6 4.68s2.544 2.76 3.888 3.816z" fill="#CACB69"/><path d="M71.808 8.8h12.024v3.96h-8.064v6.372h5.04l-1.296 3.78h-3.744V34h-3.96zm23.057 18.612H89.07L87.665 34H83.2l5.904-25.2h5.58l6.372 25.2H96.34zm-4.86-4.212h3.924l-2.052-7.776zm25.898 9.972q-3.204 1.188-5.976 1.188-3.132 0-5.076-1.656-1.944-1.656-1.944-5.292V15.856q0-2.736.756-4.14.792-1.404 2.376-2.376 1.584-.9 3.888-.9 2.808 0 5.076 1.188l-1.116 3.6q-1.656-.612-3.636-.612-1.512 0-2.448.828-.936.828-.936 2.088V27.34q0 3.024 3.384 3.024 1.08 0 2.16-.216 1.08-.252 2.88-.72zM119.808 8.8h12.024v3.96h-8.064v6.372h4.932l-1.116 3.78h-3.816V30.4h7.992V34h-11.952zm17.734 0h7.344q2.988 0 4.968 1.656 1.98 1.656 1.98 4.716 0 1.44-.468 2.736-.468 1.296-1.908 2.268l-.036.072v.036q1.584.72 2.628 2.304 1.08 1.584 1.08 4.032 0 1.872-.756 3.564-.756 1.656-2.484 2.736-1.728 1.08-4.464 1.08h-7.884zm5.688 10.332q2.052 0 3.024-.756.972-.756.972-2.592 0-1.692-.9-2.34-.9-.684-2.736-.684h-2.088v6.372zm.468 11.232q1.656 0 2.664-.252 1.044-.288 1.62-1.116.612-.828.612-2.448 0-2.052-1.26-2.808-1.26-.792-3.312-.792h-2.52v7.416zm29.252-3.024q0 3.636-2.232 5.364-2.196 1.692-5.292 1.692-1.944 0-3.672-.684-1.728-.72-2.844-2.304-1.08-1.584-1.08-4.068V15.748q0-3.708 2.016-5.616 2.052-1.908 5.616-1.908 3.564 0 5.508 2.016 1.98 2.016 1.98 5.544zM169 17.08q0-1.512-.252-2.484-.252-.972-1.044-1.512-.792-.576-2.304-.576-1.512 0-2.304.54-.792.54-1.044 1.512-.252.936-.252 2.484v9.612q0 1.728.864 2.736.9.972 2.736.972 1.692 0 2.628-1.044.972-1.044.972-2.736zm24.357 10.26q0 3.636-2.232 5.364-2.196 1.692-5.292 1.692-1.944 0-3.672-.684-1.728-.72-2.844-2.304-1.08-1.584-1.08-4.068V15.748q0-3.708 2.016-5.616 2.052-1.908 5.616-1.908 3.564 0 5.508 2.016 1.98 2.016 1.98 5.544zm-3.96-10.26q0-1.512-.252-2.484-.252-.972-1.044-1.512-.792-.576-2.304-.576-1.512 0-2.304.54-.792.54-1.044 1.512-.252.936-.252 2.484v9.612q0 1.728.864 2.736.9.972 2.736.972 1.692 0 2.628-1.044.972-1.044.972-2.736zm14.673 6.912l-.252.36V34h-4.248V8.764h4.248v8.676l5.832-8.676h4.752l-7.992 11.7L215.807 34h-4.932z" font-weight="bold" font-size="36" font-family="AdventPro-Bold, Advent Pro" fill="#fff"/></svg>