<svg xmlns="http://www.w3.org/2000/svg" width="172" height="485" viewBox="0 0 175 485"><path d="M96.27 51.4h-4.436V.99h14.86c4.03 0 7.023 1.463 8.975 4.4s2.93 6.767 2.93 11.52l-.12 4.36a29.76 29.76 0 0 1-.771 4.61c-.343 1.625-.938 3.164-1.756 4.54-.915 1.337-2.09 2.4-3.426 3.1-1.686.927-3.533 1.382-5.395 1.33H96.27V51.4zm0-21.6h10.277c1.306.05 2.6-.294 3.76-1 .875-.523 1.643-1.26 2.252-2.16.556-1.005.934-2.13 1.113-3.3.218-1.065.36-2.148.428-3.24V17c0-7.293-2.61-10.94-7.828-10.94H96.27V29.8z" fill="#4E4257" fill-rule="nonzero"/><path d="M120.287 479.396v4.574H94.44v-50.4h24.3v5.313H100.2v16.658h18.55v5.345H100.2v18.52z" fill="#4e4257" stroke="#fdfef2"/><path d="M118.126 123.4h-4.565l-4.873-16.7a15.64 15.64 0 0 1-1.97.14H95.74v16.56h-4.436V73h14.97c3.945 0 6.894 1.463 8.847 4.4s2.93 6.767 2.93 11.52c0 5.907-.782 10.203-2.347 12.9-.753 1.312-1.74 2.417-2.895 3.24l5.318 18.37zM95.74 101.8h10.423c2.427 0 4.174-.817 5.24-2.45a18.79 18.79 0 0 0 1.199-2.3 10.08 10.08 0 0 0 .651-2.88 51.3 51.3 0 0 0 .248-5.26c0-7.247-2.632-10.87-7.896-10.87H95.74v23.76zm21 57.2v23.1c0 4.846-1.265 8.4-3.794 10.7-2.6 2.313-5.82 3.52-9.095 3.42-3.294.1-6.518-1.114-9.155-3.42-2.57-2.28-3.854-5.843-3.854-10.7v-23.2c0-4.946 1.162-8.7 3.486-11.23s5.52-3.813 9.592-3.82c4.07 0 7.225 1.333 9.464 4s3.357 6.38 3.357 11.14zm-4.47 22.5v-22.24c0-3.333-.73-5.853-2.192-7.56s-3.568-2.57-6.32-2.6c-5.675 0-8.513 3.384-8.513 10.15v22.4c0 3.073.782 5.407 2.347 7 3.654 3.2 8.678 3.2 12.333 0 1.564-1.593 2.347-3.977 2.347-7.15zm-8.506 85.9H90.917v-50.47h11.596c4.648 0 8.193 1.486 10.637 4.46s3.668 6.934 3.674 11.88V253c.006 9.607-4.348 14.4-13.06 14.4zm8.633-13.68v-21.17c0-3.6-.894-6.267-2.68-8-1.845-1.776-4.18-2.7-6.57-2.63H95.38v40.82h7.4c4.568 0 7.485-1.417 8.753-4.25.62-1.482.918-3.12.865-4.77zm.12 71.7v-36.5h4.436v37.06c.047 2.278-.342 4.54-1.14 6.62-.668 1.743-1.735 3.238-3.083 4.32a13.7 13.7 0 0 1-4.102 2.23 14.56 14.56 0 0 1-4.625.72 14.83 14.83 0 0 1-4.659-.72 13.63 13.63 0 0 1-4.128-2.23c-1.35-1.08-2.415-2.576-3.083-4.32-.797-2.08-1.186-4.342-1.14-6.62v-37.06h4.436v36.5c-.118 2.63.722 5.193 2.312 7.06 3.623 3.457 8.83 3.457 12.452 0 1.593-1.864 2.436-4.43 2.32-7.06zM99 398.08c0 6 2.815 9 8.444 9 2.9-.104 5.784-.76 8.513-1.94l.856 4.6c-3.173 1.5-6.56 2.317-9.986 2.38-.657 0-1.653-.074-3-.22-1.506-.2-2.962-.75-4.282-1.62-1.573-1.02-2.842-2.576-3.64-4.46-.987-2.363-1.464-4.974-1.387-7.6V375.1c0-3.647.442-6.407 1.327-8.28.967-1.97 2.36-3.6 4.042-4.75 2.03-1.25 4.3-1.87 6.594-1.8 3.038-.033 6.04.784 8.753 2.38l-1.293 4.1a15.21 15.21 0 0 0-5.918-1.44 13.6 13.6 0 0 0-4.35.6c-1.303.52-2.435 1.503-3.237 2.8-1.037 1.654-1.56 3.672-1.482 5.72l.034 23.62z" fill-rule="nonzero" fill="#4E4257"/><g fill-rule="nonzero" fill="#fff"><path d="M112.357 121.235c6.98 5.857 7.028 17.294.105 25.544S94.27 156.97 87.29 151.11c-3.352-2.813-5.247-7.084-5.266-11.875s1.837-9.708 5.16-13.67c6.923-8.25 18.193-10.19 25.174-4.332z"/><path d="M141.755 113.87c9.76 4.55 12.943 18.385 7.108 30.898s-18.478 18.968-28.238 14.417-12.943-18.386-7.108-30.9 18.478-18.968 28.238-14.417z"/></g><path d="M52.906 131.532Q52 131.5 51 131.438q-.97-.094-2.312-.125-2.938-.062-6.375.25-.78 2.687-2.594 6.625-1.78 3.906-3.53 6.625-3.75 5.812-7.625 7.187-.562.22-1.156.22-.562 0-1.03-.22-.47-.187-.78-.5-.656-.594-.656-1.312 0-.72.47-1.063 4.438-3.22 9.125-16.218-.344.093-.687.188-.344.094-.594.187-.25.094-.594.094-.312 0-.72-.187-.375-.22-.687-.5-.687-.625-.687-1.22 0-.593.53-1.094.563-.53 1.375-1 1.5-.875 3.78-1.625l1.688-5.25q2.97-9.22 5.688-12.78-2.562-.22-3.78-.22-3.687 0-5.312 1.03-1.594 1.032-2.25 2.25-.625 1.188-.656 1.657-.094.875-.563 1.125-.47.22-1.156.22-.656 0-1.375-.47-.72-.5-1.187-1.25-1-1.53-.78-3.437.22-1.937 1.25-3.313 1.063-1.406 2.5-2.28 2.656-1.625 5.594-1.625 2.97 0 5.594.313 2.656.28 5.28.656 6.97.938 8.875.938 1.906 0 2.813-.22.937-.218 1.594-.656.656-.437.906-.562.28-.157.875-.157.938 0 .813 1.438-.125 1.406-.687 2.437-.562 1-1.47 1.656-1.844 1.344-4.688 1.344-2.844 0-6.906-.375-1.03 2.094-1.97 5.5l-2.875 10.313q2.938-.47 4.47-.47 1.562 0 2.562.313 1 .313 1.78.875 1.812 1.22 1.78 3-.03 1.782-1.75 1.782zm5.72 19.718q-.625-.47-1-1.03-.375-.594-.406-1-.03-.438.156-1.033.22-.625.563-1.5 6.375-15.688 6.375-21.063-.094-1.5-1.03-2.125l-.625-.438q-.28-.217-.312-.75 0-.562.406-1.062.406-.5 1.063-.875 1.344-.718 2.75-.718 1.438 0 2.22.313.813.313 1.375.842 1.187 1.125 1.187 2.375.03 1.25-.28 2.53-.28 1.28-.687 2.53-.406 1.22-.812 2.344-.406 1.093-.53 1.625-.25 1.093-.188 1.375.75-.656.906-1.28l1.213-2.3q4.063-7.313 7.938-9.687 1.125-.656 2.688-.656 1.594 0 2.563 1.125.97 1.094 1 2.438.062 1.343-.187 2.25-.22.875-.687 1.656-1.03 1.75-2.5 1.75-.406 0-.75-.28l-.687-.594q-1.03-.906-2-.906-.937 0-2.312 1.25-1.344 1.25-2.812 3.22-4.937 6.53-8.062 14.625l-1.375 3.625q-.53 1.344-.937 1.938-.406.563-1.22.563-.78 0-1.594-.312-.78-.28-1.406-.75zm26.312-10.187q.125-2.718.906-5.187.78-2.5 2.094-4.812Q89.25 128.72 91 126.66q1.78-2.094 3.844-3.656 4.47-3.343 9.03-3.343 5.344 0 7.125 4.406.625 1.5.594 3.563-.03 2.03-.78 3.78-.75 1.72-2.094 3.156-1.313 1.406-3.156 2.532-1.813 1.125-3.97 1.906-4.437 1.563-9.5 1.625-.125.437-.156 1.312-.03.875.188 1.97.22 1.063.75 1.906Q94 147.7 96.126 147.7q3.625 0 7.063-2.125 1.22-.72 1.97-1.468.78-.782 1.344-.782.563 0 .97.688.438.656.438 1.5 0 1.656-.937 2.875-3.937 3.938-11.72 3.938-4.594 0-7.375-2.75-3.125-3.125-2.938-8.5zm18.25-17.25q-3.28 0-6.312 4.5-2.562 3.875-4.125 9.187 5.22-.53 9.063-4.125 3.53-3.375 3.53-6.47 0-3.093-2.156-3.093zm10.187 22.687q0-.97.406-1.78.438-.844 1.063-1.407 1.313-1.22 2.75-1.22 1.25 0 1.25 1.28 0 3.25 2.156 4.534.78.468 1.625.468.844 0 1.438-.187.594-.187 1.094-.6 1.125-.906 1.125-2.156 0-1.25-.562-2.28-.563-1.063-1.406-2.22l-1.78-2.5q-3.75-5-3.75-9.22 0-3.5 2.97-6.343 3.375-3.22 8.656-3.22 4.625 0 7.22 2.28 2.125 1.844 2.125 4.22 0 2.47-1.875 3.937-1.687 1.313-3.375.97-.75-.156-1.156-.75-.406-.625-.156-1.407.25-.78.25-1.625 0-.843-.312-1.562-.312-.72-.844-1.22-1.094-1.03-2.313-1.03-1.187 0-1.97.28-.78.25-1.375.75-1.22 1.125-1.22 2.78 0 1.625.562 2.813.563 1.188 1.375 2.375.844 1.187 1.813 2.406.97 1.22 1.78 2.563 1.97 3.157 1.97 5.563 0 2.375-1 4-1 1.594-2.594 2.75-3.406 2.53-7.625 2.53-4.03 0-6.375-1.937-1.937-1.625-1.937-3.844zm51.188-20.937q-1.72 0-6.156 5.25L155.813 134l-5 6.533q-1.812 3.437-2.844 5.717l-1.687 3.625q-.656 1.344-1.156 1.906-.47.53-1.312.53-.812 0-1.594-.312-.75-.28-1.312-.75-1.187-1-1.187-2.187 0-.468.656-1.844l1.25-2.53q5.844-12.032 10.594-30.5 1.75-6.812 2.53-12.25.344-2.625 2.563-2.625 1.438 0 2.375.688 1.813 1.344 1.75 2.875-.062 1.53-.437 3.437-.375 1.906-.97 4.156-.594 2.22-1.344 4.688-2.062 6.28-3.062 9.063-3.062 8.406-3.78 9.844.47-.562 1.22-1.53 5.688-7.47 7.03-8.907 1.344-1.468 2.28-2.25 1.97-1.718 5-1.718 2.47 0 3.97 1.656 1.406 1.594 1.406 3.5 0 1.875-.437 3.406-.406 1.5-1.062 3.063-.656 1.563-1.437 3.22l-1.562 3.28q-2.188 4.97-2.188 7.375 0 1.688 1.375 1.688 1.313 0 2.375-.562 1.094-.562 1.406-.562.656 0 .656.656 0 2.78-2.812 4.656-1.937 1.28-3.53 1.28-1.594 0-2.656-.312-1.03-.344-1.844-1.093-1.844-1.687-1.844-4.97 0-3.53 2.313-8.875l3.375-7.188q.97-2 .97-3.156 0-1.157-1.28-1.157z" fill="#b1be4e"/><path d="M15.535 112.864s13.542-5.482 12.97-7.617-7.306-2.184-15.04-.11-13.542 5.482-12.97 7.617c.215.8 2.98.04 5.612-.003s9.43.114 9.43.114z" fill="#B1BE4E"/></svg>
