<?xml version="1.0" encoding="UTF-8" standalone="no"?>
<svg
   xmlns:dc="http://purl.org/dc/elements/1.1/"
   xmlns:cc="http://creativecommons.org/ns#"
   xmlns:rdf="http://www.w3.org/1999/02/22-rdf-syntax-ns#"
   xmlns:svg="http://www.w3.org/2000/svg"
   xmlns="http://www.w3.org/2000/svg"
   xmlns:sodipodi="http://sodipodi.sourceforge.net/DTD/sodipodi-0.dtd"
   xmlns:inkscape="http://www.inkscape.org/namespaces/inkscape"
   width="172"
   height="485"
   viewBox="0 0 175 485"
   version="1.1"
   id="svg27"
   sodipodi:docname="fresh.svg"
   inkscape:version="0.92.2 2405546, 2018-03-11">
  <metadata
     id="metadata33">
    <rdf:RDF>
      <cc:Work
         rdf:about="">
        <dc:format>image/svg+xml</dc:format>
        <dc:type
           rdf:resource="http://purl.org/dc/dcmitype/StillImage" />
      </cc:Work>
    </rdf:RDF>
  </metadata>
  <defs
     id="defs31" />
  <sodipodi:namedview
     pagecolor="#ffffff"
     bordercolor="#666666"
     borderopacity="1"
     objecttolerance="10"
     gridtolerance="10"
     guidetolerance="10"
     inkscape:pageopacity="0"
     inkscape:pageshadow="2"
     inkscape:window-width="640"
     inkscape:window-height="480"
     id="namedview29"
     showgrid="false"
     inkscape:zoom="0.48659794"
     inkscape:cx="86"
     inkscape:cy="242.5"
     inkscape:window-x="0"
     inkscape:window-y="29"
     inkscape:window-maximized="0"
     inkscape:current-layer="svg27" />
  <g
     id="Symbols"
     fill="none"
     fill-rule="evenodd">
    <g
       id="fresh"
       transform="translate(-21)">
      <g
         transform="translate(44)"
         id="g21">
        <path
           d="M73.2700913,51.4 L68.8337979,51.4 L68.8337979,0.99 L83.6928116,0.99 C87.7237295,0.99 90.7155155,2.45333333 92.6681698,5.38 C94.620824,8.30666667 95.5971512,12.1466667 95.5971512,16.9 C95.5971512,18.58 95.5571845,20.0333333 95.4772513,21.26 C95.3405273,22.8207702 95.0825368,24.3637902 94.7064668,25.87 C94.3635814,27.4958188 93.768536,29.0345458 92.9507908,30.41 C92.0361965,31.7466432 90.8618154,32.8093666 89.5250816,33.51 C87.8395086,34.4367853 85.9921573,34.8921612 84.1295895,34.84 L73.2700913,34.84 L73.2700913,51.4 Z M73.2700913,29.8 L83.547219,29.8 C84.8532958,29.8502476 86.1483508,29.5057921 87.3069348,28.8 C88.181725,28.2769647 88.9499064,27.5402976 89.5593387,26.64 C90.1153037,25.6341109 90.4938097,24.5088146 90.6726941,23.33 C90.8906375,22.2653904 91.0338501,21.1817979 91.1009078,20.09 L91.1009078,16.99 C91.1009078,9.69666667 88.4916593,6.05 83.2731622,6.05 L73.2700913,6.05 L73.2700913,29.8 Z"
           id="Shape"
           fill="#4E4257"
           fill-rule="nonzero" />
        <path
           style="fill:#4e4257;stroke:#fdfef2"
           d="M 97.287109,479.39551 V 483.97 H 71.44 v -50.41 h 24.31 v 5.3128 H 77.2 v 16.65747 h 18.55 v 5.34571 H 77.2 v 18.51953 z"
           id="E" />
        <path
           d="M95.1261161,123.4 L90.5613586,123.4 L85.6882872,106.7 C85.0343821,106.788725 84.3767982,106.835462 83.7185044,106.84 L72.7391064,106.84 L72.7391064,123.4 L68.3028129,123.4 L68.3028129,72.99 L83.2731622,72.99 C87.2184374,72.99 90.167402,74.4533333 92.1200563,77.38 C94.0727105,80.3066667 95.0490377,84.1466667 95.0490377,88.9 C95.0490377,94.8066667 94.2668341,99.1033333 92.7024269,101.79 C91.9492812,103.10147 90.9617177,104.206827 89.8077026,105.03 L95.1261161,123.4 Z M72.7391064,101.8 L83.1618267,101.8 C85.5883707,101.8 87.3354824,100.983333 88.4031618,99.35 C88.8514455,98.6193613 89.2522326,97.8505442 89.60216,97.05 C89.9564466,96.1396378 90.1765032,95.1659431 90.2530448,94.17 C90.4257303,92.4240323 90.5086669,90.6675517 90.5014087,88.91 C90.5014087,81.6633333 87.8693221,78.04 82.6051489,78.04 L72.7391064,78.04 L72.7391064,101.8 Z"
           id="path4"
           fill="#4E4257"
           fill-rule="nonzero" />
        <path
           d="M93.7387039,158.99 L93.7387039,182.1 C93.7387039,186.946667 92.4740462,190.51 89.9447309,192.79 C87.3332381,195.102204 84.1257725,196.308275 80.849473,196.21 C77.5556946,196.300498 74.3314094,195.096041 71.6942651,192.79 C69.1249832,190.51 67.8403422,186.946667 67.8403422,182.1 L67.8403422,158.9 C67.8403422,153.953333 69.0022286,150.21 71.3260013,147.67 C73.6497741,145.13 76.8471027,143.856667 80.9179871,143.85 C84.9888716,143.85 88.1433788,145.183333 90.3815089,147.85 C92.6196389,150.516667 93.7387039,154.23 93.7387039,158.99 Z M89.2681534,181.5 L89.2681534,159.26 C89.2681534,155.926667 88.5373354,153.406667 87.0756995,151.7 C85.6140635,149.993333 83.5072524,149.13 80.755266,149.11 C75.0800077,149.11 72.2423785,152.493333 72.2423785,159.26 L72.2423785,181.65 C72.2423785,184.723333 73.0245822,187.056667 74.5889894,188.65 C78.2430792,191.85 83.2674527,191.85 86.9215426,188.65 C88.4859498,187.056667 89.2681534,184.673333 89.2681534,181.5 Z"
           id="path6"
           fill="#4E4257"
           fill-rule="nonzero" />
        <path
           d="M80.7638302,267.4 L67.9174207,267.4 L67.9174207,216.93 L79.5134464,216.93 C84.1609919,216.93 87.7066009,218.416667 90.1502735,221.39 C92.5939461,224.363333 93.8186371,228.323333 93.8243466,233.27 L93.8243466,252.99 C93.8300561,262.596667 89.4765507,267.4 80.7638302,267.4 Z M89.3966175,253.72 L89.3966175,232.55 C89.3966175,228.95 88.5030783,226.283333 86.716,224.55 C84.8713224,222.77362 82.5372893,221.839125 80.1472026,221.92 L72.3794069,221.92 L72.3794069,262.74 L79.7789388,262.74 C84.3465511,262.74 87.2641135,261.323333 88.5316259,258.49 C89.1525954,257.007686 89.4497586,255.368979 89.3966175,253.72 Z"
           id="path8"
           fill="#4E4257"
           fill-rule="nonzero" />
        <path
           d="M89.5165173,325.43 L89.5165173,288.93 L93.9528107,288.93 L93.9528107,325.99 C93.9998002,328.268149 93.6106542,330.529814 92.8137624,332.61 C92.1456694,334.353536 91.0788812,335.848287 89.7306241,336.93 C88.4710871,337.918431 87.0869443,338.67085 85.6283373,339.16 C84.1229212,339.649819 82.5663661,339.892152 81.0036299,339.88 C79.4296866,339.891085 77.8619456,339.648806 76.3446653,339.16 C74.876718,338.675024 73.4835672,337.922422 72.2166857,336.93 C70.8681274,335.848673 69.801261,334.353812 69.1335474,332.61 C68.3363793,330.529918 67.9472206,328.268178 67.9944991,325.99 L67.9944991,288.93 L72.4307926,288.93 L72.4307926,325.43 C72.3130154,328.059048 73.152989,330.623627 74.7431463,332.49 C78.3661626,335.94654 83.5725829,335.94654 87.1955993,332.49 C88.7888894,330.625347 89.632046,328.060549 89.5165173,325.43 L89.5165173,325.43 Z"
           id="path10"
           fill="#4E4257"
           fill-rule="nonzero" />
        <path
           d="M76.0106587,398.08 C76.0106587,404.08 78.8254498,407.08 84.4550319,407.08 C87.3639031,406.975796 90.2389673,406.320599 92.9679193,405.14 L93.8243466,409.75 C90.6510202,411.259997 87.2646954,412.067077 83.8384043,412.13 C83.18181,412.13 82.1854996,412.056667 80.849473,411.91 C79.343473,411.710893 77.8871871,411.159957 76.5673364,410.29 C74.9944731,409.269198 73.7249471,407.713601 72.9275204,405.83 C71.9402138,403.467071 71.4638514,400.857641 71.5401082,398.23 L71.5401082,375.11 C71.5401082,371.463333 71.9825956,368.703333 72.8675705,366.83 C73.8340892,364.859373 75.228366,363.22101 76.9099074,362.08 C78.9395987,360.829916 81.2104365,360.21008 83.5043976,360.28 C86.542704,360.247565 89.5436423,361.06357 92.2570847,362.66 L90.9638794,366.76 C89.0787538,365.878776 87.0756324,365.391358 85.0459668,365.32 C83.5782723,365.280404 82.1132587,365.485812 80.695316,365.93 C79.391878,366.450046 78.2600884,367.432449 77.4580208,368.74 C76.4206193,370.393979 75.8979169,372.411945 75.9764016,374.46 L76.0106587,398.08 Z"
           id="path12"
           fill="#4E4257"
           fill-rule="nonzero" />
        <g
           id="Group-2"
           transform="translate(0 89)">
          <path
             transform="rotate(-50 76.823 47.173)"
             style="fill:#ffffff;fill-rule:nonzero"
             d="m 96.322998,47.173 a 19.5,16.5 0 0 1 -19.5,16.5 19.5,16.5 0 0 1 -19.5,-16.5 19.5,16.5 0 0 1 19.5,-16.5 19.5,16.5 0 0 1 19.5,16.5 z"
             id="Oval" />
          <path
             transform="rotate(-65 108.19 47.527)"
             style="fill:#ffffff;fill-rule:nonzero"
             d="m 133.189,47.527 a 25,19.5 0 0 1 -25,19.5 25,19.5 0 0 1 -24.999997,-19.5 25,19.5 0 0 1 24.999997,-19.5 25,19.5 0 0 1 25,19.5 z"
             id="ellipse15" />
          <g
             aria-label="Fresh"
             style="font-size:64px;font-family:Courgette-Regular, Courgette;fill:#b1be4e"
             id="Fresh">
            <path
               d="M 29.90625,42.53125 Q 29,42.5 28,42.4375 27.03125,42.34375 25.6875,42.3125 22.75,42.25 19.3125,42.5625 18.53125,45.25 16.71875,49.1875 14.9375,53.09375 13.1875,55.8125 9.4375,61.625 5.5625,63 5,63.21875 4.40625,63.21875 3.84375,63.21875 3.375,63 2.90625,62.8125 2.59375,62.5 1.9375,61.90625 1.9375,61.1875 q 0,-0.71875 0.46875,-1.0625 4.4375,-3.21875 9.125,-16.21875 Q 11.1875,44 10.84375,44.09375 10.5,44.1875 10.25,44.28125 10,44.375 9.65625,44.375 q -0.3125,0 -0.71875,-0.1875 -0.375,-0.21875 -0.6875,-0.5 -0.6875,-0.625 -0.6875,-1.21875 0,-0.59375 0.53125,-1.09375 0.5625,-0.53125 1.375,-1 1.5,-0.875 3.78125,-1.625 L 14.9375,33.5 Q 17.90625,24.28125 20.625,20.71875 18.0625,20.5 16.84375,20.5 q -3.6875,0 -5.3125,1.03125 -1.59375,1.03125 -2.25,2.25 -0.625,1.1875 -0.65625,1.65625 -0.09375,0.875 -0.5625,1.125 -0.46875,0.21875 -1.15625,0.21875 -0.65625,0 -1.375,-0.46875 -0.71875,-0.5 -1.1875,-1.25 -1,-1.53125 -0.78125,-3.4375 0.21875,-1.9375 1.25,-3.3125 1.0625,-1.40625 2.5,-2.28125 2.65625,-1.625 5.59375,-1.625 2.96875,0 5.59375,0.3125 2.65625,0.28125 5.28125,0.65625 6.96875,0.9375 8.875,0.9375 1.90625,0 2.8125,-0.21875 Q 36.40625,15.875 37.0625,15.4375 37.71875,15 37.96875,14.875 q 0.28125,-0.15625 0.875,-0.15625 0.9375,0 0.8125,1.4375 -0.125,1.40625 -0.6875,2.4375 -0.5625,1 -1.46875,1.65625 -1.84375,1.34375 -4.6875,1.34375 -2.84375,0 -6.90625,-0.375 -1.03125,2.09375 -1.96875,5.5 l -2.875,10.3125 Q 24,36.5625 25.53125,36.5625 q 1.5625,0 2.5625,0.3125 1,0.3125 1.78125,0.875 1.8125,1.21875 1.78125,3 -0.03125,1.78125 -1.75,1.78125 z"
               style=""
               id="path38" />
            <path
               d="m 35.625,62.25 q -0.625,-0.46875 -1,-1.03125 -0.375,-0.59375 -0.40625,-1 -0.03125,-0.4375 0.15625,-1.03125 0.21875,-0.625 0.5625,-1.5 Q 41.3125,42 41.3125,36.625 41.21875,35.125 40.28125,34.5 l -0.625,-0.4375 q -0.28125,-0.21875 -0.3125,-0.75 0,-0.5625 0.40625,-1.0625 0.40625,-0.5 1.0625,-0.875 1.34375,-0.71875 2.75,-0.71875 1.4375,0 2.21875,0.3125 0.8125,0.3125 1.375,0.84375 1.1875,1.125 1.1875,2.375 0.03125,1.25 -0.28125,2.53125 Q 47.78125,38 47.375,39.25 q -0.40625,1.21875 -0.8125,2.34375 -0.40625,1.09375 -0.53125,1.625 -0.25,1.09375 -0.1875,1.375 0.75,-0.65625 0.90625,-1.28125 L 47.96875,41 q 4.0625,-7.3125 7.9375,-9.6875 1.125,-0.65625 2.6875,-0.65625 1.59375,0 2.5625,1.125 0.96875,1.09375 1,2.4375 0.0625,1.34375 -0.1875,2.25 -0.21875,0.875 -0.6875,1.65625 -1.03125,1.75 -2.5,1.75 -0.40625,0 -0.75,-0.28125 L 57.34375,39 q -1.03125,-0.90625 -2,-0.90625 -0.9375,0 -2.3125,1.25 -1.34375,1.25 -2.8125,3.21875 -4.9375,6.53125 -8.0625,14.625 l -1.375,3.625 Q 40.25,62.15625 39.84375,62.75 39.4375,63.3125 38.625,63.3125 37.84375,63.3125 37.03125,63 36.25,62.71875 35.625,62.25 Z"
               style=""
               id="path40" />
            <path
               d="m 61.9375,52.0625 q 0.125,-2.71875 0.90625,-5.1875 0.78125,-2.5 2.09375,-4.8125 Q 66.25,39.71875 68,37.65625 69.78125,35.5625 71.84375,34 76.3125,30.65625 80.875,30.65625 q 5.34375,0 7.125,4.40625 0.625,1.5 0.59375,3.5625 -0.03125,2.03125 -0.78125,3.78125 -0.75,1.71875 -2.09375,3.15625 -1.3125,1.40625 -3.15625,2.53125 -1.8125,1.125 -3.96875,1.90625 -4.4375,1.5625 -9.5,1.625 -0.125,0.4375 -0.15625,1.3125 -0.03125,0.875 0.1875,1.96875 0.21875,1.0625 0.75,1.90625 1.125,1.875 3.25,1.875 3.625,0 7.0625,-2.125 1.21875,-0.71875 1.96875,-1.46875 Q 82.9375,54.3125 83.5,54.3125 q 0.5625,0 0.96875,0.6875 0.4375,0.65625 0.4375,1.5 0,1.65625 -0.9375,2.875 -3.9375,3.9375 -11.71875,3.9375 -4.59375,0 -7.375,-2.75 -3.125,-3.125 -2.9375,-8.5 z m 18.25,-17.25 q -3.28125,0 -6.3125,4.5 -2.5625,3.875 -4.125,9.1875 5.21875,-0.53125 9.0625,-4.125 3.53125,-3.375 3.53125,-6.46875 0,-3.09375 -2.15625,-3.09375 z"
               style=""
               id="path42" />
            <path
               d="m 90.375,57.5 q 0,-0.96875 0.40625,-1.78125 0.4375,-0.84375 1.0625,-1.40625 1.3125,-1.21875 2.75,-1.21875 1.25,0 1.25,1.28125 0,3.25 2.15625,4.53125 0.78125,0.46875 1.625,0.46875 0.84375,0 1.4375,-0.1875 0.59375,-0.1875 1.09375,-0.59375 1.125,-0.90625 1.125,-2.15625 0,-1.25 -0.5625,-2.28125 -0.5625,-1.0625 -1.40625,-2.21875 l -1.78125,-2.5 q -3.75,-5 -3.75,-9.21875 0,-3.5 2.96875,-6.34375 3.375,-3.21875 8.65625,-3.21875 4.625,0 7.21875,2.28125 2.125,1.84375 2.125,4.21875 0,2.46875 -1.875,3.9375 -1.6875,1.3125 -3.375,0.96875 -0.75,-0.15625 -1.15625,-0.75 -0.40625,-0.625 -0.15625,-1.40625 0.25,-0.78125 0.25,-1.625 0,-0.84375 -0.3125,-1.5625 Q 109.8125,36 109.28125,35.5 q -1.09375,-1.03125 -2.3125,-1.03125 -1.1875,0 -1.96875,0.28125 -0.78125,0.25 -1.375,0.75 -1.21875,1.125 -1.21875,2.78125 0,1.625 0.5625,2.8125 0.5625,1.1875 1.375,2.375 0.84375,1.1875 1.8125,2.40625 0.96875,1.21875 1.78125,2.5625 1.96875,3.15625 1.96875,5.5625 0,2.375 -1,4 -1,1.59375 -2.59375,2.75 -3.40625,2.53125 -7.625,2.53125 -4.03125,0 -6.375,-1.9375 Q 90.375,59.71875 90.375,57.5 Z"
               style=""
               id="path44" />
            <path
               d="m 141.5625,36.5625 q -1.71875,0 -6.15625,5.25 L 132.8125,45 l -5,6.53125 Q 126,54.96875 124.96875,57.25 l -1.6875,3.625 q -0.65625,1.34375 -1.15625,1.90625 -0.46875,0.53125 -1.3125,0.53125 -0.8125,0 -1.59375,-0.3125 -0.75,-0.28125 -1.3125,-0.75 -1.1875,-1 -1.1875,-2.1875 0,-0.46875 0.65625,-1.84375 l 1.25,-2.53125 q 5.84375,-12.03125 10.59375,-30.5 1.75,-6.8125 2.53125,-12.25 0.34375,-2.625 2.5625,-2.625 1.4375,0 2.375,0.6875 1.8125,1.34375 1.75,2.875 -0.0625,1.53125 -0.4375,3.4375 -0.375,1.90625 -0.96875,4.15625 -0.59375,2.21875 -1.34375,4.6875 -2.0625,6.28125 -3.0625,9.0625 -3.0625,8.40625 -3.78125,9.84375 0.46875,-0.5625 1.21875,-1.53125 5.6875,-7.46875 7.03125,-8.90625 1.34375,-1.46875 2.28125,-2.25 1.96875,-1.71875 5,-1.71875 2.46875,0 3.96875,1.65625 1.40625,1.59375 1.40625,3.5 0,1.875 -0.4375,3.40625 -0.40625,1.5 -1.0625,3.0625 -0.65625,1.5625 -1.4375,3.21875 l -1.5625,3.28125 q -2.1875,4.96875 -2.1875,7.375 0,1.6875 1.375,1.6875 1.3125,0 2.375,-0.5625 1.09375,-0.5625 1.40625,-0.5625 0.65625,0 0.65625,0.65625 0,2.78125 -2.8125,4.65625 -1.9375,1.28125 -3.53125,1.28125 -1.59375,0 -2.65625,-0.3125 -1.03125,-0.34375 -1.84375,-1.09375 -1.84375,-1.6875 -1.84375,-4.96875 0,-3.53125 2.3125,-8.875 l 3.375,-7.1875 q 0.96875,-2 0.96875,-3.15625 0,-1.15625 -1.28125,-1.15625 z"
               style=""
               id="path46" />
          </g>
        </g>
      </g>
      <path
         d="M35.5,113 C35.5,113 50,111.209139 50,109 C50,106.790861 43.5081289,105 35.5,105 C27.4918711,105 21,106.790861 21,109 C21,109.829229 23.8692388,109.811227 26.4215222,110.449995 C28.9738056,111.088763 35.5,113 35.5,113 Z"
         id="path23"
         fill="#B1BE4E"
         transform="rotate(-15 35.5 109)" />
    </g>
  </g>
</svg>
