<svg xmlns="http://www.w3.org/2000/svg" width="1144" height="701" viewBox="0 0 857.93 525"><path d="M857.93 0h-5.14c1.15 2.74-3.64 2.73-2.52 0h-15.14c3.28 16.57 4.96 33.43 7.72 50.1 2.66 17.83 1.06 36 3.2 53.87a118.37 118.37 0 0 0 3.77-.06c1.42-.68 2.8-1.44 4.2-2.18-1.2 2.72-2.05 5.57-2.23 8.55-2.62 2.97-2.45 6.7-1.05 10.18 2.42-1.6 4.86-3.18 7.2-4.9v-5.78c-1.62-.57-1.62-1.13 0-1.68v-10c-2.65-2.2-3.2-4.85 0-6.87v-23.4c-2.45-.98-3-4.17 0-4.8v-11.6c-3.18-.42-6.34-1-9.43-1.86 2.24-.92 4.52-1.7 6.8-2.48l1.14-2.36-5.52-3.48 2.38-4.62c1.75 1.75 3.35 3.66 4.62 5.8V0m-10.3 10.3c.22 5.1-4.95-2.3 0 0m9.2 59.67l.16 2.97-3.6.94c.67-1.7 1.93-2.96 3.45-3.9m-6.2 20.28l-.04 4.1c-1.55-.96-1.98-2.76-2.56-4.35l2.6.26zm-94.62-57.32c-6.8-.46-14-3.98-20.64-1.25 2.1 6.14-1.7 12.1-1.44 18.25 1 5.98 5.53 10.75 6.3 16.8 1.02 7.15.3 14.48 1.93 21.56l2.07 8.38 6.47 19.94 1.9 5.52 2.76.02c2.62.04 5.22-.35 7.8-.8 1.54 2.5 3.24 4.88 5.18 7.07l.22-3.47 6.97-1.82-.94-4.18a128.16 128.16 0 0 0 3.67-5.7l3.78 1.9c.05-3.3-.9-7.23 2.25-9.45.5-3.8.1-7.62-1-11.3l-2.52 4.66-2.2-6.72c-2.46 2.28-1.96 5.43-1.3 8.37-4.07-3.15-4.28-8.43-2.36-12.84l6.5 5.83 1.03-5 .1-.68c-3.18 1.53-3.13-3.2-.2-3.26a86.75 86.75 0 0 1-.65-3.87l-3.32 3.1-2.54-1.75-4.66 1.4.9-5.28-5.87 1.77c1.25-3.07 2.13-6.27 2.36-9.58l2.3 2.43 4.26-2.1 7.24 4.46c.4-3.75 2-7.96-.23-11.43-5.14-8.5-13.1-15.26-16.34-24.88-1.25-4.28-5.87-5.46-9.73-6.08m10.74 34.62l-2.04 5.63-1.8-3.18 3.83-2.45m-10 11.62c.98 4.65-4.6-1 0 0m11.7 12.82l-.02 3.3 2.76.66c-2.02 2.27-5.45 2.3-7.63.24l4.9-4.2m2.85 14l-5.1-1.93 3.56-5.15c1.07 2.2 1.88 4.58 1.55 7.08m-20.55-1.57c2.3 3.43-3.92.8 0 0m11.18 9.2l-7.67-1.6c1.12 1.7 2.28 3.35 3.44 5.02-4.73-.14-5.38-4.3-3.34-7.82l4.34 1.05-.2-3c1.8 1.73 2.68 4.04 3.43 6.36zM661.94 154.1c2.33-3.94-1.03-7.08-4.13-9.1-1.2 3.74 1.7 6.7 4.13 9.1z" fill="#6e385c"/><path d="M852.8 0h-2.52c-1.12 2.73 3.67 2.74 2.52 0z" fill="#1e0f19" opacity=".3"/><path d="M835.13 0h-57.5c1.13 13.74 3.5 27.35 4.77 41.08-2.6-.55-5.1-1.66-6.47-4.07l-25.6-37h-16.97c5.94 10.13 16.2 16.72 22 26.9-7.65-.48-15.74.04-22.83-3.32.93 2.7 2 5.37 2.85 8.1 6.65-2.73 13.83.8 20.64 1.25 3.86.62 8.48 1.8 9.73 6.08 3.25 9.62 11.2 16.38 16.34 24.88 2.24 3.47.63 7.68.23 11.43-.28 1.85-.52 3.7-.66 5.57a86.75 86.75 0 0 0 .65 3.87c.32 1.08.4 2.16.2 3.26l-.1.68c.24 1.9.56 3.8.87 5.7 1.1 3.67 1.5 7.5 1 11.3 1.3 7.03 2.53 14.1 2.28 21.3-.13 22.06 1.5 44.16.1 66.2-8.14-15.1-12.3-31.94-17.82-48.1-1.52-4.54-4.22-8.7-4.7-13.55 2.17.56 4.4.86 6.62 1.14-1.7-1.92-3.53-3.74-5.4-5.52l-2.85 2.98c-4.36-.28-5.87-4.47-7.15-8l-2.76-.02c1.24 4.04 2.66 8.17 5.56 11.35 6.98 7.96 9.36 18.52 12.94 28.2 5.4 17.1 13.32 33.28 18.9 50.32 1.68 5 2.87 10.28 5.86 14.74-.2-2.34-.5-4.67-.76-7L822.96 276c5.46 8.8-.8 19.36 2.37 28.75 3.57 8.06-.55 16.67.24 25.04l.54 2.64c1.25-11.4 2-22.84 6.64-33.5 7.04 13.18 11.07 27.7 16.82 41.45 2.67 5.72 2.74 12.66-.42 18.2l2.38 5.92c-4.16.56-9.9.68-11.4-4.27l-2.7-1.73c-2.85-2.55-3.37-6.64-6.04-9.35.1 3.33.17 6.67-.16 10 .6 2.47 1.2 4.92 1.93 7.35l.5 1.03c.2-2.8.17-5.6.17-8.4 6.14 3.04 11.05 10.34 18.83 6.8-.3-4.76-.14-9.56.67-14.27 1.8 3.18 3.45 6.46 4.6 9.94V161.8c-3.87-11.47-6.46-23.32-9.94-34.92-2.58-6.9.98-14.3-1.98-21.17l3.8-1.82a118.37 118.37 0 0 1-3.77.06c-2.13-17.86-.53-36.04-3.2-53.87-2.76-16.67-4.44-33.53-7.72-50.1z" fill="#5b3e51"/><path d="M777.64 0h-27.32l25.62 37c1.36 2.4 3.88 3.52 6.47 4.07-1.27-13.73-3.64-27.34-4.77-41.08zm-44.3 0h-5.37c1.72 7.82 1.85 15.97 4.55 23.58 7.1 3.36 15.18 2.84 22.83 3.32-5.8-10.18-16.07-16.77-22-26.9zm-58.82 0H423.8l1.13 2.65c-2.5-.24-4.76-1.3-6.83-2.65h-5.78c1.57 4.23 5.28 6.78 8.65 9.47a27.33 27.33 0 0 0-4.93 6.98l-1.7.6c-.28-2.4-.43-4.83-.35-7.25l-2.66.45.85-6.48-2.14-.46c-.5-1.1-1-2.2-1.57-3.3h-.85c-.87 3.92-2.88 7.4-5.62 10.32l-1.25-6.4c-2.07 2.36-4.43 4.48-7.3 5.86L393 6.1l-2.3-1.43a168.58 168.58 0 0 1 4.88-1.42l.74-3.22h-1.4c-.01 2.25-3.6 2.57-2.56 0h-2.63c-1.25 4.22-.64 8.97-3.98 12.4l-4.72-6.96-2.83 4.8c.78.32 1.55.68 2.3 1.02a141.91 141.91 0 0 0-3.88 6.64l4.87-2.54c2.7 2.08 5.83 1.35 8.73.22-1.2 2.02-2.34 4.08-3.4 6.17 3.34.3 5.03-2.75 6.8-5.02l.01 5.4-1.87.63.15 3.36c3.2-1.56 6.76-3.1 10.3-1.57 3 1.58 4.38-1.92 5.96-3.8-.1 2.85.08 5.72.78 8.5L407 35.05c-2.06-2.13-4.15-4.22-6.33-6.23l-1.04 5.96 2.7.06a33.86 33.86 0 0 0-3.06 7.26c1.5-1.14 2.94-2.33 4.38-3.53 3.2 2.14 6.35.2 8.94-1.84-.74 2.74-4.54 7.07.26 7.07.83-2.13 1.7-4.24 2.68-6.3.77 2.92.6 5.93-.2 8.82 3.65 1.05 10.3 1.55 9 6.98-2.68-2.06-5.16-5.8-8.8-3.46l3.92 1 2.58 5.45c-3-.96-5.98-1.98-8.95-3.04l-4.47 3.02c1.2 3.1 3.52 5.48 6.07 7.53.7-2.18 1.5-4.32 2.34-6.44.18 1.54.3 3.1.42 4.64 1.88 1.23 4.03 1.83 6.27 1.72-1.8 1.35-3.52 2.77-5.24 4.2l4.36 3.03c2.27-1.8 4.84-3.2 7.77-3.53l-.2-3.78 4.77-.8-.7-3.77 4.28 2.8c3.22-2 6.75-3.5 10.5-4.13-1.67 2.35-3.5 4.57-5.34 6.8 2.2 2.13 4.9 1.8 7.6.93l.2 6.08c-2.97-.93-6-1.66-9.08-2.08 1.6 2.3 3.37 4.48 5.24 6.56l-6.2-.8 1.04 4.87-4.07.68a72.87 72.87 0 0 0 4.14 5.44l-3.87 2.15 2.8 1.28 2.25 5.05-5.9 2.5.63-7.48-4.04 4.1.12-4.6 5.16-3.72c-1.53-1.96-3.2-3.96-5.85-4.27l2.08 3.4c-1.3 2.1-2.54 4.24-3.8 6.38l-2.5-1.84c.75 2.42.96 4.97-.01 7.36l2 3.06c-2.5-.23-4.9-1.05-7.14-2.17l-1.86 1.3 5.1 1.47-3.27 3.48 3.35-.03.93 7.32 4.74-1.37c1.83 1.56 3.96 2.68 6.26 3.33l-2.12 4.17c2.95-.3 6.02-.94 8.9.1l-1.73 4.7c-2.4-.4-5.08-.84-6.8 1.34l3.76.3.65 3.66c2.52-.86 4.98-2.1 6.18-4.63l5.92-2.36-1.13 8.63a140.33 140.33 0 0 1 5.9-1.67c-.5-.9-1.05-1.77-1.55-2.67 2.34-.74 4.66-1.52 6.95-2.37a186.77 186.77 0 0 0-6.5-1.27l1.14-2.86-6.8-3.22c2.4-.62 4.8-1.28 7.15-2.08-2.32-2.48-5.48-1.16-8.5-.86 1.9-2.44 4.4-4.26 7.4-5.07 2.04.7 4.1 1.32 6.15 1.94l-5.75 6.3 5.84 1.53-.17-2.98a71.12 71.12 0 0 0 7.38 2.64 164.37 164.37 0 0 0-3.65-4.27c1.46-2.74.7-5.53-1.4-7.66l6.55.72-2.94-5.5c2.77.26 5.47.94 8.1 1.8L477.16 98l4.8-2.56 2.5 3.74-5.78-.93 3.2 3.13-2.73 2.16 2.17 3.28c4.3-.17 8.55-.66 12.77-1.42l1.28-4.72 3.96 3.26c-.23 2.64 0 5.3.98 7.78-3.6-.8-6.9-2.98-10.7-2.82 1.73 1.18 3.52 2.25 5.34 3.3l-5.28 3.27 3.74.35-.05 4.7 2.57-1.2 4 2.78c-1.38 4.45-3.23 8.84-6.7 12.1-1.2-2.9-2.5-11.44-5.4-4.95l-1.84.68 2.53 2.2c-1.76 1.6-3.47 3.23-5.13 4.92l5.4-1.03 2.78 2.6 4.27-.45-3.08 5.46c2.95-.27 5.92-.33 8.88-.1l-1.4 6.3-4.38-2.68-2.53 3.15 3.68-.2.6 4.08c2.4-1.38 4.58-3.1 6.24-5.33l5.82-1.9-1.08 8.84 5.02-2.66-.62-2.22a67.11 67.11 0 0 0 7.22-2.4l-6.2-1.08c1.03-3.97-3.38-4.9-6.2-5.9 2.6-.7 5.14-1.66 7.07-3.6-3.02-.7-6.02.06-8.9.93 2.62-5.67 8.84-6.14 14-3.88-1.96 2.22-3.9 4.46-5.74 6.77l4.16.06 1.48 2.15-.12-4.37c2.35 1.5 4.92 2.56 7.6 3.28-1.33-1.67-2.75-3.26-4.2-4.83l1.82-2.3-2.94-4.66 6.75.26c-1.76-2.5-3.54-5.07-4.14-8.12.6-1.95 1.36-3.82 2.13-5.7-.97-.9-1.9-1.85-2.85-2.77 5.14-.92 8.8-4.56 12.4-8 2.32 7-7.94 6.34-7.56 12.55l3.82.87-1.85 3.27c3.92-.26 7.82-.72 11.75-.7l.24-4.98c1.75-.25 3.5-.48 5.26-.63.36 2.76-2.6 4.2-4.1 6.13l5.8 1.66-4.75 4c2.33 1.64 4 3.95 4.8 6.7l1.8.25 1.4-4.65 3.42 3.16c.35-2.34.5-4.7.43-7.05 2.32 1.7 4.72 3.26 7.1 4.86l-.4-6.03c1.94-1.24 4.43-2.37 4.26-5.07-3.18 1.4-6.46 2.6-9.87 3.3l.4-3.05 4.45-1.77-.3-4.26 2.8-2.3-6.4-1.95c3.1-.3 6.35.25 9.32-.72 3.58-3.16 3.28-8.3 3.5-12.66l1.62.06.63 6.22c2.72-2 5.4-4.05 7.84-6.4 1.95 2.3 3.8 4.8 4.1 7.9l-2.6.52-3.82-3.24c-5.85 2.57-1.6 6.58 1.28 9.84l-4.02 2.72 5.05 1.53.76-4.77 2.5.77c-1.44 1.98-2.97 3.9-4.56 5.77 1.84 1.78 3.73 3.5 5.64 5.2l-6.6 2.02 3.75 3.54 1.84-1.06a167.5 167.5 0 0 0 4.62 5.35l-.57-5.5c3.7-1.07 3.35-5.02 3.02-8.08 1.63 1.93 3.35 3.8 5.23 5.48.06-1.85.1-3.7.08-5.53 3.44-1.45 7.2-1.1 10.83-1.34 2.16 1.5 4.4 2.9 6.66 4.24l-1.53 4.7c-2.45-1.13-5.1-1.74-6.92.76l4.2.04.53 4.5c3.9-2.74 7.36-6.18 11.9-7.84-.3 2.92-.64 5.85-1.06 8.76 1.84-.85 3.75-1.57 5.77-1.83l-1.97-3.02c2.56-.27 5.1-.7 7.58-1.37-1.95-.7-3.9-1.42-5.95-1.85l-.04-3.22-6.5-2.66c2.64-.7 5.24-1.53 7.7-2.74-2.36-.65-4.73-1.22-7.1-1.8 1.38-3.28 4.6-2.8 7.44-1.92l1.65-4.25 7.36 1-4.03 6.2 4.98-1.14-1.13 2.97 2.52.65.5 2.53.93-1.16c-.6-2.96-.5-5.98.06-8.93l7.1-.12-2.8-1.77 4.4-2.24c-1.37-2.23-.25-4.44 1.04-6.37l-2.3-2.86c2.16-2.5 4.6-4.8 7.78-5.92l.93 8.15-3.87 1.6 2.08 4.1c2.56-2.5 5.18-4.97 7.9-7.3l3.78 1.3a13.52 13.52 0 0 0 2.2.2c2.62-2.1 4.97-4.47 7.46-6.7-4.18-1.58-7.25-4.85-9.85-8.35l1.02-2.53 5.5 5.76 8-7.97-6.65-7.66 5.5.96-3.02-4.53 2-3c-4.7-1.1-10.27-3.26-11.55-8.45 2.65 1.2 5.18 2.6 7.64 4.16l1.2-2.5c.26-1.52.4-3.06.45-4.6-3.62-1.2-3.34-4.96-3.5-8.1l-1.4-1.73c-8.7 3.9-18.76 13.8-13.57 23.94l2.6 1.46-.06 4.12.8-.63 2.2-1.75 2.32 2.74c-4.78 2.34-8.63 6.03-11.94 10.14l2.2 3.23-1.26 2.9-4.4-.6a54.47 54.47 0 0 1-1.35-.15l-7.97 1.65c-.77-5.27-.1-10.6 1.66-15.6l-11 3.5 2.6 3.42c-5.57-5.37-13.15-1.07-19.5.15-3.8.76-8.53 4.1-11.58.13 9.97-3.6 20.63-4.82 30.7-8.07 7.17-3.64 15.23-5.1 21.9-9.8-2.54-.9-5.13-1.62-7.74-2.28l-2.94-4.28c-10.44 1.43-20.38 6.12-31 5.8 4-1.76 8.44-2.2 12.46-3.93 7.6-4.13 16.65-3.84 25.02-3.2 1.67-3.45 1.84-7.15-1.1-9.98l3.65 1.98c4.17-6.17 11.52-8.48 17.1-12.94 3.78-3.77 2-9.52 2.6-14.26.85-7.48-.03-14.97-.73-22.42M429.78 7.14l-.73 2.3c-2.33-.53-4.7-.9-7.1-1l-.16-2.4c2.7.24 5.36.57 8 1.1m14.35.74l.63 6.76-6.08 2.18c-.45-2.13-.06-4.1 1.83-5.36l-.26-3.54 3.88-.04m-34.82 4.68l.38 4.45c-1.63-1.37-3.13-2.93-3.92-4.95l3.54.5m-7.04 5.57c.43 1.42-1.85 2.88-3.1 2.26-.63-1.5 1.82-3.17 3.1-2.26m24.2 7.2c-3.3.16-4.22-3.05-4.8-5.62 2.16 1.32 4.7 2.74 4.8 5.62m-13.16-4.15c1.3 1.15-.58 3.44-1.87 2.1-1.4-1.16.58-3.48 1.87-2.1m5.73 3.06c-.9 2.9-2.3 5.92-5.72 6.3l.1-2.98-2.9-1.48 3.93-1.76L415.6 22l3.46 2.26m21.72 10.65c-3.74-1.64-8.16-3.34-8.73-8 3.6 1.83 6.12 5.03 8.73 8m201.37 4.4c-2.08-1.1-3.88-2.66-5.32-4.53a15.29 15.29 0 0 1 5.32 4.53m-7.4 5.86c-3.22-1.3-6.17-3.3-8.04-6.3 4.37-.7 7.27 2.24 8.04 6.3m14.45.17c-2.52-1.4-4.72-3.3-6.43-5.6 2.53 1.38 4.7 3.32 6.43 5.6M431 39.66c1.04 1.8.95 5.67-1.9 5.25-2.07-2.05.7-3.7 1.9-5.25m133 12.2l-2.53-.57-.3-6.42c2.24 1.75 3.62 4.08 2.83 7m-10.8-7.18c-1.1 2.27-2.8 4.16-5.46 4.45.66-2.62 3.15-3.65 5.46-4.45M463.5 56l-1.9 1.96a45.91 45.91 0 0 1-7.8-6.44l3 .56-1.58-4.1c4.7.23 8.38 3 8.27 8.03m-29.4-6.67c-.53 2.83-2.06 5.16-5 5.86.43-2.63.96-5.24 1.56-7.83l3.43 1.97m237.03 2.22l-3.53.28c-.35-3.8 3.25-3.85 3.53-.28m-119.08 6.92c-2.02-1.2-4.9-2.7-4.2-5.58 3.7-1.46 3.88 3.17 4.2 5.58m-81.2 8.88c-3.7-2.08-4.24-6.98-2.88-10.64 2.93 2.74 3.5 6.84 2.88 10.64m202.12 8.46c-1.4.34-2.73.82-4.06 1.36l.88-3.42 3.18 2.06M446.1 80.85a20.36 20.36 0 0 0 1.39 5.32l-3.32-.47-1.2-2.6 3.14-2.24m182.44 1.35c.33 5.12-4.95-2.24 0 0M455.9 83.7c1.02 1.3-.78 3.64-2.3 3.05-.58-1.23.88-3.47 2.3-3.05m166.28 4.98c-2.17-1.3-7.56-1.14-6.9-4.36 3.44-2.06 5.22 2.13 6.9 4.36m40.2-2.52c.76 1.5-1.87 2.8-2.9 1.67-.78-1.53 1.87-2.84 2.9-1.67m-27.1-.16c.06 1.42.1 2.85.08 4.28l-5.36-.6.74-1.9 4.54-1.8m5.6 2.57c1.6 4.53-4.37.45 0 0M561 94a16.23 16.23 0 0 1-8.25-5.07C556.9 86.98 560.2 90 561 94m-89.24-6.05c3.58 3.88-5.32 1 0 0m3.55 3.23c.82 1.2-1.06 3-2.24 2.2-.87-1.2 1.06-3.04 2.24-2.2m-13.58 2.1c3.2 2.07-3.43 2.2-3.13-.06a3.28 3.28 0 0 1 3.13.06M641 99.03c-4.73 2.7-10.14 3.62-15.28 5.25 1.32-2.42 2.72-4.8 4.32-7.04 3.57 2.35 7.9-1.65 10.96 1.8m-180.76 3.42l-3.47.54-.18 2.8-2.52-1.83c-2.54 1.3-5.25 2.23-8.1 2.4l1.27-5.16 3.04-.12.16 1.9 3.56.37-.53-3.26 2.45-2.33 4.33 4.7m52.6 5.95l-5.05 2.37 2.18-3.4 2.87 1.02m7.8 7.53l-1 3.23-2.64-4.08 3.63.85m-2.3 5.6l-5.46-1.3-1.24 3.55c1.86 1.9 3.2 4.2 3.57 6.85l-2.97-1.7-1.1 3.42c-1-1.38-1.76-2.9-2.18-4.56-4.5-.66-4.25 1.7-.55 3.12-2.22.94-4.54 1.67-6.92 2.13.1-2.02-.1-4.05-1.34-5.73 4.06-.1 11.43-1.72 9.1-7.27l5.73-2.3 3.36 3.8m-16.56-1.2c1.8 4.73-4.37-.55 0 0zm-186.28-34c-9.58-.45-11.4 13.77-7.4 20.4 1.3 3.68 6.15 5.84 8.9 2.3 5.63-5.98 5.76-17.96-1.5-22.7zm-99.93.8c-2.58-1.5-5.98.75-7.5 2.95-3.43 6.33-3.57 15.55 2.27 20.52 3.85 2.57 7.63-1.94 8.94-5.24 2.02-5.97 1.92-14.22-3.7-18.23zm60.36 22.14c-6.62-4.38-14.9-1.82-22.28-1.8 3.84 9.07 15.83 6.5 22.28 1.8m-2.48-.25c-3.97 4.27-11.07 5.06-15.08.43 4.98-.76 10.07-1.33 15.08-.43zM81.37 175.1c-5.18.58-10.12 2.42-15.3 3.08 2.88 1.66 5.64 3.5 8.67 4.86l-4.65 1.85-4.58-4.12-1.06 3.65c-4.7-1.97-9.2-5.76-14.5-3.12l5.12 3.82-6.2-.06c.84.66 1.65 1.33 2.47 2l-2.38 4.45c4.12-1.72 7.37-5.4 11.7-6.4 1.37 1.48 2.44 3.2 3.53 4.9-3.13-.6-6.32-1.17-9.52-.7 1.47 1.84 2.97 3.64 4.5 5.42l-6.26-.48 1.64 4.78-4.1 1 1.15 3.27 3.92 2c-.3-1.03-.63-2.06-.96-3.1l2.78-2.14 1.08 4.8c-3.06.77-6.05 1.82-8.82 3.36l4.16.4 1.8 5.7-6.02 2.92.87-7.7-4.5 3.42.6-4.46 5.04-3.8c-1.66-1.67-3.44-3.2-5.3-4.66l1.22 3.95a230.81 230.81 0 0 0-2.97 5.88c-3.04-1.17-6.04-2.46-9.02-3.78l-.27 3.14c-1.92 1.1-3.83 2.23-5.67 3.48 4.62.78 9.17-.68 13.78-.55-3.82 2.6-8.46 3.25-12.85 4.34l-1.15 3 2.85 1.6c-.46 2.02-.86 4.06-1.23 6.1 1.7-1.88 3.34-3.83 4.94-5.8l-3.97-3.6 7.85 2.4-4.08 4.1 3.16.2 1.3 3.2 2.34-.33-1.8 4.1 6.57-1.96c-2.52 1.62-4.76 3.66-6.3 6.27 3.86.22 7.6-.75 10.8-2.93l-2.25 5.08c3.18-.46 6.52-.93 9.32 1l-3.1 4-3.72-.74-2.36 2.13 4.65.27c-.56 2.73-1.6 5.34-3.02 7.73l4.03-1.05-.6 5.3c1.76-1.57 3.32-3.33 4.55-5.33l4.1-1.8 3.05 1.65 1.75-2.78 2.7.17-2.1-3.76 2.47-.03a44.46 44.46 0 0 0 3.7-.25l.93-1.68-5.53-.75.24-3.62-6.76-2.77c2.28-.6 4.6-1.06 6.76-1.98.1-3.92-5.66-1.14-8-.8 2.97-4.83 8.7-7 13.67-3.66l-5.6 6.96 5.83 1.26.15-3.15 5.65 2.88c-2.4 6.66 1.7 12.34 5.16 17.63.37-.25 1.13-.74 1.5-.98-1.8-4.57-8.07-7.28-6.63-12.8.03-2.98 3.6-3.4 5.62-4.76l-2.87-.66.63-1.76 2.03-.78 1 5.12c2.42-.32 5.6-.38 6.74 2.3 1 3.4.66 7.26 2.94 10.2.02-3.3-.4-6.56-.85-9.8.86.46 1.68.94 2.5 1.4l3.4-3.62c-3.37-1.35-4.88-4.62-5.86-7.88l2.34.26c1.48 2.9 3.87 4.82 7.28 4.02-1.65-1.3-3.36-2.5-5.1-3.66l3.3-2.16c2.77 1.74 5.35 3.8 7.26 6.5a87.42 87.42 0 0 1 3.33-5.7c-2.02-1.7-4.53-1.6-7.04-1.36-1.1-3.52-3.04-6.77-6.4-8.55 3.04-3.04 7.26-2.7 10.92-1.07-1.68-2.8-3.1-5.74-4.35-8.75l8.12-1.32c-3.14-2.96-7.18-4.56-11.32-5.52 2.43-1.17 4.84-2.38 7.2-3.7 2.52 2.45 6.65 3.36 9.54 1.05.5-4.28-.16-8.57-.24-12.85-3.5-.06-7-.13-10.48.2l-.88-1.26.76-4.45c-4.03-1.67-11.72-1.5-11.68 4.35 2.44 3.2 4.86 6.52 5.36 10.67l-4.64.26 2.05-4.16-7.8-4.77c2.84-3.07 5.64-6.2 7.83-9.78-4.35 1.07-8.72 3-10.22 7.62l-3.02-.43 3.46-4c-5.92-1.48-12.36 7.13-17 .6 1.52-2.7 3.48-5.1 5.2-7.65m-6.64 11.9c-.1 3.35-2.98-1.5 0 0m25.95 6.65c-.64 2.5-1.28 5.44-4.47 5.34l-.13-2.13 4.6-3.2m3.76 12.67c-2.64.34-7.3-1.32-5.67-4.62 3.17-.84 4.64 2.28 5.67 4.62m-36.87-3c1.04 1.2-.76 3.54-2.13 2.52-.96-1.2.78-3.55 2.13-2.52m15.15 3.92c1.47-.23 2.8 1.97.97 2.53-2.1 1.2-3.74-2.7-.97-2.53m3.73 3.98c.04 4.56-4.5-1.05 0 0m-12.77 2.02c2.93 2.4-3.8 1.66-4.02-.1 1.18-.8 2.83-.46 4.02.1m17.98 4.7l-1.32 3.1-1.4-3.85 2.72.75m-47.44.32c-2.45 2.3-5.43 1.3-7.05-1.45 2.46-.08 4.84.4 7.05 1.45m27.3 3.83l-3.18 1.36-.4 2.13c-3.5-2.88-6.94 2.2-10.78.74l2-5.54c1.93 1.32 4.13 2.07 6.27 2.94-.17-2.2.2-4.33 1.33-6.23l4.76 4.6m12.65 3.54a195.62 195.62 0 0 1-5.98.13l.07-1.6c2.02.26 4 .74 5.9 1.48m18.5.46c3.6 3.57-4.75.55 0 0m-9.8 6.06c-2.14-1.2-3.93-2.92-5.13-5.06 2.22 1.1 3.98 2.87 5.13 5.06m-9.3 3.03c-1.68-.98-3.26-2.14-4.7-3.5l2.48-1.28-.14-3.72c2.86 2 2.63 5.4 2.35 8.5m14.17.9c1.08.46 1.74 2.66.2 2.97-1.9.2-2.5-3.9-.2-2.97m-31.9 5.06c-.1 1.73-.24 3.47-.42 5.2-1.1-1.12-1.92-2.46-2.56-3.9l2.98-1.3zm35.7 16.33l-2.8-2.28.53 6.77-5.5-2.62c-2.1 2.3-4.9 3.73-7.73 4.92l4.6 2c-2.86.35-5.8.88-8.2 2.6l7.28 1.38-2.34 3.53.48 1.8 3.4.5c.75-2.57 3.1-4.04 5.1-5.57 1 5.3.6 10.66.02 15.98 1.9-5.3 2.13-11 3.56-16.4l5.74 4.3a86.96 86.96 0 0 0-.5-3.95c2.3 1.2 4.7 2.1 7.23 2.64-1.55-1.67-3.22-3.22-4.95-4.7l.48-1.9a129.41 129.41 0 0 0 8.22 1.55c-1.3-.95-2.64-1.87-4-2.77 3.37-.63 7.4-1.26 8.43-5.15-2.95.7-5.86 1.56-8.8 2.3l4.05-4.95c-3.87.07-7.93-.85-11.65.7l-.16-2.1-2.47 1.44M95.7 267c3.3 3.7-4.68.56 0 0z" fill="#6f395d"/><path d="M394.96 0h-2.56c-1.05 2.57 2.55 2.25 2.56 0z" fill="#0b050a" opacity=".1"/><path d="M847.62 10.3c-4.95-2.3.22 5.1 0 0z" fill="#2e1a27" opacity=".47"/><path d="M229.9 37.84c-7.55-12.18-20.66-20.36-34.94-21.75-13.7-1.48-29.96-.92-39.9 10.04-11.95 14.46-16.8 35.75-9.6 53.45 2.7 6.94 9.4 10.75 15.34 14.58-1.13 4.96-2.85 9.95-2.08 15.1l2.97.16c-.93 8.05-3.96 16.48-.63 24.37 1.1 6.66 1.76 13.45 4.57 19.7a56.79 56.79 0 0 0 1.54 2.17l2.7 2.47 1.2-6.34-1.87 3.43c-6.28-8.96-6.5-20.26-7-30.77-1.16-8.7 1.72-17.14 4.3-25.3l-4.8 4.63c-.05-3.73.88-7.65-.32-11.25-4.42-3.5-10.2-5.7-13-10.94-5.55-10.4-6.16-23.2-2.13-34.26 3.16-8.9 6.54-18.76 14.8-24.22 9.77-6.17 21.9-6.57 33.07-5.4 13.7 1.2 26.94 8.8 33.42 21.18-4.36 1.67-8.73 3.36-12.9 5.5 5.84-.8 11.65-1.85 17.47-2.8l-5.04-.7c6.56-2.5 13.6-3.7 20.6-3.6 2.84-.04 5.67-.2 8.5-.4-1.43-.58-2.87-1.16-4.35-1.66-7.4-1.08-14.84.48-21.93 2.6zm178.9 3.8c-2.14.33-2.44 2.54-3.12 4.2L409.1 47l-.3-5.37zm15.68 59.26c-2.07-1.35-4.25-2.65-6.78-2.87l2.83 3.28-1.54 4.8c2.7-.64 3.94-3.17 5.5-5.2zm234.08 9.68c-2.3.65-4.53 1.5-6.73 2.42l2.4 4.7 2.4.45c-2.44-2.82.24-5.26 1.92-7.57zm-124.3 17.5c-.72-2.1-2.32-3.42-4.6-3.4.52 2.28 2.57 3 4.6 3.4zM208.1 355c.18-4.2-3.8-6.3-7-7.93-3.25 2.37-4.9 6.84-2.77 10.5 2.18 4.36 9.98 2.33 9.77-2.57m-7.67 2.72c-1.03-3-1.2-6.3 1.4-8.56 5.1 2 5.36 10.23-1.4 8.56z" opacity=".96" fill="#693558"/><path d="M365.8 20.2c-21.83-6.86-49.53-3.43-63.74 16.28-10.45-3.15-21.22-5.23-31.4-9.2 2.43 2.6 5.12 4.96 7.86 7.24-8.07-.6-15.83-2.9-23.74-4.4 9.75 3.47 20.02 5.46 30.27 6.67l-3.5-4.3c14.55 3.7 28.92 8.06 42.7 14.03-1.16-1.25-2.36-2.48-3.55-3.7 9.62-8.24 23.28-9.74 34.6-4.14 10.54 4.07 16.7 15.46 16.84 26.4.07 7.45-6.15 12.56-8.6 19.13 5.12-4.74 9.4-11.1 10.2-18.16.2-10.17-4.5-20.88-13.25-26.47-7.28-4.35-16.03-6.6-24.5-5.73-6.8.7-11.83 5.8-17.97 8.08-4.6-.96-8.83-3.18-13.22-4.83 7.68-11.66 21.5-17.8 35.18-18.2 11.35-.53 23.55.42 33.26 6.9 8.67 6.1 11.74 16.94 14.44 26.64 3.88 14.7-1.66 33.95-17.67 38.6l-2.04-1.62c-1.93 8.48 3.55 16.16 2.7 24.6.38 5.64-3.96 9.77-5.53 14.87l-3.04-1.87c1.45 9.4-2.24 18.16-3.44 27.28 1.17-1.9 2.28-3.83 3.4-5.76-1.27 10.4-.4 20.86 2.8 30.84-2.32-2.74-4.15-5.84-6.3-8.7.1 4.12 3.6 6.84 5.55 10.17-.06 1.94.4 3.86 1.8 5.3 5.57 6.7 11.36 13.57 14.18 21.95 9.78 30.08 16 61.96 11.97 93.65l-2.48-1.03c-.02 6.53-3.13 12.3-5.74 18.1-1.9 4.48-6.96 6-10.4 9-3.8-8.94-3.14-18.57-1.7-27.92-1.25 2.37-2.4 4.8-3.58 7.2-.13-19.18 2-38.88-4.47-57.4l-.97 2.95-2.2-5.35c-5.37-9.97-13.2-18.68-22.36-25.27-7.82-2.5-13.63-8.5-20.64-12.47-3.3-2.1-7.33.43-10.78-1.2-3.6-1.55-7.5-1.9-11.36-1.55l1.65-2.15c-4.94-.24-9.92-.18-14.78.8-9.24 2-18.7.04-28.03.98-10.64 1.4-21.56 2.55-31.26 7.54-15.7 8.4-29.28 20.9-39.8 35.23-5.42 6.44-5.32 15.1-7.2 22.88 2.15-5.28 4.2-10.63 7.06-15.58l-2.57.27c9.87-18.98 27.5-32.73 46.45-41.98 15.9-6.9 33.67-6.66 50.62-5.6 10.24-4.08 21.06.2 31.47 1.48 10.55.33 17.47 9.72 27.24 12.52 7.27 4.7 12.55 12.02 17.8 18.8 9.65 12.93 10.96 29.55 12.57 45.02-1.52 16.16-4.28 32.28-8.67 47.93-3.47-6.73-10.1-11.4-17.2-13.62-6.3.33-12.5 2.4-18.63 3.9-11.82 7.93-17.43 21.9-22 34.83-1.5 3.32-1.2 8.37-5.16 9.87-5.64 2.5-11.14 5.3-16.87 7.6l.66-2.4c-10.1 2.13-21.75 6-31.42.58-3.52-17.1-13.2-33.23-26.9-44.1-6.4-5.64-15.77-6.08-23.6-3.7-5.65 3.03-8.68 9.16-13.8 12.9-9.34-14.72-5.47-33.27-11.83-48.88.3-11.05 2.15-22 3.48-32.94-3.1 8.53-2.36 17.76-4.38 26.5-2-14 2.17-27.8 3.5-41.6 3.3-11.47 8.42-22.4 11.15-34.05-6.18 13.1-10.78 26.93-15.83 40.5l2.92 1.12c-1.9 8.86-3.7 17.8-4.53 26.83 4.1 15.92 3.33 32.74 7.6 48.7.6 3.4 2.36 8.66-2 10.25-5.8 1.6-11.86-3.27-11.74-9.3l-.7 4.64c-5.1-10.27-2.13-21.98-4.08-32.9l-2.26 9.9c-2.12-16.5-7.56-32.76-5.6-49.6l-3.8 5.5c.6-14 4.33-27.66 8.8-40.8-.6-11.18 9.8-18.55 12.35-28.88-1.3 1.6-2.5 3.27-3.67 4.97l-.86 1.3-1.4-1.68c-.17 1.06-.35 2.12-.6 3.17-3.2 10.25-12.2 18.88-11.2 30.35-2.2 13.1-6.56 26.15-5 39.62 1.27-2.15 2.36-4.4 3.37-6.67-.7 14.8 3.14 29.3 7.02 43.44.8 3.18.6 6.5.48 9.74l1.44-4.53c.44 8.8 1.93 18.04 7.47 25.2a195.64 195.64 0 0 0-.38-4.87c8.88 2.4 8.56 12.27 10.15 19.6-4.86-3.27-9.78-6.6-15.5-8.2 1.7 4.95 7.72 4.02 11.05 7.2 4.33 3.64 11.12 5.88 11.75 12.33 2.04 11.84 9.9 21.2 17.3 30.16-14.1-6.22-30.85-4.72-43.96-13.5-2.4-1.2-2.33-4.17-3.04-6.4-5.06 3.27-11.46 2.5-16.73.17-2-2.03-3.08-4.86-5.35-6.65-13-5.33-21.8-17.52-35.1-22.6l6.25.43c-3.36-1.88-6.8-3.76-9.43-6.64-5.38-5.85-14.67-6.88-18.86-13.98-2.28-4.88-8.54-6.36-9.86-11.92l-.75 2.27-4.2-2.82 2.83-1.96-5.12.16c-1.64-4.15-5.03-6.98-9.33-8.1l7.43-2.5c1.6 3.6 4.77 5.86 8.04 7.8 5.38 3.1 5.9 11.13 12.45 12.7-5.74-4.13-7.47-11.93-14.05-15.07-3.54-1.6-4.95-5.3-6.26-8.68-5.55-2.93-12.75-4.27-16.05-10.16-2.56-4.45-5.9-8.84-6.12-14.16 2.78 4.12 5.1 8.52 7.75 12.73l2.6-6.2c.1 3.57.46 7.14 1.2 10.64.2-3.4.23-6.8.43-10.17l2.83 5.87 2.25-2.6 3.33 3.36c.2-3.3-2.5-7.27.7-9.76l2.7 2.43 2.55-.2 1.3 1.52c3.66-1.45 7.6-1.77 11.5-1.9l.08 4.15 4.55-2.16 1.15 1.95 1.87-1.06c-.25-4-.28-7.98-.47-11.97l-.87 3.6-3.6 1.02c-6 2-14.73 3.72-18.97-2.3l2.6-2.83-3.5-.35a77.1 77.1 0 0 0 2.92-7.27c-1.86 1.27-3.7 2.6-5.5 3.96l-1.3-2.75c-2.46.77-4.8 1.87-7.06 3.13 1.15-2.43 2.14-4.95 2.87-7.54-3.3.7-4.6 3.73-5.78 6.52l-1.46-6.3-3.3.57a66.13 66.13 0 0 1-3.92 5.84c-1.45-3.05-2.78-6.17-4.05-9.3-1.82-.01-3.65 0-5.5 0-.68 2.8-1.43 5.6-2.25 8.4l-5.73-5.44.5 5.1-2.62-1.68c-3.24 2.14-6.66 4-10.1 5.83l2.44 1.52a101.87 101.87 0 0 0-1.4 6.74c3.76-2.62 5.43-7.08 8.78-10.1-.67 4.84-3.72 8.8-5.65 13.2 1.76.38 3.46.9 5.15 1.47l3.52 4.2-.88-7.7-5.56.93c2.37-1.57 4.8-3.06 7.17-4.6l-4.1-.6 5.12-3.75c-.45 3.48-.86 6.98-1.03 10.5l2.3-2.2a28.6 28.6 0 0 1 5.07.25c.4.8.8 1.6 1.17 2.43l2.44-.84 1.15 2.74 1.63.6 1.06-3.85 2.2.3c2.5 4.1 4.38 8.7 7.74 12.2 3.58 2.76 8.73 3.72 10.54 8.38l-7.3 2.83c3.03 1.8 6.86 2.56 9.17 5.32 4.1 7.62 13.7 9.63 18.24 17C75 337.1 90.46 337.2 93.3 349.7c5.9 1.78 10.1 6.64 15.77 9 6.02 5.74 12.28 11.33 17.88 17.5l-.68-3.9c3.63-.14 4.88 3.25 6.25 5.96l-5.26.14c18.9 7.48 38.67 12.7 58.6 16.6 7.58 1.86 15.24 4.6 20.95 10.13 5.02 4.62 12.34 5.57 18.7 3.46 7.07-1.33 12.7-8.15 20.36-5.84 16.76 2.95 33.9.85 50.66 3.04l1.02-3c5.35.47 9.52 3.83 13.3 7.32 7.38 6.34 18.6 2.97 24.93-3.25 4.93-5.96 13.4-3.03 20.1-4.26 40.34-3.45 79.92-12.7 119.4-21.3 5.9-.7 11.94-1.1 17.5-3.43 24.83-7.97 48.3-19.38 72.07-29.98 10.62-4.68 20.74-10.37 30.7-16.3 12.97-7.08 28.54-12.03 43.2-7.45 15.52 4.23 28.08 14.78 40.05 25.03 5.46 4.95 12.2 9.38 14.23 16.9 1.32 5.15 7.25 7 8.83 11.97 1.12 3 1.92 6.1 3 9.1-.5-3.7-1.06-7.43-2.27-10.98-1.2-4-5.8-5.54-7.4-9.32-1.65-3.83-3.03-7.98-6.3-10.8-10.23-9.55-21.06-18.5-32.53-26.5-12.63-8.7-29.26-12.37-43.96-7.03-16.86 5.06-30.5 16.8-46.73 23.24-23.8 10.5-47.22 22.08-72.04 30.08-5.58 2.3-11.52 3.2-17.5 3.67-44.74 9.37-89.54 20.72-135.44 22.2 6.94-13.12 17-25.06 19.18-40.2 22.05-5.1 44.7-7.17 66.82-11.84l84.07-27.84c5.62-1.85 9.7-6.34 14.26-9.88-6.3 2.97-11.28 8.3-18.13 10.1l-79.05 24.84c-19.07 4.3-38.48 7.14-57.68 10.88-3.18-4.8-2.8-10.58-2.13-16.02l2.58 5.26c1.26-4.84 2.1-9.76 3.17-14.63l1.68.55c4.68-5.96 9.67-11.83 12.1-19.15l1.93 5.88c1.24-4.8 1.14-9.82 2.37-14.6 4.15-13.83 2.77-28.47 1.6-42.63l4.7 3.68c-7.14-15.75-8.07-33.3-13.96-49.46-2.58-6.6-2.84-14.06-7.06-19.97-6.45-8.17-11.7-17.8-12.64-28.37l-1.32 1.44c-.03-11.07-.36-22.28 1.42-33.2 5.25-6.7 6-15.3 7.05-23.47l2.14 1.46c-1.56-7-4.53-13.92-3.97-21.2 5.12-3.24 11.3-5.4 14.68-10.77 7.27-11.26 7.2-25.82 2.94-38.18-3.25-10.67-10.58-20.84-21.66-24.2M50.26 274.66l-4.46-.83 1.16-3.7 3.3 4.52m-9.54 6.5c-2.6-1.75-1.85-4.8-1.43-7.44.8 2.4 1.3 4.9 1.43 7.44m-3-6.56c.2 3.15-.02 6.32-.48 9.45l-2.87-4.2c.86-1.9 1.9-3.72 3.35-5.24m-11.9 2.86c1.8 5.08-5-.15 0 0m347.48 53.48l-2.55 6.85-2-1.56c-1.65 5.95-2.5 12.13-2.1 18.3-7.2-6.1-10.55-17.06-5.66-25.6 3.6-6.2 4.73-13.33 5.38-20.36 4.08 6.77-1.42 17.33 6.95 22.37m-19.6.3c8.47 15.18 6.06 35.2-2.67 49.82-4.8 7.56-8.6 15.8-14.3 22.75-5 5.82-13.3 9.64-20.96 7.4-5.14-2.13-8.74-6.63-12.53-10.52-2.67-3.14-6.56-6.07-6.4-10.63-.7-19.36 6.27-38.38 16.6-54.5 2.4-4.5 7.54-6.23 10.5-10.24l1.86.8c4.6-1.74 9.46-2.7 14.12-4.3 3.66 4.5 10.6 4.3 13.77 9.4m-137.73-.4c13.26 7.5 21.1 21.54 27.14 35.02 3.52 10.62 4.87 24.3-3 33.32-7.3 6.06-17.7 10.73-27.22 7.87-10.73-5.8-18.52-15.8-25.34-25.68-6.45-11.42-10.64-26.3-4.12-38.6l.65 4.84c1.54-3.36 2.2-7.1 4.13-10.27 3.63-4.26 8.93-6.6 13.84-9.03 4.85-.02 9.04 3.76 13.92 2.53m-38.45 5.1c1.25 2.5 2.53 4.98 3.88 7.43-1.65 4.1-2.67 8.4-3.14 12.77-2.68-4.9-5.76-9.8-6.96-15.3 2.2-1.5 4.2-3.18 6.22-4.9M360.2 360.3c-.06-3.8.02-7.62.1-11.42 3.4 3.15 5.2 9.07-.1 11.42m-184.72-6c.94.77 1.87 2.32 1.1 3.5-1.98 1.06-3.65-4.4-1.1-3.5m193.7 3.2l-4.97 1.66.9-3.23 4.08 1.57m-72.58 14.1c-.85 6.62-1.8 13.32-1.14 20 .33 4.53 4.34 7.3 6.9 10.6l-5.9.05-.8 2.26c-4.13-1.47-8.5-.66-12.76-.64-14-.4-28.08-.46-41.94-2.8 5.35-6.38 6.85-14.83 6.38-22.94 3.15 1.23 6.3 2.42 9.53 3.44 1.27-1.5 3.2-1.67 5-1.96-1.06 1.37-2.16 2.7-3.25 4.06 12.6-4.33 26.33-4.98 37.97-12.08m-143.64 13.7l-3.4-.9-.74-3.4c-3.84 2.23-8.23 1.35-11.7-1.17 4.03.28 8.37 1.57 11.97-1 1.14 2.25 2.42 4.42 3.85 6.5zm232.6-366.6l-3.78 3.84c1.35.54 2.64 1.22 3.9 1.93l-.13-5.77zM211.6 45.73c-4.9-4.45-8.86-10.94-15.83-12.27-6.97-.85-14.14.3-20.7 2.73C161.4 41.3 154.2 59 160.8 72.13c3 5.98 5.2 12.86 10.33 17.4-3.25-8.67-9.66-16.12-11.08-25.5-1.18-11.13 5.6-23.06 16.43-26.62 6.65-2.16 14-3.6 20.9-1.84 4.87 2.34 9.36 6.27 11.46 11.34l2.77-1.17zm48.58 54.17c-2.68-.13-4.87 1.34-6.5 3.35 2.4-.6 4.66-1.68 6.5-3.35zM709.2 225.76c-3.65-2.4-8.22-4.8-12.45-2.24 2.48.65 5 1.2 7.5 1.78l-4.88 3.2-.5 2.33c3.5-1.6 7.36-2.5 10.34-5.06zm-586.14 9.26c-.06-3.13-3.18-3.8-5.68-4.24.6 2.77 3.3 3.6 5.68 4.24z" fill="#6c375a"/><path d="M402.27 18.13c-1.27-.9-3.72.75-3.1 2.26 1.24.62 3.52-.84 3.1-2.26zm260.1 68.04c-1.02-1.17-3.67.14-2.9 1.67 1.02 1.13 3.65-.16 2.9-1.67zm100.37 132.1c-2.44-5.84-5-11.83-9.58-16.35.04 11.4 4.5 21.87 8.67 32.25-1.82.94-4.37 2.07-5.66-.32-4.4-6.44-8.7-14.28-17.13-15.8-5.54 13.3-.88 27.63.44 41.28 2.8 3.73 5.16 7.76 7.37 11.87-2.48-9.93-6.2-19.78-3.53-30.17 2.68 2.16 5.72 3.86 9.12 4.54-.27-7.78 7.96-8.16 13.75-7.7 2.4 2.32 3.9 5.37 5.72 8.15-1.85-9.6-5.62-18.68-9.17-27.74zm-37.04 5.1c-1.8-.76-2.53 2.2-.76 2.63 1.78.74 2.46-2.18.76-2.63zm81.92 143.47l-5.12 1.12 1.84 4.15 3.28-5.27z" opacity=".1" fill="#0a0408"/><path d="M426.46 25.33c-.1-2.88-2.65-4.3-4.8-5.62.6 2.57 1.5 5.78 4.8 5.62z" fill="#0f070c" opacity=".14"/><path d="M440.75 34.9c-2.6-2.96-5.14-6.16-8.73-8 .57 4.65 5 6.35 8.73 8zm123.23 16.97c.8-2.9-.6-5.24-2.83-7l.3 6.42 2.53.57zM732.7 229.42l-4.84.45c3.67 8.6 4.74 18.22 9.58 26.33-.68-9.1-4.1-17.7-4.74-26.78z" opacity=".42" fill="#2e1727"/><path d="M264.25 37.8c-3.67-2-7.5-3.67-11.37-5.26l.92 2.9-1.98-.2c1.48.5 2.92 1.08 4.35 1.66-2.82.2-5.65.37-8.5.4 5.52.32 11.04.88 16.57.48zm485.88 172.22l-3-7.08-.6 3.88c-3.87.78-7.77-.13-11.64.07-6.16 1.84-7.8 8.72-7.48 14.4a123.65 123.65 0 0 0 .96 4.14l2.36 1.6c-1.96-6.57-.64-14.15 6.38-16.98 4.12 1.2 8.18 2.94 12.58 2.46l.45-2.5zm.63 87.05c-3-4.56-2.97-10.18-4.3-15.3-.7 7.35 1.72 14.3 5.48 20.5l2.3 4.34c-.17-3.48-1.57-6.66-3.46-9.53z" opacity=".5" fill="#381c2f"/><path d="M634.72 45.16c-.77-4.06-3.67-7-8.04-6.3 1.87 3 4.82 5 8.04 6.3z" fill="#301828" opacity=".44"/><path d="M649.17 45.33c-1.73-2.3-3.9-4.23-6.43-5.6 1.7 2.32 3.9 4.22 6.43 5.6zm-203.05 35.5l-3.14 2.24 1.2 2.6 3.32.47a20.36 20.36 0 0 1-1.39-5.32zm66.7 27.57l-2.87-1.02-2.18 3.4 5.05-2.37zm237.9 8.22c-.1 3.98-.94 7.93-2.6 11.57l-6.16-5.18c.3 2.4 1 4.75 1.96 6.96l.2-2.2c13.92 25.98 21.54 54.83 33.24 81.84 2.05 1.02 4.03 2.2 5.96 3.42l6.68-1c-5.58-17.04-13.5-33.2-18.9-50.32-3.58-9.68-5.96-20.24-12.94-28.2-2.9-3.18-4.32-7.3-5.56-11.35l-1.9-5.52zm-57 25.34c-5.14 1.07 3.56 4 0 0z" opacity=".06" fill="#060205"/><path d="M683.76 67.24c-2.4-8.08-4.87-16.22-8.55-23.83l-2.37 1.33 1.4 1.73c2.03 2.24 3.23 5.1 3.5 8.1-.04 1.55-.2 3.1-.45 4.6l2.38-.7c1.75 5 3.25 10.1 3.5 15.42l-2.17-.4-5.5-.96 6.65 7.66c6.12 12.85 8.75 26.98 12.14 40.7 1.32 4.5-.1 9.24-3.22 12.63 1.26-.42 2.5-.9 3.74-1.35.16-1.83.43-3.65.6-5.5-1.9-15.9-5.95-31.68-11.5-46.73-1.38-4.2 1.46-8.54-.15-12.74zm-404.33 38.72c-2.42-2.3-5.76-2.14-8.85-1.8 2.75 1.38 5.78 2.05 8.85 1.8zm456.72 92.98c-4.1-2.5-8.9-3.23-13.53-4.03l2.47 6.13-5.04 2.77-1.7-1.77c-.46 1.33-.9 2.66-1.3 4l.48 1.2 1.73-1.85 5.96 3.23c.54 4.26 1.24 8.5 2.2 12.68-.33-5.7 1.32-12.57 7.48-14.4 3.87-.2 7.77.7 11.64-.07l.6-3.88-4.64-6.98-.56 4.96-2.55-2.48-.88 2.2-2.35-1.7z" opacity=".7" fill="#4c2740"/><path d="M553.2 44.7c-2.3.8-4.8 1.83-5.46 4.45 2.65-.3 4.36-2.18 5.46-4.45zm-1.15 13.77c-.33-2.4-.5-7.04-4.2-5.58-.7 2.87 2.2 4.37 4.2 5.58z" opacity=".64" fill="#45233a"/><path d="M463.5 56c.1-5.03-3.56-7.8-8.27-8.03l1.58 4.1-3-.56c2.36 2.42 4.98 4.6 7.8 6.44l1.9-1.96zm313.87 153.6c-11.7-27-19.32-55.86-33.24-81.84l-.2 2.2c13.17 27.74 20.78 57.85 34.74 85.2-.4-1.87-.8-3.73-1.3-5.57z" opacity=".6" fill="#422137"/><path d="M204.38 48.63c-3.72 1.04-6.65 3.65-8.87 6.72 3.33-1.7 6.37-3.94 8.87-6.72zm450.55 108.1c5.9-3.94-1.27-7.9-4.5-10.64l-3.26 3.38 1.7 2.8-3.5-.03c.85 2.9 2.26 5.56 4.33 7.77l.95-4.62 4.27 1.33z" opacity=".96" fill="#693658"/><path d="M470.86 67.35c.62-3.8.05-7.9-2.88-10.64-1.36 3.66-.82 8.56 2.88 10.64z" fill="#23121e" opacity=".33"/><path d="M191.76 59.45c-1.54-.38-3.55 1.74-3.24 3.25 1.62.47 3.77-1.64 3.24-3.25zm-24.6 96.2l-1.54-2.17c-.2 5.05.44 10.13-.12 15.17-.98 7.74-5.6 14.25-8.04 21.52l3.77-4.18c-2.2 6.2-4.07 12.66-3.2 19.3l1.5-1.73c.25-1.05.43-2.1.6-3.17l1.4 1.68.86-1.3c-1.55-3.9.33-7.78 1.74-11.4l-2.43.43c2.45-5.7 3.87-11.73 5.2-17.76l2.1 3.1c.42-3.05.76-6.12 1.03-9.2l-1.8 3.05c-.72-4.4-1.37-8.87-1.05-13.34zm196.76 84.6c-1.3-8.2-4.22-16.37-8.76-23.33 2.58 7.88 5.22 15.82 8.76 23.33z" opacity=".8" fill="#582c49"/><path d="M739.73 73.95c-1.03-3.24-2.58-6.33-4.96-8.8-3.3 6.76-1.1 14.67.25 21.67.68 3.64 4.7 1.72 7.16 1.48-1.63-7.08-.9-14.4-1.93-21.56-.1 2.4-.34 4.8-.52 7.2zm42.77 14.08c.2-1.1.12-2.18-.2-3.26-2.93.05-2.98 4.8.2 3.26zm-84.9 339.8c-1.7-1.97-4.28-2.35-6.7-2.7a31.13 31.13 0 0 0 6.7 2.7z" opacity=".15" fill="#10080d"/><path d="M661.87 70.14l-2.6-1.46c-.26 2.33-.9 4.6-1.7 6.8l-2.66-6.05c-3.24 1.15-6.4 2.53-9.44 4.14 3.76 3.92 2.33 8.83.48 13.24 1.47 1.13 2.93 2.27 4.45 3.34l1.35.15-.3-1.8 3.18-1.4-1.9-2.1-5.32-.58c.93-5.16 6.7-3.76 10.55-4.4l-4.06-3.1 4.74.53c1.3-1.3 2.6-2.6 4-3.8l-.8.63.06-4.12z" fill="#6a3658" opacity=".96"/><path d="M756.8 79.2c-4.6-1 .98 4.65 0 0z" fill="#2a1824" opacity=".43"/><path d="M628.56 82.2c-4.95-2.24.33 5.12 0 0z" fill="#1c0e17" opacity=".25"/><path d="M455.9 83.7c-1.4-.42-2.87 1.82-2.3 3.05 1.5.6 3.3-1.75 2.3-3.05zm294.82 32.92l-6.47-19.94c-1.82 8.65-1.9 17.53-2.3 26.33l6.16 5.18c1.66-3.64 2.5-7.6 2.6-11.57zM385.18 390.2c-3.58-.13-7.2.2-10.52 1.66 3.58.04 7.1-.63 10.52-1.66z" opacity=".27" fill="#1c0e18"/><path d="M640.85 88.58c-4.37.45 1.6 4.53 0 0z" fill="#0b0609" opacity=".1"/><path d="M560.98 94.02c-.82-4-4.12-7-8.25-5.07a16.23 16.23 0 0 0 8.25 5.07z" fill="#190c15" opacity=".24"/><path d="M471.74 87.97c-5.32 1 3.58 3.88 0 0z" fill="#20101a" opacity=".3"/><path d="M475.3 91.2c-1.18-.83-3.1 1-2.24 2.2 1.18.8 3.06-1 2.24-2.2zM25.8 277.45c-5-.15 1.8 5.08 0 0z" opacity=".35" fill="#25131f"/><path d="M461.7 93.3c-1.07-.55-2.1-.57-3.13-.06-.3 2.25 6.34 2.13 3.13.06z" fill="#271321" opacity=".36"/><path d="M655.73 94.45c-1.53-.66-3.36 1.8-2.53 3.15 1.56.72 3.37-1.78 2.53-3.15z" fill="#542a46" opacity=".76"/><path d="M676.96 99.76L670 100c-.73-.01-1.46-.1-2.2-.2l-1.42 8.05c3.15-.14 6.26-.75 9.12-2.1l-1.06-3.38 2.5-2.6zm-402.6 48.64c-6.7 3.17-13.85 2.33-20.85.85 6.26 3.42 15.22 4.22 20.85-.85zM88.6 292.22c-4.08 2.84 4.5 3.03 0 0zm14.1 38.43l-4.32-1.4c.92 1.72 2.05 3.4 4.15 3.62 1.55 2.04 2.98 4.4 5.58 5.2l-5.4-7.4zm11.3 18.4c-3.85-4.17-2.85-9.78-4.64-14.58-.5 5.24-.54 11.56 4.64 14.58zm13.35-2.42c-6.3 0-7.58-7.67-13.43-8.77 4.97 4.5 8.8 10.65 16.22 11.02-2.13-4.37-4.62-9.78-10.3-9.85 3.14 1.86 6.44 3.84 7.5 7.6z" opacity=".9" fill="#623152"/><path d="M271.14 102.45c-3.74-1.73-7.68-.1-11.3 1.14 3.8-.05 7.6-.26 11.3-1.14zm413.5 52.12c-6.68 2.7-13.06-3.56-20.15-2.27l-1.1 3.18c-1.43 1-2.85 2.05-4.23 3.13l-6.4-.58 3.96 3.68 2.78.8-.8 5.2 4.6-1.6c.4 5.88-6.44 6.76-10.32 9.17l2.84 1.86.7 2.3 4.68 1.32c.3-2.53.5-5.08.6-7.63 3.13 1.17 6.46 1.4 9.75 1.7-1.96-4.38-1.4-11.25 2.93-13.8-.35 2.7-.63 5.4-1.1 8.07l4.44 1.36c2.56-.73 5.1-.17 7.37 1.14l-.36-3.02c-2.07-.62-3.93-1.68-5.36-3.3 3.24-1.73 7.1-4.33 10.53-1.5l1.33-6c-2.97.67-5.2-.8-6.7-3.24m-1.8 2.63c-.22 1.66-.7 3.26-1.12 4.88-.9-1.35-1.75-2.7-2.6-4.1l3.72-.8m-16.13-.22c3.63 4-5.28.84 0 0m-6.96 17.2c.85 4.6-4.63-.93 0 0zM522 344.97a113.81 113.81 0 0 0-11.23.46l7.28 1.02c-3.27 7.97-8.03 15.34-16.34 18.64 4.25-1.28 9.8-1.73 12.05-6.15 2.65-4.72 5.43-9.36 8.24-13.97zm-123.97 30.36c-8.08-.15-16.33.08-23.5 4.3-6.4 4.28-15.74-.43-20.66 6.38 6.98-2.8 14.95-.67 21.64-4.42 7.04-3.58 14.75-5.2 22.5-6.27z" fill="#6e385c"/><path d="M750.8 104.46c-3.92.8 2.3 3.43 0 0z" fill="#170c14" opacity=".23"/><path d="M650.47 107.1l-4.4 2.24 2.8 1.77-7.1.12c-.55 2.95-.66 5.97-.06 8.93 2.35-2.36 3.52-5.53 3.28-8.85 2.1 2.1 4.08 4.6 7.07 5.42l-2.93-4.47 3.76-1.77-2.45-3.4zM74.97 244.43l-3.7.25c2.37 5.65 4.1 11.67 3.68 17.86-3.88-2.94-6.6-7.04-8.52-11.46-1-.56-2.02-1.1-3.05-1.65l-1.74.76c3.27 5.44 6.8 10.73 11.62 14.93l2.22-1.57 1.05-5c3.46 11.14-1.75 24.4 6.97 33.82-3.37-1.7-5.82-4.7-6.44-8.47l-1.87 1.06c2.1 3.6 3.97 7.4 5.15 11.42.85 2.77-3 3.7-5.04 3.25-6.45-1.46-11.37-6.25-17.12-9.23l-5.3 5.1c-3.44-1.38-6.9-2.76-10.5-3.73 3.16 2.32 6.77 3.88 10.45 5.15l3.33-1.96L54.9 301c5.74 2.16 9.7 6.7 12.87 11.76l1.15-1.18c-3.96-3.78-6.93-8.62-7.42-14.17l-4.08.32.47-6c4.78 2.62 9.1 6.1 14.22 8.08 6.6 2.2 9.58 9.13 15.18 12.8-1.34-5.26-6.7-8.8-5.6-14.78l5.02 3.38c.1-3.16-.13-6.37-.54-9.45 2.67-3.9 3.23-8.67 4.43-13.13.14 4-1.1 8.6 1.9 11.86l3.96-3.28-4.5.83c.01-3.98-.2-7.97-.75-11.9l-3.4-.5c1.63 4.9-.23 9.9-1.36 14.7-2.37-1.4-5.87-2.4-6.5-5.44.23-13.66-1.97-27.2-5-40.45m9.82 48.5c2.42 1.38.23 3.93-.75 5.5-.4-1.85-1.77-4.57.75-5.5m-4.24 7.12l.14 5.28a178.86 178.86 0 0 0-2.95-4.2l2.8-1.1z" opacity=".78" fill="#572d49"/><path d="M857.93 108.1c-1.62.55-1.62 1.1 0 1.68z" fill="#190f16" opacity=".26"/><path d="M490.95 112.2c-2.38-1.75-5.24-4.8-8.08-2.06l3.4 1.67c-1.34 1.6-2.57 3.32-3.5 5.22 3.32-.4 5.72-2.8 8.16-4.83zM175.7 272.8c-1.7 7.64-2.53 15.65-1.38 23.44 2.46-7.63-.07-15.63 1.38-23.44zm20.86 96.5c-6.07-3.68-7.98 8.9-1.6 8.9 5.87 1.08 6-6.98 1.6-8.9m1.52 6.83l-5.1-.1c.07-1.84.05-3.7.53-5.5 3.05-.5 4.66 3 4.57 5.6z" opacity=".9" fill="#633152"/><path d="M478.83 116.3l-7.4.87c1.17.72 2.17 1.65 3.3 2.42l-.37 2.36 5.84-.27-1.38-5.38zM337.3 351.4c4.66-3.72.63-9.87-4.4-10.3-5.3 3.3-1.8 13.03 4.4 10.3m-.35-1.27c-3.57.56-6.65-3.45-3.97-6.4 3.94-1.06 5.1 3.47 3.97 6.4zm-18.97-6.36c-5.55-.25-7.85 8.7-2.67 10.77 4.05.7 6.17-4.14 4.66-7.42l-2.73-.5c2.15 2.64 1.47 6.15-2.25 6.53-1.84-3.66.65-6.76 3-9.4zm-94.4 9.67c-6.78-.22-2.27 11.33 3.1 8.38 4.25-2.25.3-7.7-3.1-8.38m1.14 1.77l2.32 4.9c-3.5 1.2-5.48-1.73-5.2-4.9h2.88zm123.9 2.95c-5.7-2.3-8.2 10.16-1.7 10.4 5.8.6 7.13-8.94 1.7-10.4m.01 1.98c2.4 1.22 2.07 6.28-1 6.5-4.5.87-3.04-8.55 1-6.5z" opacity=".94" fill="#663456"/><path d="M528.8 119.25l-1.98-1.77-2.13 5.7 6.08.2 1.85-3.27-3.82-.87z" fill="#502843" opacity=".74"/><path d="M501.76 120.33c-4.37-.55 1.8 4.73 0 0z" fill="#150b11" opacity=".2"/><path d="M763.68 124.5c-1.74-.86-2.97 3-1 3.25 1.3-.3 1.86-2.25 1-3.25z" fill="#5e304f" opacity=".86"/><path d="M701 126.9l-5.6-.18-.6 5.5c2.63 9.72 7.36 19.08 7.63 29.3 3.05 6.6 5.1 13.58 7.56 20.42 3.1 7.85 2.62 16.74 7.05 24.14.4-1.35.85-2.68 1.3-4-5.35-6.9-4.32-16.48-7.2-24.47l5.2 4.1-1.72-5.7-3.24-.67-.1-5.42 2.76 1.84.3-2.66c-5.97-13.53-6.87-28.8-13.34-42.18zM82.72 207.26c-2.77-.16-1.13 3.74.97 2.53 1.82-.56.5-2.76-.97-2.53zm10.16 24.9c-1.15-2.2-2.9-3.96-5.13-5.06 1.2 2.14 3 3.86 5.13 5.06z" opacity=".15" fill="#0f070c"/><path d="M691.05 133.55c-5-1.94-12.4-7.4-15.24.44 6.78-.64 12.08 4.5 12.36 11.2l4.44.8c.52 3.74.22 7.5-.54 11.2l4.03-2.84 2.72 2.33-6.66 1.17c.1 4.42 1.68 8.56 3.95 12.3l1.63-7.9 2.55 3.9 2.13-4.64c-.27-10.2-5-19.57-7.63-29.3l-3.74 1.35m2.68 8.4c3.56 4-5.14 1.07 0 0zM82.65 324.33c-.95-2.84-2.12-5.66-4.25-7.84-.37 6.68 4.95 10.53 9.9 13.76-4.32.82-7.74-1.73-10.77-4.4 2.08 4.7 8.1 7.2 12.6 4.32 1.95 3.92 4.14 7.8 7.58 10.6 1.7-.37 3.4-.7 5.08-1.02l.97 2.25-1.45 2.83c3.8 2.67 7.43 5.56 11.08 8.42-2.05-3.8-5.9-5.93-9.34-8.3l1.12-4.07c-1.92-2.3-4.74-1.85-7.4-1.48-5.13-5.1-7.25-13.02-15.1-15.06z" fill="#6d375b"/><path d="M666.7 156.98c-5.28.84 3.63 4 0 0z" fill="#1f0f19" opacity=".3"/><path d="M726.08 169.7c-3.8-1.2-7.84-1.6-11.75-.62l-.3 2.66-2.76-1.84.1 5.42 3.24.67 2.35-4.56c5.84-1 8.77 3.98 12.46 7.37-.9-3.1-2.1-6.1-3.35-9.1zm-11.7 102.55c-1.95-2-4.3-3.5-6.9-4.5 1.86 2.1 4.27 3.6 6.9 4.5z" opacity=".75" fill="#512944"/><path d="M663.68 175.27c-2.14.25-.93 4.46 1 3.4 1-1.02.42-3.14-1-3.4z" fill="#582d4a" opacity=".8"/><path d="M738.8 177.53l-5.4 2.96c6.15.95 7.88 7.57 8.03 12.9l-3.53-1.1-.3 6.7-1.45-.04c.8.55 1.57 1.13 2.35 1.7l.88-2.2 2.55 2.48.56-4.96 4.64 6.98c-.98-3.6-1.04-7.34-1.3-11.03-2.26-4.84-4.62-9.62-7.02-14.38z" fill="#3c1e33" opacity=".56"/><path d="M74.73 187.02c-2.98-1.5-.1 3.35 0 0z" fill="#0e070b" opacity=".13"/><path d="M753.16 201.92c-2.84-3.03-5.3-6.4-7.34-10 .27 3.7.33 7.43 1.3 11.03.9 2.4 1.97 4.73 3 7.08 2.04 4.46 3.65 9.1 4.97 13.82-3.55-6.03-10.54-7.65-16.2-10.94-2.45 2.28-4.78 4.7-7 7.2l.68 8.34.12.98c.65 9.1 4.06 17.7 4.74 26.78.6 1.08 1.32 2.1 2.03 3.12-1.32-13.65-5.98-27.97-.44-41.28 8.43 1.53 12.74 9.37 17.13 15.8 1.3 2.4 3.84 1.26 5.66.32-4.17-10.38-8.63-20.84-8.67-32.25z" fill="#180c14" opacity=".23"/><path d="M104.44 206.34c-1.03-2.34-2.5-5.46-5.67-4.62-1.62 3.3 3.03 4.96 5.67 4.62z" fill="#080407" opacity=".07"/><path d="M67.57 203.34c-1.35-1.03-3.1 1.32-2.13 2.52 1.37 1.02 3.17-1.32 2.13-2.52z" fill="#351a2c" opacity=".48"/><path d="M725.2 208.62l-5.96-3.23-1.73 1.85c1.1 2.73 2 5.53 2.85 8.36l-5.32-.67 2.12 3.1-6.82-3.5c-1.7.5-3.34 1.13-4.95 1.85 3.28 2.15 7.4 3.56 9.2 7.32l-7.6-4.24c1.26 1.86 2.58 3.7 3.9 5.52l-1.8 3.1c2.87 2.36 5.06 5.44 4.52 9.34l-4.25-.16 1.56-2.13-6.9-1.4 2.24 4c-5.6 1.67-11.64-1.82-16.88 1.45 3.75.6 7.53 1.1 11.3 1.53l-.5 3.12 6.67-4.27c3.08 2.1 7.43 3.73 7.93 7.97 1.96 10 2.08 20.3 2.12 30.47-5.45-3.2-12.02-5.58-14.95-11.64l2.87-.7c-17.74-12.9-40-17.66-57.68-30.47l.04 5.72c-5.6-1.3-11.35-2.03-16.57-4.55-2.66-1.47-5.54.18-8.2.75l.37-2.46c-3.2.8-6.6 1.06-9.47 2.76-2.52 1.64-.2 5.7-2.63 7.4-2.06 1-4.4 1.08-6.64 1.45-10.64 2.9-17.68-9.15-28.1-9-4.35.35-10.6-.96-12.64 4.15-2.86 3.62.85 7.46 2.5 10.7-5.48-.13-10.78 1.4-14.88 5.14.73 4.67 3.86 9.55 1.6 14.22-2.46 5.53-.5 11.65-.52 17.44-5.63 5.02-11.3 9.98-17.13 14.77l-4.56-1.05-1.3 3.04 1.6 1.3.1-2.72 4.8.37c5.6-5.1 11.83-9.56 17-15.07 1.6-5.6-2.25-12.14 1.73-17.1 4.16-4.72-1.35-10.27-1.94-15.42l4.3.87-.1 3.06c5.1-1.58 10.8-3.23 15.63.03 5.6-2.6 12.68-3.12 16.02-9.06-.9-4.53-5.47-6.1-9.23-7.6l-.7 4.1-3 .58c-3.28-3.13-6.45-6.37-9.45-9.77 3.66-.4 7.32-1.14 11-.9 9.24 1.1 15.8 9.24 25 10.42l1.3 2.53c-5.24 4.74-10.34-6.72-14.53.8 3.93 4.3 12.7 6.44 17.8 2.34 4.94-2.25 5.1-8.27 7.84-12.32 1.3 1.84 2.03 4.64 4.63 4.95 5.54.96 10.58 3.44 15.64 5.76-5.6-6.7-12.45-13.32-21.7-13.75 4.16-3.84 9.66-2 13.62 1.07.1-1.4.46-2.78 1-4.08 4.22 2.1 8.77 3.38 13.13 5.13-3.54.33-6.93 1.44-10.05 3.12 3.87 2.57 6.2 6.65 8.95 10.26l-.88-4.7c2.55 2.8 6.3 2.54 9.64 3.3 4.12 2.42 8.27 5 13.1 5.7-5.03-2.85-11.4-4.18-14.12-9.9l5.5-3.9c6.1 7.44 12.2 15.36 12.85 25.4l-5.76-1.98 3.1 2.8-2.54 2.47 5.9 2.37c-2.2 1.63-4.8 2.54-7.53 1.82l.56.27c2.03 1.76 3.36 4.13 4.8 6.37l7-1.28c3.77 3.34 6.27 8.12 10.5 10.87 13.78 1 22.6 14.42 36.6 15.16.74 7.9-.63 16.04 1.88 23.72 2.47 8.36 4.16 16.94 6.83 25.23 2.7 4.2 6.7 7.5 8.6 12.25-.72-3.36-.82-7.1-3.05-9.92-5.98-6.53-7.32-15.75-8.47-24.2-3.8-17.28-3.06-35.1-4.88-52.6 5.43 4.33 9.55 10.16 15.56 13.76.45-3.03.82-6.07 1.2-9.1 5.36 3.83 9.17 9.36 8.7 16.2l5.9.07c1.3 3.17 2.73 6.4 5.35 8.73-.4-2.3-.95-4.55-1.5-6.8l-2.3-4.34c-1.78-.44-5.2 1.24-5.48-1.42-.6-7.7-7.03-13-12.83-17.28l-.77 9.9c-5.6-6.06-15.52-10.65-14.64-20.2-.6-11.56-1.32-23.1-3.36-34.47l7.52 2.2c-1.53-2.2-3.06-4.38-4.4-6.7l-2.34-.94c2.5-2.26 5.65-3.42 9-3.64 3.25 9.67 6.02 19.52 9.63 29.04 3.27 5.2 5.94 10.72 8.6 16.25-1.7-8.7-8.16-15.3-10.2-23.8-2.17-7.12-4.75-14.1-6.8-21.26l2-.08c1.62-.1 3.23-.27 4.84-.45l-.12-.98-1.87-1.4-2.36-1.6-.96-4.14c-.96-4.18-1.66-8.42-2.2-12.68m.5 14.74c1.7.45 1.02 3.37-.76 2.63-1.77-.44-1.04-3.4.76-2.63m-48.7 28.6c1.34.47 2.06 1.7 2.56 2.94-8.38-2.22-15.7-8.08-24.43-8.76-2.52-2.7-7.23-4-7.1-8.36 9.17 5.68 19.3 9.48 28.98 14.18m-48.65-3.74a155.69 155.69 0 0 0-11.29-2.5l-1.13-4.7c5.34-.4 8.94 3.87 12.42 7.2m-53.83 1.75l-3.92 2.2c1.97 1.87 5.35 2.78 6.2 5.52-1.5.9-3.07 1.67-4.65 2.43-3.7-3.6-8.63-2.07-13.1-1.34l-3.9-3.24c3.43-2.87 8.08-1.43 12.02-2.9-1.67-3.88-6.2-8.06-2.16-12.05 3.45 2.84 6.5 6.1 9.52 9.4m77.15-5.42l-5.74 3.44.12 4.42c-3.2-2.6-5.66-5.93-8.1-9.22 4.58-.4 9.9-2.16 13.72 1.36m-64.63 7.15c-2.32 2.17-4.26 5.7-7.93 5.28-1.4-3.73-.8-7.58 1.05-11.02 2.9 1.13 5.9 2.53 6.88 5.74m22.5-3.4l.23 2.48c-2.86 1.9-5.78 3.7-8.8 5.35-3.8-1.24-7.7-2.15-11.53-3.3 1.17-1 2.26-2.07 3.28-3.2 3.04 3.3 7.17 5.7 11.14 2.3l-.88-4.34 6.56.7m63 10.05c7.45 4.9 17.63 3.4 24.4 9.57 6 5.4 13.5 8.47 19.96 13.18-.25 8.56 1.44 17.03 1.2 25.58-3.2-3.97-5.17-8.68-7.83-12.98l-4.34-.77-1.32-9.6c-3.76-.85-7.65-.85-11.4-1.67-3.37-2.6-7-4.7-11.17-5.78-6.07-5.2-9.17-13.6-16.5-17.45-3.85-2.07-6.22-5.87-8.27-9.58 5.4 2.66 10.2 6.32 15.27 9.5M577 251.1l.32 4.4a92.31 92.31 0 0 1-4.8-3.38 179.71 179.71 0 0 1 4.47-1.03m107.2 8.83c-4.97-.56-9.86-2.3-13.48-5.87 4.64 1.6 9.22 3.42 13.48 5.87m-3.96 16.04c-1.02 1.76-2.03 3.53-2.95 5.34 1.38-1.33 2.7-2.72 4-4.13l4.3 1c3.15 5.35 5.5 14.67 13.56 12.43a14.63 14.63 0 0 0-3.25-6.18c.46 1.73.98 3.45 1.48 5.18-6 .8-7.4-6.33-9.92-10.28 4.53 4.1 10.55 4.12 16.25 4.84l1.3 9.65 4.8 1.05c2.38 4.2 4.86 8.37 6.85 12.8-13.28-.55-21.45-14-34.67-14.47-4.27-2.7-6.43-7.8-10.53-10.78-2.5-.04-4.98.54-7.46.9l-1.48-3.34c2-1.5 3.96-3.04 5.8-4.7l-5.45-1.68c6.32-3.2 1.54-9.65 1.04-14.76 7.47 3.36 11.1 11.28 16.3 17.14m40.85 54.95c-2.05-2.7-1.68-6.27-1.24-9.48 1.78 2.74 1.4 6.28 1.24 9.48z" fill="#6a375a" opacity=".96"/><path d="M755.1 223.84c-1.32-4.72-2.93-9.36-4.97-13.82l-.45 2.5c-4.4.48-8.46-1.25-12.58-2.46-7.02 2.83-8.34 10.4-6.38 16.98l1.87 1.4c-.28-2.78-.45-5.56-.68-8.34 2.2-2.5 4.54-4.92 7-7.2 5.66 3.3 12.65 4.9 16.2 10.94zm-670.92 1.8c-1.9-.74-3.9-1.22-5.9-1.48l-.07 1.6 5.98-.13zm651.5 173.38c-.56-4.34-1.44-8.74-3.8-12.5.75 4.3 2 8.52 3.8 12.5z" opacity=".36" fill="#271421"/><path d="M86.45 211.24c-4.5-1.05.04 4.56 0 0z" fill="#1d0f18" opacity=".27"/><path d="M73.68 213.26c-1.2-.55-2.84-.9-4.02-.1.2 1.75 6.95 2.5 4.02.1z" fill="#2c1625" opacity=".4"/><path d="M44.22 218.28c-2.2-1.04-4.6-1.53-7.05-1.45 1.62 2.75 4.6 3.75 7.05 1.45z" fill="#0e070c" opacity=".13"/><path d="M116.4 226.92c-1.03-2.64-6.3-2.8-7 .14l7-.14z" fill="#261320" opacity=".35"/><path d="M102.67 226.1c-4.75.55 3.6 3.57 0 0z" fill="#1c0e18" opacity=".26"/><path d="M97.74 236.1c-2.3-.92-1.7 3.18.2 2.97 1.54-.3.88-2.5-.2-2.97z" fill="#150a11" opacity=".2"/><path d="M364.38 245l-4.37-6 .44 8.24 2.2 5.35.97-2.95.18-1.74 3.88 4.3-2.06-9.16-1.23 1.95z" fill="#4d2640" opacity=".7"/><path d="M577 251.1l-4.47 1.03 4.8 3.38-.32-4.4z" fill="#060305" opacity=".05"/><path d="M88.8 259.3c-4.96-.45 2.1 5.16 0 0z" fill="#45233a" opacity=".63"/><path d="M83.5 292.37c-8.72-9.42-3.5-22.68-6.97-33.82l-1.05 5-2.22 1.57c2 3.57 3.5 9.24-1.13 11.44l3.6-1.02.87-3.6.47 11.97c.62 3.76 3.07 6.78 6.44 8.47z" fill="#261420" opacity=".34"/><path d="M95.7 266.98c-4.68.56 3.3 3.7 0 0z" fill="#281422" opacity=".37"/><path d="M70.56 271.35c-1.73-1.86-5.6-.02-3.55 2.38 1.75 3.15 7.23-.18 3.55-2.38z" fill="#6d385b"/><path d="M101.85 272.43c-3.34 9.56-3.03 20.27-7.4 29.72-3.86-4.6 3.23-7.72 1.63-12.7-3.05 5.45-5.38 11.25-8.34 16.75l3.77 5.24-1.12 4.17c3.2 3.7 4.5 9.55 10.13 10.33-1.05-1.04-1.93-2.23-2.9-3.34l.08-2.37-5.6-4.48.97-4.6c-1.47-1.85-2.64-3.92-3.43-6.15l2.9-1.33c5.02 5.4 13.55 4.16 18.74 9.5-3.05 4.4 2.34 7.3 5.1 9.93l-.94 2.72c1.95 2.83 3.2 6.64 6.77 7.8-.87-4.7-3.28-9.02-3.17-13.9 3.72.26 7.2 1.86 8.38 5.63 2.3 6.25 8.82 10.6 8.67 17.68.97 6.15 7.64 10.65 6.47 17.4-.5 5.46-8.27 6-11.1 2.03-6.36-3.76-12.3-8.03-17.92-12.8 2.64 4.22 4.04 9.46 8.02 12.65l.95-3.35c4.42 1.8 8.47 4.43 11.68 8 3.63-.6 8.62-.67 9.68-5.08 2.83-8.02-6.5-13.75-6.77-21.5l4.53-.9c2.14 1.73 4.35 3.37 6.65 4.87l.36-2.3c3 1.32 5.94 2.8 8.9 4.2-4.45-5.53-12.48-8.1-19.42-8.63-5.32-4.98-7.75-12.04-11.9-17.86-3.52-2.27-7.97-1.97-11.9-1.12l-2.3-2.1 3.33-.76c-3.6-7.85-12.77-9.12-20.02-11.7 3.65-10.16 6.52-20.75 6.5-31.62z" fill="#412137" opacity=".6"/><path d="M84.7 274.98c-2.08-.8-2.3 2.53-.48 2.88 2.1.8 2.32-2.53.48-2.88z" fill="#422238" opacity=".6"/><path d="M658.62 277.9c-3.85-1.75-5 1.4-4.23 4.7l-2.2.1c-2.62 2.53-5.27 5.23-5.9 9-9.34-3.88-19.43-2.74-29.24-3.66l-2.65 3.8c-1.94-2.27-4.32-4.87-7.44-2.78-5.45 3.32-11.3.26-16.97-.4-5.25 4.8-5.33 12.6-7.35 18.98-7.2 2-14.9-.93-19.37-6.8-2.56 2.65-4.7 5.66-6.8 8.68-2.57 3.78-7.12 5.92-8.78 10.36-7.3-2-11.73-8.14-17.1-12.9l-1.6-1.3c-1.12 2.22-2.46 4.33-3.95 6.32 1.22-.74 2.47-1.44 3.7-2.14 2.52 4.8 5.6 9.44 10.3 12.37-3.32.3-6.62.82-9.86 1.63l1.8-4.26c-7.3 2.57-12.93 8.25-19.97 11.3-8.66 1.82-15.2 8.23-22.73 12.47-8.6 6.38-19.22 8.73-28.56 13.7 10.52-2.76 21.22-5.82 30.25-12.1 11.6-3.23 20.6-11.76 31.1-17.3 5.3 1.83 9.66-2.98 14.84-3.06 5.98-.65 11.5 2.05 16.95 4.08l1.2-1.62c-7.15-3.02-14.78-5.96-19.82-12.17 5.54 3.66 11.36 6.9 17.63 9.1l-.87-5.86c4.82-3.74 8.38-8.7 11.8-13.68 6.37 5.05 14.5 7.66 22.63 6.14 2.24-5.75 3.88-11.74 6.6-17.3 6.06.46 12.17-.23 17.65-2.96l5.73 5.66 2.68-5.56c7.13.85 14.62-.8 21.44 2 3.16 1.23 6.43 2.14 9.8 2.6l.4-5.2c1.3-1.3 2.57-2.6 3.82-3.94l4.18 1.1c-.1-2.98-2.58-7.48 1.47-8.82zM76.65 325.54c-.3-3.8-1.08-7.67-3.45-10.75.8 3.67 1.63 7.42 3.45 10.75zm413.15 44.03c-2.42-1.8-4.54-4.65-7.67-5.08-4.56 1.26-4.98 7.92-9.8 8.96-18.7 5.2-36.86 13.08-56.57 13.35 4.9-2.15 12.17-.3 15.46-4.87-15.28 1.2-30.4 3.92-45.63 5.66-12.3.67-23.22 8.28-35.82 6.8 7.36 2 14.8.33 22.2.86l68.3-9.87c10.15-2.47 19.96-6.13 30-8.96 7.24-1.13 11.45-9.72 19.5-6.84m-104.6 20.62c-3.4 1.03-6.94 1.7-10.52 1.66 3.3-1.47 6.94-1.8 10.52-1.66z" fill="#6f3a5e"/><path d="M84.8 292.94c-2.52.94-1.14 3.66-.75 5.5.98-1.58 3.17-4.13.75-5.5z" fill="#0c060a" opacity=".1"/><path d="M815.85 306.16c-.05-3.04-5.36-5.2-6.42-1.67-2.45 12.27-5.94 26.96 1.17 38.26l.9 1.45c6.8-11.47 6.2-25.32 4.36-38.04z" fill="#6f4555"/><path d="M721.07 330.92c.15-3.2.54-6.74-1.24-9.48-.44 3.2-.8 6.8 1.24 9.48z" fill="#12090f" opacity=".16"/><path d="M826.1 332.42l-.54-2.64c-8.44 6.26-11.43 17.83-9.3 27.8 1.02 6-.12 12.43-3.26 17.64.93.22 1.88.4 2.83.58l.4-.6c.2-3.53.77-7.04 1.78-10.43l2.06 4.65.5-.8c1.86 2.1 3.62 4.3 5.44 6.46l1.05-4.55c-3.2-4.05-2.42-9.28-1.9-14.04 2.84 3.18 5.6 6.45 7.98 10-.73-2.43-1.34-4.88-1.93-7.35-2.42-2.97-6.54-5.77-5.77-10.13.62-5.5 1.85-11.07.64-16.6m-3.18 23.46c-.2 2.8-.5 5.62-1.05 8.38-3.48-2.63-3.34-6.94 1.05-8.38z" fill="#6b4551"/><path d="M742.22 331.63c-.07 14.16-6.23 28.66-.4 42.5 3.46 4.87 3 10.97 3.25 16.64-3-.75-6.05-1.16-9.13-1.17-3.7-8.13-8.94-15.94-16.44-21 3.43 7.38 9.58 13.53 10.66 21.92-2.2-3.24-3.6-7.05-6.38-9.88-7.7.35-15.34 4.12-19.53 10.78-5.66-.86-11.38.27-16.58 2.55 3.57 1.34 7.36 1.84 11.14 2.08-3.14 2.84-7.36 4.8-9.54 8.52-1.18 4.35-4.2 9.65-.86 13.7 2.5-2.06 5.02-4.08 7.63-6 .76 2.68 1 5.47.67 8.24-2.8 1.02-5.55 2.23-8.23 3.57.9 2.62 3.16 4.15 5.6 5.26l-3.68 1.44c-1.74-3.5-3.16-7.4-6.54-9.67 1.07 7.12 4.13 13.86 4.1 21.16-5.1-9.73-10.95-20.14-20.6-25.94 6.27 8.7 12.1 18.17 14.07 28.86.66 2.95-2.45 3.52-4.64 3.68l-3.6 2.75.34 3.32-3.25.74c-1.98-1.82-4.07-3.52-6.32-5l1.77 4.05c-3.97-1.2-8.12-1.18-12.2-.7 2.94 1.04 5.88 2.1 8.73 3.38-3.08 1.06-6.3 2.2-8.23 5.02 2.38-.1 4.76-.3 7.13-.47-5.67 3.6-11.87 9.35-9.98 16.8 1.92-4.54 4.93-8.5 9.02-11.27-1.84 3.62-3.4 7.4-4 11.45l2.87-1.55.2 4.65 1.27-2.3c.3 3.04.68 6.08 1.2 9.1-7.12 5.8-13.5 13.34-16 22.32 5.58-6.27 10.77-13.04 18.06-17.48-1.9 4.04-.45 8.37-.4 12.58l8.76.36-9.03 3.43 3.98 2.03.84 4.57c5.1 1.2 8.3 5.45 12.35 8.35h177.67V361.6c-1.15-3.48-2.8-6.76-4.6-9.94-.8 4.7-.97 9.5-.67 14.27-7.78 3.53-12.7-3.77-18.83-6.8 0 2.8.03 5.6-.17 8.4-2.12 1.14-4.35 2.06-6.56 3.02l-1.05 4.55-5.44-6.46-.5.8c-1.2 1.98-2.5 3.9-3.84 5.78l-.4.6a52.5 52.5 0 0 1-2.83-.58l-1.18-.34-1.7-.5-.46-5-5.33 2.72-1.84-4.15-.77.2a98.76 98.76 0 0 0-.03 4.87c-.78 3.8 3.53 4.35 6 5.74-1.9.87-3.58 2.14-5.5 3-2.77 1.87-3.7 5.23-5.1 8.08-.97-3.67-1.7-7.4-2.5-11.1-4.1-7.67-10.46-14.25-17.92-18.73 4.3 7.44 13.7 12 15.02 20.9-3.63-2.74-6.98-5.86-10.9-8.18 2.73 3.37 6.2 6 9.6 8.66 6.13 5.8 3.72 15.53 4.82 23.16l-4-4.27c-3.8-4-7.58-8.3-12.73-10.6 4.6 5.58 9.12 11.34 11.5 18.27-3.8.1-7.47-1.08-10.2-3.78 1.64 5.37 3.76 10.6 4.86 16.13-1.63-2-3.18-4.05-4.68-6.14l.72 6.83c-2.05-3.6-3.88-7.34-5.55-11.13l-.54 4.18c-2.45-7.2-5.75-14.05-8.6-21.1 2.1 2.68 4.1 5.43 6.12 8.16l-1.22-4.97c-5.65-7.7-10.83-16.35-19-21.64 2.4 7.94 12.56 13.53 9.9 22.57-1.4-6.88-5.42-14.4-13.13-15.34 3.72 3.74 6.93 8.02 8.58 13.1-2.66-2.94-5.58-5.66-8.95-7.76l-2.38 1.8c-.2-4.18-.85-8.44.06-12.6 2.58-9.43 1.6-19.5-.68-28.9-2.2-5-2.58-10.4-3.1-15.77m-6.54 67.4c-1.78-4-3.04-8.2-3.8-12.5 2.35 3.77 3.23 8.17 3.8 12.5m71.3-9.83a14.58 14.58 0 0 1-.62 5.04 105.99 105.99 0 0 0-7.54 2.18c1.35 1.5 2.9 2.8 4.52 3.98l-3.35.83c-1.62-2.96-2.57-6.2-2.97-9.53 3.42-.35 6.7-1.4 9.96-2.5m-103.26 5.3c1.85 4.48-4.53-.26 0 0m44.73 19.44l2.35 35.05c.2 6.6 4.28 12.6 2.88 19.33-11.03-8.55-5.47-23.88-6.45-35.72-2.43.95-1.45-3.83.15-1.53.65-5.7.4-11.45 1.07-17.13m-19.2 2.82c-2.9-.63-5.74-1.56-8.5-2.67 3.08-.26 6.34.23 8.5 2.67m.53 5.7c1.02.92.66 3.13-.8 3.4-2.13-.2-1.2-4.46.8-3.4m-32.17 5.38a31.13 31.13 0 0 1-6.7-2.7c2.42.35 5 .73 6.7 2.7m59.74 5.52c-2.16 1.8-2.48-2.05-2.84-3.42 1.6.26 5.15 1.75 2.84 3.42m-15.76-2.98l.04 2.4-2.47.04-1.04-2.7 3.47.25m-4.05 7.88c.98.65 1.8 2.18 1.12 3.3-2 1.08-3.9-4.06-1.12-3.3m-38.38 28c-1.58 2.04-2.52-1.1-2.83-2.42-1.25-7.58-2.55-15.18-3.17-22.84 3.57 7.8 8.1 16.48 6 25.26z" fill="#6f4454"/><path d="M809.07 364.02c-3.56-7.9-4.87-17.67-13.12-22.38 2.7 7.6 4.92 15.6 9.65 22.28a194.18 194.18 0 0 0-3.87 4.24l.77-.2c1.7-.4 3.4-.76 5.12-1.12l-3.28 5.27 5.33-2.72.46 5 1.7.5c-3.1-9.8.65-20.5-.35-30.7l-.9-1.45c-.56 7.1-.45 14.23-1.53 21.27z" fill="#755b4d"/><path d="M839.22 347.47c-2.04 3.33-1.87 7.28-1.78 11.04l2.7 1.73c-.18-4.26-.3-8.54-.92-12.77zm-37.52 25.56c-4.46-8.6-6.82-18.92-14.86-25.1 4.67 9.77 9.83 19.3 13.76 29.42.6 1.46 1.1 2.95 1.6 4.44 1.9-.87 3.58-2.14 5.5-3-2.47-1.4-6.78-1.95-6-5.74z" opacity=".93" fill="#6e5a47" stroke="#6f4454"/><path d="M334.4 370.6c-1.75-3.43-5.27-5.28-8.42-7.2-8.14 1.7-13.96 10.26-12.64 18.45.42 6.53 8.15 12.03 14.27 8.87 7.44-3.22 10.57-13.05 6.8-20.1m-6.73-3.48c10.13 4.65 6.44 22.22-4.72 22.23-13.1-2.13-7.28-25.45 4.72-22.23zm-105.1 6.12c-6.77-3.14-15.2 2.43-15.76 9.7-1.52 8 9.2 15.2 15.72 9.64 7.45-3.6 6.9-15.5.04-19.33m-3.82 1.17c7.5.76 9.5 12.9 2.67 16.13-4.1 3.66-10.33.72-12.1-3.9-1.7-5.9 3.46-12.1 9.42-12.24z" fill="#6b365a"/><path d="M769.06 377.77c-.65-3.6-3.9-5.6-6.45-7.8 2.75 8.74 6.88 17.04 8.3 26.2.44 1.64.83 3.3 1.22 4.97l-6.12-8.16c2.85 7.04 6.15 13.9 8.6 21.1l.54-4.18c1.67 3.8 3.5 7.52 5.55 11.13l-.72-6.83c1.5 2.1 3.05 4.15 4.68 6.14-1.1-5.53-3.22-10.76-4.86-16.13-2.66-9.17-8.43-17.1-10.74-26.4z" fill="#6f4454" stroke="#6f4454"/><path d="M363.7 376.35c-1.06-.97-3.12-.3-3.5 1.06.27 2.1 4.5.86 3.5-1.06z" fill="#5d304f" opacity=".84"/><path d="M802.2 381.78l-1.6-4.44-5.98 1.4c.8 3.7 1.52 7.44 2.5 11.1 1.4-2.85 2.33-6.2 5.1-8.08z" fill="#272218" opacity=".33"/><path d="M795.24 404.57c-1.1-7.63 1.3-17.37-4.82-23.16-1.24 6.3.2 12.62.8 18.9l4 4.27z" fill="#14120c" opacity=".17"/><path d="M806.97 389.2c-3.25 1.1-6.54 2.15-9.96 2.5.4 3.33 1.35 6.57 2.97 9.53l3.35-.83c-1.63-1.18-3.17-2.48-4.52-3.98a105.99 105.99 0 0 1 7.54-2.18 14.58 14.58 0 0 0 .62-5.04z" fill="#31291e" opacity=".4"/><path d="M703.7 394.5c-4.53-.26 1.85 4.48 0 0z" fill="#26181d" opacity=".35"/><path d="M748.44 413.93c-.68 5.68-.42 11.43-1.07 17.13l-.15 1.53c.98 11.84-4.58 27.17 6.45 35.72 1.4-6.73-2.68-12.74-2.88-19.33l-2.35-35.05z" fill="#6f4454" stroke="#6f4454"/><path d="M729.77 422.45c-2-1.07-2.94 3.18-.8 3.4 1.47-.26 1.83-2.47.8-3.4z" fill="#402731" opacity=".58"/><path d="M757.34 433.35c2.3-1.67-1.24-3.16-2.84-3.42.36 1.37.68 5.23 2.84 3.42z" fill="#0b0708" opacity=".1"/><path d="M747.37 431.06c-1.6-2.3-2.58 2.48-.15 1.53l.15-1.53z" fill="#301f25" opacity=".42"/><path d="M699.15 466.26c2.1-8.78-2.43-17.45-6-25.26.62 7.66 1.92 15.26 3.17 22.84.3 1.32 1.25 4.46 2.83 2.42z" fill="#6f4454" stroke="#6f4454"/><g stroke="#6f395d" fill="#6f395d"><path d="M138.22 366.04c4.107-.976 5.812-3.157 5.812-7.435 0-2.368-.662-3.992-4.196-10.292-1.188-2.118-2.36-4.742-2.607-5.832-.402-1.78-.306-2.035.952-2.513 2.376-.903 3.615-.6 6.577 1.566 2.475 1.816 2.933 1.978 3.42 1.205.502-.795.897-.74 3.62.506 3.736 1.7 4.366 1.408 1.296-.623-3.077-2.036-7.042-3.54-11.388-4.322-2.16-.388-4.123-1.124-4.88-1.83-1.394-1.298-4.396-5.85-8.022-12.163-3-5.205-4.4-5.994-10.494-5.915-3.484.045-4.752-.157-5.56-.887-1.004-.908-.975-.97.733-1.544l1.778-.6-2.323-2.64c-2.537-2.883-5.593-4.52-12.938-6.935-3.7-1.22-4.66-1.748-4.454-2.477l2.28-7.8c1.1-3.78 2.414-9.54 2.898-12.8 1.706-11.492.635-9.523-1.666 3.063-1.396 7.636-3.14 14.12-4.24 15.76-.505.754-.63.754-1.125 0-.912-1.4-.66-3.265.84-6.223.778-1.535 1.4-3.245 1.385-3.8s-1.806 2.503-3.977 6.795l-3.947 7.804 1.8 2.493c1.553 2.162 1.742 2.798 1.423 4.8-.33 2.07-.114 2.68 2.2 6.194 1.412 2.144 3.22 4.325 4.017 4.847 1.612 1.056 2.43.86 1.08-.26-.474-.394-.862-1.4-.862-2.213 0-1.122-.712-2.062-2.842-3.75-2.772-2.196-2.833-2.3-2.5-4.6.287-1.912.08-2.817-1.118-4.858-1.85-3.155-1.858-4.27-.04-4.727 1.02-.256 2.037.05 3.536 1.065 1.158.783 4.523 2.23 7.48 3.216s6.204 2.347 7.22 3.026c1.722 1.15 1.822 1.4 1.495 3.6-.337 2.296-.248 2.475 2.606 5.212 2.493 2.4 2.9 3.06 2.593 4.276-.27 1.08.13 2.214 1.6 4.5 1.882 2.942 4.9 5.534 4.134 3.56-.703-1.832-2.588-8.742-2.93-10.745-.333-1.943-.254-2.12.935-2.1.714.007 2.367.498 3.674 1.1 1.934.878 2.694 1.7 4.1 4.475.943 1.868 3.106 5.44 4.807 7.938 1.813 2.662 3.232 5.43 3.428 6.685.662 4.23 1.57 6.67 4.12 11.056 3.375 5.808 3.846 9.46 1.57 12.166-1.973 2.345-4.657 2.882-7.33 1.466-2.936-1.556-11.433-7.304-15.467-10.462-1.945-1.522-3.535-2.6-3.535-2.417 0 .835 4.15 8.15 5.123 9.03 1.022.925 1.098.9 1.65-.553l.58-1.523 3.42 1.823c1.88 1.003 4.53 2.8 5.886 3.994 2.516 2.214 3.176 2.382 6.38 1.62z" stroke-width=".8"/><path d="M86.332 310.82c0-.18-1.05-2.093-2.333-4.253-2.314-3.895-3.618-8.998-2.3-8.998.333 0 .763.255.955.566.757 1.224 1.36.497.803-.968-.777-2.044-.212-4.123 1.122-4.123.612 0 1.192-.524 1.38-1.248.18-.686.273-1.278.207-1.314l-2.806-1.604c-2.942-1.685-3.2-1.574-1.648.684 1.948 2.816 2.038 3.1.804 2.428-1.67-.895-4.605-4.427-5.007-6.028-.194-.772-.707-1.404-1.14-1.404-1.07 0-1.05.07 1.128 4.398 1.053 2.092 2.25 4.92 2.657 6.282.7 2.374.684 2.525-.64 3.597-1.15.932-1.902 1.06-4.496.77l-3.114-.35 2.546 1.464c1.4.805 3 1.865 3.535 2.356 1.12 1 1.373.2.283-.906-.567-.575-.5-.878.4-1.527 1.748-1.3 2.013-.997 2.013 2.22 0 2.742.22 3.283 2.3 5.657 2.067 2.348 3.346 3.227 3.346 2.3zm-11.807-46.98c.427-.507 1.057-1.97 1.4-3.253l.623-2.33.598 1.98c1.118 3.698.747-.242-.714-7.582l-1.414-7.4c0-.16-.75-.292-1.663-.292h-1.663l1.425 4.1c1.544 4.443 2.523 13.435 1.464 13.435-.975 0-4.96-4.862-6.683-8.152-1.64-3.135-4-5.112-5.206-4.365-.478.296.12 1.62 2.02 4.466 2.965 4.445 7.844 10.315 8.575 10.315.255 0 .813-.415 1.24-.92zm-9.692 43.83c-.002-.107-.643-1.457-1.427-3.002s-1.58-3.78-1.77-4.965c-.33-2.07-.427-2.15-2.354-2l-2 .157.152-3.08c.167-3.394.2-3.4-3.338-.246l-1.414 1.258-3.37-1.38c-1.853-.76-3.617-1.296-3.92-1.195s1.16.9 3.25 1.8c3.72 1.58 3.844 1.595 5.807.66l2.006-.957-.38 1.852-.662 3.075c-.224.973.138 1.422 1.77 2.196 1.128.535 3.314 2.1 4.857 3.496l2.804 2.33zM88.52 285.9l1.305-4.724.74-2.546.65 9.05.104-4.63c.12-5.4-.482-7.57-1.986-7.176-.845.22-.988.745-.827 3.04.107 1.525-.1 4.095-.436 5.7-.738 3.44-.377 4.463.45 1.275z" stroke-width=".566"/></g></svg>