<svg xmlns="http://www.w3.org/2000/svg" width="1254" height="662" viewBox="0 0 940 496"><path d="M0 0h939.56L776.4 89.43c-9.12 5.22-18.65 9.78-27.5 15.43 1.8.02 3.6.1 5.38.4l-31.32 31.08 7.36 43.86-38.9-20.68-38.73 20.68 4-23.2-1.87-1.37c-1.2 1.34-2.9 2-4.43 2.86l-170.42 93.4c-14.84 8.4-30.2 15.77-45.37 23.56L0 496V0m691.5 58.97l-19.47 39.95-43.3 6.4 31.3 31.05-2.6 15.67-.8.63c.28.83.83 1.44 1.63 1.8 2.6-2.06 5.77-3.2 8.5-5.03 1.24-5.38 1.9-10.9 2.88-16.33l-22.28-21.87c10.18-2.12 20.6-3.06 30.86-4.85L692 78.14l13.78 28.26 30.6 4.68c-4.1 2.85-8.68 4.9-13 7.4l-56.3 30.88c-1.17 4.87-1.78 9.87-2.63 14.8 9.25-4.7 18.34-9.76 27.54-14.6l27.58 14.7-5.24-31.17 22.36-21.95c3.57-1.74 7.43-4.25 11.27-6 .67-1.4-2.33-1.54-3-1.22l-34-5.02-19.5-39.95M308.5 85.43c-5.35 3.82-8.2 10.15-9.45 16.44-1.37 12.32-.44 24.74-.7 37.1.32 9.4-1.12 19.18 2.23 28.2 6.12 14.17 24.37 19.06 38.23 14.7 2.36-.47 4.2-2.82 6.74-2.26l-.93 1.37c3.8 2.17 8.7.55 12.94.97l-.03-43.14c-8.63-.01-17.26-.03-25.88.01 1.44 4.23 2.75 8.5 4.4 12.67 2.83.01 5.66-.1 8.48.05.17 4.48.14 9.44-2.73 13.16-3.2 4.1-8.67 5.75-13.72 5.58-4.8-.06-10.13-1.1-13.37-4.94-2.7-3.1-3.26-7.42-3.23-11.4l.06-46.57c-.05-5.1 2.6-10.4 7.5-12.4 7.62-3.2 16.18-1.56 23.77.9 1.47-3.68 2.62-7.48 3.94-11.2-7.6-3.8-16.28-5.34-24.74-4.52-4.8.6-9.84 1.9-13.48 5.28M60.37 81.07l-.01 100.9H74.2l.1-38.62c1.17-1.6 1.87-3.84 3.84-4.64l-.05 1 28.3 42.23c5.4.1 10.8.02 16.2.05l-37.4-55.3 31.2-45.66-15.62-.02-26.54 39.4-.02-39.4c-4.6-.01-9.2-.05-13.8.02m70.7.13l.02 12.4 9 .3.03 88.1h13.24V81.18a4147.81 4147.81 0 0 0-22.31 0m45.16.01l-.02 100.8h13.1l.03-30.5c8.53-.15 17.07.26 25.58-.23l10.44 30.64c4.5.22 9 .06 13.5.1l-11.78-35.1c6.25-4.7 9.9-12.07 10.73-19.76 1.73-12.57 1.62-26.83-6.73-37.2-4.56-5.77-11.93-8.53-19.14-8.66-11.9-.23-23.8-.06-35.72-.08m78.85-.02V93.6l9.02.3.02 88.1h13.24V81.2h-22.3m140.15.01L368.6 182l14.52-.03 7.65-29.45 26.46-.01 7.94 29.48h15.26L412.4 81.22l-17.16-.02m58 .01l-.01 100.77 13.1.02.15-61.24L486.2 182h10.94l20.14-61.3.01 61.27 13.12.03V81.2c-4.37-.01-8.74-.04-13.1.01l-25.65 74.2-25.46-74.27c-4.32.1-8.64-.01-12.96.06m97.84-.01l.01 12.4 9.03.32.02 88.08h13.24V81.2c-7.44-.01-14.87-.02-22.3.01zM189.35 94.32c8.85.48 18.1-1.32 26.63 1.65 7.27 2.62 9.16 11.14 9.02 18.02-.46 6.2.15 13.04-3.58 18.44-1.9 4.07-6.37 6.1-10.67 6.24-7.13.28-14.27.07-21.4.12V94.32zm214.32 8.55l10.38 35.93c-6.7 0-13.4.01-20.08-.01l9.7-35.92z" fill="#9c6063"/><path d="M691.5 58.97L711 98.92l34 5.02c.66-.32 3.66-.18 3 1.22-3.84 1.75-7.7 4.26-11.27 6l-.32-.08c-10.16-1.8-20.42-3-30.6-4.68L692 78.14l-13.76 28.25c-10.25 1.8-20.68 2.73-30.86 4.85 7.6 7.1 14.85 14.6 22.28 21.87-.98 5.44-1.64 10.95-2.88 16.33-2.74 1.84-5.92 2.97-8.5 5.03-.8-.37-1.35-.98-1.63-1.8l.8-.63 2.6-15.67-31.3-31.05 43.3-6.4 19.47-39.95zm-383 26.46c3.64-3.38 8.67-4.67 13.48-5.28 8.46-.82 17.14.7 24.74 4.52-1.32 3.73-2.47 7.53-3.94 11.2-7.6-2.46-16.15-4.1-23.77-.9-4.9 2-7.54 7.3-7.5 12.4l-.06 46.57c-.03 3.97.52 8.28 3.23 11.4 3.24 3.85 8.58 4.88 13.37 4.94 5.05.17 10.5-1.47 13.72-5.58 2.87-3.72 2.9-8.68 2.73-13.16-2.82-.14-5.65-.04-8.48-.05-1.64-4.16-2.95-8.44-4.4-12.67l25.88-.01.03 43.14c-4.24-.42-9.15 1.2-12.94-.97l.93-1.37c-2.54-.56-4.38 1.8-6.74 2.26-13.86 4.37-32.1-.52-38.23-14.7-3.35-9.02-1.9-18.8-2.23-28.2.27-12.37-.66-24.8.7-37.1 1.25-6.3 4.1-12.62 9.45-16.44zM60.37 81.07l13.8-.02.02 39.4 26.54-39.4 15.62.02-31.2 45.66 37.4 55.28c-5.4-.03-10.8.06-16.2-.05l-28.3-42.23.05-1c-1.97.8-2.67 3.04-3.84 4.64l-.1 38.62h-13.8l.01-100.9zm70.7.13h22.3l.01 100.8c-4.42-.01-8.84.02-13.26-.01l-.03-88.1-9-.3-.02-12.4zm45.16 0l35.72.08c7.2.13 14.58 2.9 19.14 8.66 8.35 10.36 8.46 24.62 6.73 37.2-.82 7.7-4.48 15.06-10.73 19.76l11.78 35.1c-4.5-.03-9 .13-13.5-.1l-10.44-30.64c-8.5.5-17.05.08-25.58.23l-.03 30.5a1429.82 1429.82 0 0 1-13.1-.01l.01-100.78m13.12 13.1v44.47c7.13-.05 14.27.16 21.4-.12 4.3-.15 8.78-2.17 10.67-6.24 3.73-5.4 3.12-12.23 3.58-18.44.14-6.88-1.75-15.4-9.02-18.02-8.53-2.97-17.78-1.17-26.63-1.65zm65.73-13.1h22.3V182a1950.21 1950.21 0 0 1-13.25-.01l-.02-88.1-9.02-.3-.01-12.4zm140.15 0l17.16.02L440.43 182c-5.1 0-10.17.01-15.25-.01l-7.94-29.48c-8.82-.04-17.64-.05-26.46.01l-7.65 29.45-14.52.03 26.62-100.8m8.44 21.67l-9.7 35.92h20.08l-10.38-35.93zm49.56-21.67l12.96-.06 25.46 74.27 25.65-74.2h13.1V182c-4.37-.01-8.75.03-13.12-.03l-.01-61.27-20.14 61.3c-3.65 0-7.3.01-10.95-.01l-19.72-61.23-.15 61.24c-4.37-.01-8.74.02-13.1-.02l.01-100.77zm97.84 0h22.3V182c-4.42-.01-8.84.02-13.25-.01l-.02-88.08-9.03-.32-.01-12.4z" fill="#feffeb"/></svg>