<svg xmlns="http://www.w3.org/2000/svg" height="201" width="202" fill="none"><path d="M9.5 1.5h182.833c4.432 0 8 3.568 8 8v182c0 4.432-3.568 8-8 8H9.5c-4.432 0-8-3.568-8-8V9.5c0-4.432 3.568-8 8-8z" stroke="#bf5a8b" stroke-width="3"/><g fill="#aa507a"><path d="M26.757 95.036q1.188 0 2.052-.972.9-.972.9-3.132v-19.26l-2.412-.072v-1.764h4.464v20.952q0 2.664-1.224 4.14-1.188 1.44-3.312 1.44zm23.815-8.856h-8.208L39.556 95h-2.124l8.064-25.2h1.908L55.612 95h-2.16zM42.94 84.2h7.092l-3.6-11.268zm15.852-14.4h8.856q3.42 0 5.076 2.088 1.692 2.088 1.692 5.616 0 2.268-.36 4.104-.36 1.8-1.8 3.204-1.44 1.368-4.356 1.368h-7.092V95h-2.016zm9.144 14.4q2.016 0 2.988-1.08 1.008-1.08 1.224-2.448.252-1.368.252-3.06 0-2.952-1.224-4.428-1.224-1.476-3.384-1.476h-6.984V84.2zm17.44 1.98H77.17L74.36 95h-2.124L80.3 69.8h1.908l8.2 25.2h-2.16zm-7.632-1.98h7.092l-3.6-11.268zm17.87-10.692V95h-2.016V69.8h2.016l13.68 21.492V69.8h2.016V95h-2.016zM117 69.8h12.024v1.872h-10.008v8.46h6.876l-.684 1.98h-6.192V93.2h9.936V95H117zm17.322 18.792q.108 1.224.9 2.34.828 1.116 2.232 1.836 1.44.684 3.276.684 2.772 0 4.608-1.224 1.872-1.26 1.872-3.96 0-1.584-.9-2.628-.9-1.08-2.232-1.692-1.332-.648-3.636-1.476-2.484-.864-3.996-1.584-1.476-.756-2.52-2.016-1.008-1.26-1.008-3.24 0-1.584.9-2.988.9-1.44 2.7-2.304 1.836-.9 4.5-.9 1.764 0 2.916.252 1.152.252 2.34.828l-.612 1.908q-2.052-1.044-4.572-1.044-2.772 0-4.428 1.152-1.656 1.152-1.656 3.204 0 1.296.828 2.196.828.864 2.016 1.404 1.224.54 3.384 1.296 2.628.9 4.248 1.692 1.62.756 2.736 2.196 1.152 1.404 1.152 3.564 0 3.312-2.124 5.328-2.088 1.98-6.48 1.98-2.664 0-4.572-.972-1.872-1.008-2.88-2.556-.972-1.584-1.044-3.276zM153.925 69.8h12.024v1.872h-10v8.46h6.876l-.684 1.98h-6.192V93.2h9.936V95h-11.952zm-119.1 52.416h-8.208l-2.808 8.82h-2.124l8.064-25.2h1.908l8.208 25.2h-2.16zm-7.632-1.98h7.092l-3.6-11.268zm17.857-10.728V131h-2.016v-25.2h2.016l13.68 21.492V105.8h2.016V131H58.73zm23.377-1.872l-2.412-.072V105.8h4.428V131h-2.016zm24.793 4.104L86.667 131H84.47l-6.516-19.26V131H75.94v-25.2h2.016l7.596 22.104L93.22 105.8h2.016V131H93.22zm18.444 10.44h-8.208l-2.808 8.82h-2.124l8.064-25.2h1.908l8.208 25.2h-2.16zm-7.632-1.98h7.092l-3.6-11.268zm15.86-12.6h-6.12v-1.8h14.472v1.8h-6.336V131h-2.016zm13.152.036l-2.412-.072V105.8h4.428V131h-2.016zm22.092 16.704q0 3.636-2.232 5.364-2.196 1.692-5.292 1.692-1.944 0-3.672-.684-1.728-.72-2.844-2.304-1.08-1.584-1.08-4.068v-11.592q0-3.708 2.016-5.616 2.052-1.908 5.616-1.908 3.564 0 5.508 2.016 1.98 2.016 1.98 5.544zm-1.98-11.916q0-2.628-1.548-3.96-1.512-1.332-4.032-1.332-2.52 0-4.032 1.332-1.512 1.332-1.512 3.96v11.88q0 2.556 1.548 3.888 1.584 1.296 3.996 1.296 2.448 0 3.996-1.26 1.584-1.296 1.584-3.96zm9.174-2.916V131h-2.016v-25.2h2.016L176 127.292V105.8h2.016V131H176zm-125.705 56.7q-3.204 1.188-5.976 1.188-3.132 0-5.076-1.656-1.944-1.656-1.944-5.292v-11.556q0-2.736.756-4.14.792-1.404 2.376-2.376 1.584-.9 3.888-.9 2.808 0 5.076 1.188l-.576 1.368q-2.052-.756-3.888-.756-2.196 0-3.924 1.08-1.692 1.08-1.692 4.212v11.808q0 2.484 1.296 3.852 1.296 1.332 3.888 1.332 2.268 0 5.364-1.044zM39.54 141.8h2.016v23.4h10.98v1.8H39.54zm30.833-.036v18.54q0 3.636-2.232 5.292-2.196 1.656-5.328 1.656-3.132 0-5.364-1.656-2.232-1.656-2.232-5.292v-18.54h2.016v18.828q0 2.196 1.584 3.528 1.62 1.332 3.96 1.332 2.34 0 3.96-1.332 1.62-1.332 1.62-3.528v-18.828zm5.38.036h7.956q2.952 0 4.644 1.512 1.692 1.512 1.692 4.608 0 1.404-.468 2.664-.468 1.26-1.908 2.232l-.036.072v.036q1.584.72 2.628 2.34 1.08 1.62 1.08 4.212 0 3.096-1.692 5.328Q87.992 167 84.032 167h-8.28zm7.884 10.332q2.016 0 3.168-1.08 1.152-1.08 1.152-3.132 0-4.212-4.536-4.212H77.77v8.424zm.324 12.96q2.412 0 3.816-1.296 1.404-1.296 1.404-4.464 0-2.52-1.368-3.852-1.368-1.368-3.24-1.368H77.77v10.98z" font-size="36" font-family="AdventPro-Bold, Advent Pro"/><path d="M31.64 44.84q1.34 0 2.22-.5.9-.52 1.42-1.34.54-.84.74-1.9.22-1.06.22-2.14V31.8h1.4v7.16q0 1.44-.32 2.74-.32 1.28-1.04 2.26-.7.98-1.84 1.56-1.14.58-2.78.58-1.68 0-2.84-.6-1.14-.62-1.84-1.62-.7-1-1-2.28-.3-1.28-.3-2.64V31.8h1.38v7.16q0 1.12.22 2.18.22 1.06.74 1.88.54.82 1.42 1.32.88.5 2.2.5zm8.417-6.04q0-1.28.44-2.54.46-1.28 1.32-2.28.86-1 2.12-1.62 1.26-.64 2.86-.64 1.9 0 3.24.86 1.36.86 2 2.24l-1.1.68q-.34-.7-.84-1.18-.48-.48-1.04-.78-.56-.3-1.16-.42-.6-.14-1.18-.14-1.28 0-2.26.52-.98.52-1.66 1.36-.66.84-1 1.9-.34 1.04-.34 2.12 0 1.18.4 2.26.42 1.08 1.12 1.92.72.82 1.68 1.32.98.48 2.12.48.6 0 1.22-.14.64-.16 1.22-.48.6-.34 1.1-.82.5-.5.84-1.2l1.16.6q-.34.8-.96 1.42-.62.6-1.38 1.02-.76.42-1.62.64-.84.22-1.66.22-1.46 0-2.68-.64-1.22-.64-2.1-1.66-.88-1.04-1.38-2.34-.48-1.32-.48-2.68zm14.65 7.2V31.8h1.4v12.96h8.2V46zm16.08-14.2h1.18l5.9 14.2h-1.48l-1.84-4.44h-6.38L66.347 46h-1.5zm3.44 8.66l-2.86-7.02-2.9 7.02z" font-size="20" font-family="Raleway-Medium, Raleway"/></g></svg>