<?xml version="1.0" encoding="UTF-8" standalone="no"?>
<svg
   xmlns:dc="http://purl.org/dc/elements/1.1/"
   xmlns:cc="http://creativecommons.org/ns#"
   xmlns:rdf="http://www.w3.org/1999/02/22-rdf-syntax-ns#"
   xmlns:svg="http://www.w3.org/2000/svg"
   xmlns="http://www.w3.org/2000/svg"
   xmlns:sodipodi="http://sodipodi.sourceforge.net/DTD/sodipodi-0.dtd"
   xmlns:inkscape="http://www.inkscape.org/namespaces/inkscape"
   height="201px"
   width="202px"
   viewBox="0 0 202 201"
   version="1.1"
   id="svg23"
   sodipodi:docname="stamp.svg"
   inkscape:version="0.92.2 2405546, 2018-03-11">
  <metadata
     id="metadata29">
    <rdf:RDF>
      <cc:Work
         rdf:about="">
        <dc:format>image/svg+xml</dc:format>
        <dc:type
           rdf:resource="http://purl.org/dc/dcmitype/StillImage" />
      </cc:Work>
    </rdf:RDF>
  </metadata>
  <defs
     id="defs27" />
  <sodipodi:namedview
     pagecolor="#ffffff"
     bordercolor="#666666"
     borderopacity="1"
     objecttolerance="10"
     gridtolerance="10"
     guidetolerance="10"
     inkscape:pageopacity="0"
     inkscape:pageshadow="2"
     inkscape:window-width="640"
     inkscape:window-height="480"
     id="namedview25"
     showgrid="false"
     inkscape:zoom="1.1741294"
     inkscape:cx="101"
     inkscape:cy="100.5"
     inkscape:window-x="0"
     inkscape:window-y="29"
     inkscape:window-maximized="0"
     inkscape:current-layer="svg23" />
  <g
     id="Welcome"
     fill="none"
     stroke="none"
     stroke-width="1">
    <g
       id="Desktop-HD"
       transform="translate(-55.000000, -169.000000)">
      <g
         id="2-Main-Banner"
         transform="translate(-1.000000, 98.000000)">
        <g
           id="Group"
           transform="translate(56.000000, 71.000000)">
          <path
             style="stroke:#bf5a8b;stroke-width:3"
             d="m 9.5,1.5 h 182.83287 c 4.432,0 8,3.568 8,8 v 182 c 0,4.432 -3.568,8 -8,8 H 9.5 c -4.432,0 -8,-3.568 -8,-8 V 9.5 c 0,-4.432 3.568,-8 8,-8 z"
             id="Rectangle-11" />
          <g
             aria-label="JAPANESEANIMATIONCLUB"
             style="font-size:36px;font-family:AdventPro-Bold, 'Advent Pro';fill:#aa507a"
             id="Japanese-Animation-C">
            <path
               d="m 26.756651,95.035706 q 1.188,0 2.052,-0.972 0.9,-0.972 0.9,-3.132 v -19.26 l -2.412,-0.072 v -1.764 h 4.464 v 20.952 q 0,2.664 -1.224,4.14 -1.188,1.44 -3.312,1.44 z"
               style=""
               id="path32" />
            <path
               d="M 50.572,86.18 H 42.364 L 39.556,95 h -2.124 l 8.064,-25.2 h 1.908 L 55.612,95 h -2.16 z M 42.94,84.2 h 7.092 l -3.6,-11.268 z"
               style="font-family:'Advent Pro'"
               id="path34" />
            <path
               d="m 58.792375,69.8 h 8.856 q 3.42,0 5.076,2.088 1.692,2.088 1.692,5.616 0,2.268 -0.36,4.104 -0.36,1.8 -1.8,3.204 -1.44,1.368 -4.356,1.368 h -7.092 V 95 h -2.016 z m 9.144,14.4 q 2.016,0 2.988,-1.08 1.008,-1.08 1.224,-2.448 0.252,-1.368 0.252,-3.06 0,-2.952 -1.224,-4.428 -1.224,-1.476 -3.384,-1.476 h -6.984 V 84.2 Z"
               style="font-family:'Advent Pro'"
               id="path36" />
            <path
               d="m 85.376688,86.18 h -8.208 L 74.360687,95 h -2.123999 l 8.063999,-25.2 h 1.908 l 8.208,25.2 h -2.16 z M 77.744687,84.2 h 7.092 L 81.236688,72.932 Z"
               style="font-family:'Advent Pro'"
               id="path38" />
            <path
               d="M 95.613062,73.508 V 95 h -2.016 V 69.8 h 2.016 L 109.29306,91.292 V 69.8 h 2.016 V 95 h -2.016 z"
               style="font-family:'Advent Pro'"
               id="path40" />
            <path
               d="m 117.01112,69.8 h 12.024 v 1.872 h -10.008 v 8.46 h 6.87601 l -0.684,1.98 h -6.19201 V 93.2 h 9.936 V 95 h -11.952 z"
               style="font-family:'Advent Pro'"
               id="path42" />
            <path
               d="m 134.3215,88.592 q 0.108,1.224 0.9,2.34 0.828,1.116 2.232,1.836 1.44,0.684 3.276,0.684 2.772,0 4.608,-1.224 1.872,-1.26 1.872,-3.96 0,-1.584 -0.9,-2.628 -0.9,-1.08 -2.232,-1.692 -1.332,-0.648 -3.636,-1.476 -2.484,-0.864 -3.996,-1.584 -1.476,-0.756 -2.52,-2.016 -1.008,-1.26 -1.008,-3.24 0,-1.584 0.9,-2.988 0.9,-1.44 2.7,-2.304 1.836,-0.9 4.5,-0.9 1.764,0 2.916,0.252 1.152,0.252 2.34,0.828 l -0.612,1.908 q -2.052,-1.044 -4.572,-1.044 -2.772,0 -4.428,1.152 -1.656,1.152 -1.656,3.204 0,1.296 0.828,2.196 0.828,0.864 2.016,1.404 1.224,0.54 3.384,1.296 2.628,0.9 4.248,1.692 1.62,0.756 2.736,2.196 1.152,1.404 1.152,3.564 0,3.312 -2.124,5.328 -2.088,1.98 -6.48,1.98 -2.664,0 -4.572,-0.972 -1.872,-1.008 -2.88,-2.556 -0.972,-1.584 -1.044,-3.276 z"
               style="font-family:'Advent Pro'"
               id="path44" />
            <path
               d="m 153.92519,69.8 h 12.024 v 1.872 h -10.008 v 8.46 h 6.876 l -0.684,1.98 h -6.192 V 93.2 h 9.936 V 95 h -11.952 z"
               style="font-family:'Advent Pro'"
               id="path46" />
            <path
               d="m 34.824651,122.21571 h -8.208 l -2.808,8.82 h -2.124 l 8.064,-25.2 h 1.908 l 8.208,25.2 h -2.16 z m -7.632,-1.98 h 7.092 l -3.6,-11.268 z"
               style=""
               id="path48" />
            <path
               d="M 45.048651,109.508 V 131 h -2.016 v -25.2 h 2.016 l 13.68,21.492 V 105.8 h 2.016 V 131 h -2.016 z"
               style="font-family:'Advent Pro'"
               id="path50" />
            <path
               d="m 68.426714,107.636 -2.412,-0.072 V 105.8 h 4.428 V 131 h -2.016 z"
               style="font-family:'Advent Pro'"
               id="path52" />
            <path
               d="m 93.218901,111.74 -6.552,19.26 h -2.196 l -6.516,-19.26 V 131 h -2.016 v -25.2 h 2.016 l 7.596,22.104 7.668,-22.104 h 2.016 V 131 h -2.016 z"
               style="font-family:'Advent Pro'"
               id="path54" />
            <path
               d="m 111.66384,122.18 h -8.208 l -2.808,8.82 h -2.124001 l 8.064001,-25.2 h 1.908 l 8.208,25.2 h -2.16 z m -7.632,-1.98 h 7.092 l -3.6,-11.268 z"
               style="font-family:'Advent Pro'"
               id="path56" />
            <path
               d="m 119.89153,107.6 h -6.12 v -1.8 h 14.472 v 1.8 h -6.336 V 131 h -2.016 z"
               style="font-family:'Advent Pro'"
               id="path58" />
            <path
               d="m 133.0439,107.636 -2.412,-0.072 V 105.8 h 4.428 V 131 h -2.016 z"
               style="font-family:'Advent Pro'"
               id="path60" />
            <path
               d="m 155.13609,124.34 q 0,3.636 -2.232,5.364 -2.196,1.692 -5.292,1.692 -1.944,0 -3.672,-0.684 -1.728,-0.72 -2.844,-2.304 -1.08,-1.584 -1.08,-4.068 v -11.592 q 0,-3.708 2.016,-5.616 2.052,-1.908 5.616,-1.908 3.564,0 5.508,2.016 1.98,2.016 1.98,5.544 z m -1.98,-11.916 q 0,-2.628 -1.548,-3.96 -1.512,-1.332 -4.032,-1.332 -2.52,0 -4.032,1.332 -1.512,1.332 -1.512,3.96 v 11.88 q 0,2.556 1.548,3.888 1.584,1.296 3.996,1.296 2.448,0 3.996,-1.26 1.584,-1.296 1.584,-3.96 z"
               style="font-family:'Advent Pro'"
               id="path62" />
            <path
               d="M 162.3299,109.508 V 131 h -2.016 v -25.2 h 2.016 l 13.68,21.492 V 105.8 h 2.016 V 131 h -2.016 z"
               style="font-family:'Advent Pro'"
               id="path64" />
            <path
               d="m 36.624651,166.20771 q -3.204,1.188 -5.976,1.188 -3.132,0 -5.076,-1.656 -1.944,-1.656 -1.944,-5.292 v -11.556 q 0,-2.736 0.756,-4.14 0.792,-1.404 2.376,-2.376 1.584,-0.9 3.888,-0.9 2.808,0 5.076,1.188 l -0.576,1.368 q -2.052,-0.756 -3.888,-0.756 -2.196,0 -3.924,1.08 -1.692,1.08 -1.692,4.212 v 11.808 q 0,2.484 1.296,3.852 1.296,1.332 3.888,1.332 2.268,0 5.364,-1.044 z"
               style=""
               id="path66" />
            <path
               d="m 39.540651,141.8 h 2.016 v 23.4 h 10.98 v 1.8 h -12.996 z"
               style="font-family:'Advent Pro'"
               id="path68" />
            <path
               d="m 70.372963,141.764 v 18.54 q 0,3.636 -2.232,5.292 -2.196,1.656 -5.328,1.656 -3.132,0 -5.364,-1.656 -2.232,-1.656 -2.232,-5.292 v -18.54 h 2.016 v 18.828 q 0,2.196 1.584,3.528 1.62,1.332 3.96,1.332 2.34,0 3.96,-1.332 1.62,-1.332 1.62,-3.528 v -18.828 z"
               style="font-family:'Advent Pro'"
               id="path70" />
            <path
               d="m 75.751588,141.8 h 7.956 q 2.952,0 4.644,1.512 1.692,1.512 1.692,4.608 0,1.404 -0.468,2.664 -0.468,1.26 -1.908,2.232 l -0.036,0.072 v 0.036 q 1.584,0.72 2.628,2.34 1.08,1.62 1.08,4.212 0,3.096 -1.692,5.328 -1.656,2.196 -5.616,2.196 h -8.28 z m 7.884,10.332 q 2.016,0 3.168,-1.08 1.152,-1.08 1.152,-3.132 0,-4.212 -4.536,-4.212 h -5.652 v 8.424 z m 0.324,12.96 q 2.412,0 3.816,-1.296 1.404,-1.296 1.404,-4.464 0,-2.52 -1.368,-3.852 -1.368,-1.368 -3.24,-1.368 h -6.804 v 10.98 z"
               style="font-family:'Advent Pro'"
               id="path72" />
          </g>
          <g
             aria-label="UCLA"
             style="font-size:20px;font-family:Raleway-Medium, Raleway;fill:#aa507a"
             id="UCLA">
            <path
               d="m 31.639447,44.84 q 1.34,0 2.22,-0.5 0.9,-0.52 1.42,-1.34 0.54,-0.84 0.74,-1.9 0.22,-1.06 0.22,-2.14 V 31.8 h 1.4 v 7.16 q 0,1.44 -0.32,2.74 -0.32,1.28 -1.04,2.26 -0.7,0.98 -1.84,1.56 -1.14,0.58 -2.78,0.58 -1.68,0 -2.84,-0.6 -1.14,-0.62 -1.84,-1.62 -0.7,-1 -1,-2.28 -0.3,-1.28 -0.3,-2.64 V 31.8 h 1.38 v 7.16 q 0,1.12 0.22,2.18 0.22,1.06 0.74,1.88 0.54,0.82 1.42,1.32 0.88,0.5 2.2,0.5 z"
               style=""
               id="path75" />
            <path
               d="m 40.056635,38.8 q 0,-1.28 0.44,-2.54 0.46,-1.28 1.32,-2.28 0.86,-1 2.12,-1.62 1.26,-0.64 2.86,-0.64 1.9,0 3.24,0.86 1.36,0.86 2,2.24 l -1.1,0.68 q -0.34,-0.7 -0.84,-1.18 -0.48,-0.48 -1.04,-0.78 -0.56,-0.3 -1.16,-0.42 -0.6,-0.14 -1.18,-0.14 -1.28,0 -2.26,0.52 -0.98,0.52 -1.66,1.36 -0.66,0.84 -1,1.9 -0.34,1.04 -0.34,2.12 0,1.18 0.4,2.26 0.42,1.08 1.12,1.92 0.72,0.82 1.68,1.32 0.98,0.48 2.12,0.48 0.6,0 1.22,-0.14 0.64,-0.16 1.22,-0.48 0.6,-0.34 1.1,-0.82 0.5,-0.5 0.84,-1.2 l 1.16,0.6 q -0.34,0.8 -0.96,1.42 -0.62,0.6 -1.38,1.02 -0.76,0.42 -1.62,0.64 -0.84,0.22 -1.66,0.22 -1.46,0 -2.68,-0.64 -1.22,-0.64 -2.1,-1.66 -0.88,-1.04 -1.38,-2.34 -0.48,-1.32 -0.48,-2.68 z"
               style=""
               id="path77" />
            <path
               d="M 54.707572,46 V 31.8 h 1.4 v 12.96 h 8.2 V 46 Z"
               style=""
               id="path79" />
            <path
               d="m 70.78726,31.8 h 1.18 l 5.9,14.2 h -1.48 l -1.84,-4.44 h -6.38 l -1.82,4.44 h -1.5 z m 3.44,8.66 -2.86,-7.02 -2.9,7.02 z"
               style=""
               id="path81" />
          </g>
        </g>
      </g>
    </g>
  </g>
</svg>
