<svg width="1454px" height="876px" transform="translate(0, 0)" viewBox="0 0 1454 876" version="1.1" xmlns="http://www.w3.org/2000/svg">
            <g id="BG-pattern">
                <g id="fan" transform="translate(134.485676, 889.550723) rotate(19.000000) translate(-134.485676, -889.550723) translate(-478.014324, 682.550723)" fill="#B1BE4E">
                    <path d="M578.781134,135.070294 C402.009705,135.070294 240.483991,189.951033 146.643991,281.848106 C138.889705,289.492784 142.701134,299.551571 155.186848,304.299318 C159.261134,305.828253 163.992563,306.632956 168.986848,306.632956 C178.318277,306.632956 187.123991,303.736026 191.85542,299.068749 C275.969705,216.74764 420.672563,167.660762 578.912563,167.660762 C737.678277,167.660762 882.512563,217.069521 966.49542,299.632041 C971.226848,304.299318 980.032563,307.196248 989.49542,307.196248 C994.358277,307.196248 999.221134,306.391545 1003.29542,304.86261 C1009.34113,302.528971 1013.54685,298.907808 1015.12399,294.723353 C1016.70113,290.458428 1015.64971,286.113032 1011.83828,282.411398 C917.866848,190.192444 756.078277,135.070294 578.781134,135.070294 Z" id="Shape"></path>
                </g>
                <g id="purple" transform="translate(-175.000000, 40.000000)" fill="#FE7674">
                    <path d="M1405.55669,815.318334 C1268.45587,800.379567 470.988533,805.904041 1235.5544,928.679122 C1278.01792,935.497976 1234.267,952.00819 1252.65841,957.262485 C1257.62409,958.733687 1262.9576,959.364203 1268.65894,959.364203 C1283.00424,959.364203 1008.09303,900.956396 1014.1622,893.705469 C1061.24421,838.535375 1307.52757,852.188699 1414.9334,852.188699 C1519.2127,852.188699 1752.16911,890.8482 1800.53851,943.81149 C1806.79159,950.747159 1820.03341,955.160767 1834.01088,955.160767 C1839.89613,955.160767 1845.78138,954.32008 1850.74706,952.743791 C1859.57494,950.116644 1866.19585,945.703036 1869.13847,940.23857 C1872.0811,934.879189 1877.50189,928.884108 1866.74759,924.055342 C1735.90596,865.306395 1542.65751,830.2571 1405.55669,815.318334 Z" id="Shape" transform="translate(1390.846667, 884.398519) rotate(-20.000000) translate(-1390.846667, -884.398519) "></path>
                    <path d="M1801.85856,569.63747 C1575.82758,506.362831 1230.74061,470.065115 855.256383,470.065115 C479.382442,470.065115 134.295481,506.403892 -91.735504,569.760652 C-98.1656959,571.526265 -100.698802,573.702485 -99.3348217,575.878706 C-97.7759873,578.054926 -92.5149212,580.025843 -83.9413321,581.380848 C-77.316286,582.448428 -54.0824189,585.873911 -37.295365,576.220652 C-20.508311,566.567393 4.2245893,563.825822 13.2870774,561.840199 C209.215976,518.911494 504.713501,486.653664 855.451237,486.653664 C1039.43497,486.653664 1224.96358,493.288047 1381.30039,510.703485 C1537.6372,528.118924 1638.74441,551.560042 1738.92062,579.615235 C1746.51994,581.709334 1758.01634,582.941157 1770.48702,582.941157 C1778.86575,582.941157 1787.04963,582.366307 1794.06439,581.257666 C1802.44312,579.902661 1807.89904,577.972805 1809.45788,575.755523 C1810.82186,573.620364 1808.0939,571.444143 1801.85856,569.63747 Z" id="Shape" stroke="#FFFFFF" stroke-width="2" transform="translate(855.054381, 526.503136) scale(1, -1) rotate(30.000000) translate(-855.054381, -526.503136) "></path>
                </g>
            </g>
</svg>