
<svg width="91px" height="485px" viewBox="0 0 91 485" version="1.1" xmlns="http://www.w3.org/2000/svg" xmlns:xlink="http://www.w3.org/1999/xlink">
    <!-- Generator: Sketch 43.1 (39012) - http://www.bohemiancoding.com/sketch -->
    <desc>Created with Sketch.</desc>
    <defs></defs>
    <g id="Welcome" stroke="none" stroke-width="1" fill="none" fill-rule="evenodd">
        <g id="Desktop-HD" transform="translate(-241.000000, -3036.000000)">
            <g id="Fresh" transform="translate(98.000000, 2833.000000)">
                <g id="logo" transform="translate(137.000000, 203.000000)">
                    <g id="fresh">
                        <g transform="translate(21.000000, 0.000000)">
                            <path d="M34.2700913,51.4 L29.8337979,51.4 L29.8337979,0.99 L44.6928116,0.99 C48.7237295,0.99 51.7155155,2.45333333 53.6681698,5.38 C55.620824,8.30666667 56.5971512,12.1466667 56.5971512,16.9 C56.5971512,18.58 56.5571845,20.0333333 56.4772513,21.26 C56.3405273,22.8207702 56.0825368,24.3637902 55.7064668,25.87 C55.3635814,27.4958188 54.768536,29.0345458 53.9507908,30.41 C53.0361965,31.7466432 51.8618154,32.8093666 50.5250816,33.51 C48.8395086,34.4367853 46.9921573,34.8921612 45.1295895,34.84 L34.2700913,34.84 L34.2700913,51.4 Z M34.2700913,29.8 L44.547219,29.8 C45.8532958,29.8502476 47.1483508,29.5057921 48.3069348,28.8 C49.181725,28.2769647 49.9499064,27.5402976 50.5593387,26.64 C51.1153037,25.6341109 51.4938097,24.5088146 51.6726941,23.33 C51.8906375,22.2653904 52.0338501,21.1817979 52.1009078,20.09 L52.1009078,16.99 C52.1009078,9.69666667 49.4916593,6.05 44.2731622,6.05 L34.2700913,6.05 L34.2700913,29.8 Z" id="Shape" fill="#4E4257" fill-rule="nonzero"></path>
                            <polygon id="E" stroke="#FDFEF2" fill="#4E4257" points="58.2871094 479.395508 58.2871094 483.97 32.44 483.97 32.44 433.56 56.75 433.56 56.75 438.872801 38.2 438.872801 38.2 455.530273 56.75 455.530273 56.75 460.875977 38.2 460.875977 38.2 479.395508"></polygon>
                            <path d="M56.1261161,123.4 L51.5613586,123.4 L46.6882872,106.7 C46.0343821,106.788725 45.3767982,106.835462 44.7185044,106.84 L33.7391064,106.84 L33.7391064,123.4 L29.3028129,123.4 L29.3028129,72.99 L44.2731622,72.99 C48.2184374,72.99 51.167402,74.4533333 53.1200563,77.38 C55.0727105,80.3066667 56.0490377,84.1466667 56.0490377,88.9 C56.0490377,94.8066667 55.2668341,99.1033333 53.7024269,101.79 C52.9492812,103.10147 51.9617177,104.206827 50.8077026,105.03 L56.1261161,123.4 Z M33.7391064,101.8 L44.1618267,101.8 C46.5883707,101.8 48.3354824,100.983333 49.4031618,99.35 C49.8514455,98.6193613 50.2522326,97.8505442 50.60216,97.05 C50.9564466,96.1396378 51.1765032,95.1659431 51.2530448,94.17 C51.4257303,92.4240323 51.5086669,90.6675517 51.5014087,88.91 C51.5014087,81.6633333 48.8693221,78.04 43.6051489,78.04 L33.7391064,78.04 L33.7391064,101.8 Z" id="Shape" fill="#4E4257" fill-rule="nonzero"></path>
                            <path d="M54.7387039,158.99 L54.7387039,182.1 C54.7387039,186.946667 53.4740462,190.51 50.9447309,192.79 C48.3332381,195.102204 45.1257725,196.308275 41.849473,196.21 C38.5556946,196.300498 35.3314094,195.096041 32.6942651,192.79 C30.1249832,190.51 28.8403422,186.946667 28.8403422,182.1 L28.8403422,158.9 C28.8403422,153.953333 30.0022286,150.21 32.3260013,147.67 C34.6497741,145.13 37.8471027,143.856667 41.9179871,143.85 C45.9888716,143.85 49.1433788,145.183333 51.3815089,147.85 C53.6196389,150.516667 54.7387039,154.23 54.7387039,158.99 Z M50.2681534,181.5 L50.2681534,159.26 C50.2681534,155.926667 49.5373354,153.406667 48.0756995,151.7 C46.6140635,149.993333 44.5072524,149.13 41.755266,149.11 C36.0800077,149.11 33.2423785,152.493333 33.2423785,159.26 L33.2423785,181.65 C33.2423785,184.723333 34.0245822,187.056667 35.5889894,188.65 C39.2430792,191.85 44.2674527,191.85 47.9215426,188.65 C49.4859498,187.056667 50.2681534,184.673333 50.2681534,181.5 Z" id="Shape" fill="#4E4257" fill-rule="nonzero"></path>
                            <path d="M41.7638302,267.4 L28.9174207,267.4 L28.9174207,216.93 L40.5134464,216.93 C45.1609919,216.93 48.7066009,218.416667 51.1502735,221.39 C53.5939461,224.363333 54.8186371,228.323333 54.8243466,233.27 L54.8243466,252.99 C54.8300561,262.596667 50.4765507,267.4 41.7638302,267.4 Z M50.3966175,253.72 L50.3966175,232.55 C50.3966175,228.95 49.5030783,226.283333 47.716,224.55 C45.8713224,222.77362 43.5372893,221.839125 41.1472026,221.92 L33.3794069,221.92 L33.3794069,262.74 L40.7789388,262.74 C45.3465511,262.74 48.2641135,261.323333 49.5316259,258.49 C50.1525954,257.007686 50.4497586,255.368979 50.3966175,253.72 Z" id="Shape" fill="#4E4257" fill-rule="nonzero"></path>
                            <path d="M50.5165173,325.43 L50.5165173,288.93 L54.9528107,288.93 L54.9528107,325.99 C54.9998002,328.268149 54.6106542,330.529814 53.8137624,332.61 C53.1456694,334.353536 52.0788812,335.848287 50.7306241,336.93 C49.4710871,337.918431 48.0869443,338.67085 46.6283373,339.16 C45.1229212,339.649819 43.5663661,339.892152 42.0036299,339.88 C40.4296866,339.891085 38.8619456,339.648806 37.3446653,339.16 C35.876718,338.675024 34.4835672,337.922422 33.2166857,336.93 C31.8681274,335.848673 30.801261,334.353812 30.1335474,332.61 C29.3363793,330.529918 28.9472206,328.268178 28.9944991,325.99 L28.9944991,288.93 L33.4307926,288.93 L33.4307926,325.43 C33.3130154,328.059048 34.152989,330.623627 35.7431463,332.49 C39.3661626,335.94654 44.5725829,335.94654 48.1955993,332.49 C49.7888894,330.625347 50.632046,328.060549 50.5165173,325.43 L50.5165173,325.43 Z" id="Shape" fill="#4E4257" fill-rule="nonzero"></path>
                            <path d="M37.0106587,398.08 C37.0106587,404.08 39.8254498,407.08 45.4550319,407.08 C48.3639031,406.975796 51.2389673,406.320599 53.9679193,405.14 L54.8243466,409.75 C51.6510202,411.259997 48.2646954,412.067077 44.8384043,412.13 C44.18181,412.13 43.1854996,412.056667 41.849473,411.91 C40.343473,411.710893 38.8871871,411.159957 37.5673364,410.29 C35.9944731,409.269198 34.7249471,407.713601 33.9275204,405.83 C32.9402138,403.467071 32.4638514,400.857641 32.5401082,398.23 L32.5401082,375.11 C32.5401082,371.463333 32.9825956,368.703333 33.8675705,366.83 C34.8340892,364.859373 36.228366,363.22101 37.9099074,362.08 C39.9395987,360.829916 42.2104365,360.21008 44.5043976,360.28 C47.542704,360.247565 50.5436423,361.06357 53.2570847,362.66 L51.9638794,366.76 C50.0787538,365.878776 48.0756324,365.391358 46.0459668,365.32 C44.5782723,365.280404 43.1132587,365.485812 41.695316,365.93 C40.391878,366.450046 39.2600884,367.432449 38.4580208,368.74 C37.4206193,370.393979 36.8979169,372.411945 36.9764016,374.46 L37.0106587,398.08 Z" id="Shape" fill="#4E4257" fill-rule="nonzero"></path>
                            <g id="Group-2" transform="translate(0.000000, 220.000000)">
                                <ellipse id="Oval" fill="#FFFFFF" fill-rule="nonzero" transform="translate(37.034924, 24.615355) rotate(-55.000000) translate(-37.034924, -24.615355) " cx="37.034924" cy="24.6153547" rx="13.5" ry="12.5"></ellipse>
                                <ellipse id="Oval" fill="#FFFFFF" fill-rule="nonzero" transform="translate(51.364116, 25.851505) rotate(-74.400000) translate(-51.364116, -25.851505) " cx="51.3641164" cy="25.8515052" rx="11.5889486" ry="7.5"></ellipse>
                                <text id="Fresh" font-family="Courgette-Regular, Courgette" font-size="36" font-weight="normal" letter-spacing="-2" fill="#B1BE4E">
                                    <tspan x="0" y="35">Fres</tspan>
                                    <tspan x="57.5664062" y="35">h</tspan>
                                </text>
                            </g>
                        </g>
                    </g>
                    <path d="M15.823343,233.373595 C15.823343,233.373595 25.323343,232.254307 25.323343,230.873595 C25.323343,229.492884 21.0700481,228.373595 15.823343,228.373595 C10.5766378,228.373595 6.32334296,229.492884 6.32334296,230.873595 C6.32334296,231.391864 8.2031891,231.380612 9.87537476,231.779842 C11.5475604,232.179072 15.823343,233.373595 15.823343,233.373595 Z" id="Oval" fill="#B1BE4E" transform="translate(15.823343, 230.873595) rotate(-15.000000) translate(-15.823343, -230.873595) "></path>
                </g>
            </g>
        </g>
    </g>
</svg>