<svg width="721px" height="91px" viewBox="0 0 721 91" version="1.1" xmlns="http://www.w3.org/2000/svg" xmlns:xlink="http://www.w3.org/1999/xlink">
    <defs>
        <polygon id="path-1" points="469.185725 13.8242188 713 13.8242188 696.246649 46.9121094 713 74.5477084 469.185725 80 469.185725 46.9121094"></polygon>
        <polygon id="path-2" points="243.814275 13.8242188 3.60032365e-13 13.8242188 16.753351 46.9121094 1.54299585e-13 74.5477084 243.814275 80"></polygon>
        <polygon id="path-3" points="69.183564 0.40625 641.024211 0.8359375 641.024211 33.4941406 643.346353 66.1367188 70.865968 66.5820312 70.865968 33.4941406"></polygon>
    </defs>
    <g id="Welcome" stroke="none" stroke-width="1" fill="none" fill-rule="evenodd">
        <g id="Desktop-HD" transform="translate(-367.000000, -1667.000000)">
            <g id="4-Join" transform="translate(0.000000, 1613.000000)">
                <g id="JoinUs" transform="translate(371.000000, 59.000000)">
                    <g id="Group-2">
                        <g id="Path-2">
                            <use fill="#FDFEF2" fill-rule="evenodd" xlink:href="#path-1"></use>
                            <path stroke="#B1BE4E" stroke-width="5" d="M699.104057,46.8030674 L715.230393,14.953531 L717.068018,11.3242188 L713,11.3242188 L469.185725,11.3242188 L466.685725,11.3242188 L466.685725,13.8242188 L466.685725,46.9121094 L466.685725,80 L466.685725,82.5565312 L469.241618,82.4993751 L713.055892,77.0470836 L717.38007,76.9503842 L715.13784,73.2516994 L699.104057,46.8030674 Z"></path>
                        </g>
                        <g id="Path-2-Copy">
                            <use fill="#FDFEF2" fill-rule="evenodd" xlink:href="#path-2"></use>
                            <path stroke="#B1BE4E" stroke-width="5" d="M13.8959435,46.8030674 L-2.13784016,73.2516994 L-4.38007003,76.9503842 L-0.0558922236,77.0470836 L243.758382,82.4993751 L246.314275,82.5565312 L246.314275,80 L246.314275,13.8242187 L246.314275,11.3242188 L243.814275,11.3242188 L3.62052182e-13,11.3242188 L-4.06801842,11.3242188 L-2.2303932,14.953531 L13.8959435,46.8030674 Z"></path>
                        </g>
                        <g id="Path-2">
                            <use fill="#FDFEF2" fill-rule="evenodd" xlink:href="#path-3"></use>
                            <path stroke="#B1BE4E" stroke-width="5" d="M68.365968,33.5576577 L68.365968,66.5820312 L68.365968,69.0839767 L70.8679127,69.0820305 L643.348297,68.636718 L646.030368,68.6346317 L645.840051,65.959321 L643.524211,33.4053298 L643.524211,0.8359375 L643.524211,-1.66218468 L641.026089,-1.66406179 L69.1854425,-2.09374929 L66.5531176,-2.09572725 L66.6867895,0.533202292 L68.365968,33.5576577 Z"></path>
                        </g>
                        <text id="JOIN-US" font-family="Raleway-ExtraBold, Raleway" font-size="36" font-weight="600" line-spacing="36" letter-spacing="3.5" fill="#B1BE4E">
                            <tspan x="272.5" y="46">JOIN US</tspan>
                        </text>
                    </g>
                </g>
            </g>
        </g>
    </g>
</svg>