<?xml version="1.0" encoding="UTF-8" ?>
<!DOCTYPE svg PUBLIC "-//W3C//DTD SVG 1.1//EN" "http://www.w3.org/Graphics/SVG/1.1/DTD/svg11.dtd">
<svg width="940pt" height="496pt" viewBox="0 0 940 496" version="1.1" xmlns="http://www.w3.org/2000/svg">
<g id="#9c6063ff">
<path fill="#9c6063" opacity="1.00" d=" M 0.00 0.00 L 939.56 0.00 C 885.17 29.81 830.79 59.62 776.40 89.43 C 767.28 94.65 757.75 99.21 748.89 104.86 C 750.68 104.88 752.48 104.97 754.27 105.27 C 743.91 115.71 733.35 125.96 722.95 136.35 C 725.36 150.98 727.91 165.58 730.31 180.21 C 717.32 173.36 704.43 166.33 691.41 159.53 C 678.52 166.47 665.60 173.35 652.68 180.21 C 654.00 172.48 655.18 164.72 656.68 157.02 C 656.05 156.56 655.42 156.10 654.81 155.65 C 653.60 156.99 651.90 157.64 650.38 158.51 C 593.57 189.65 536.77 220.79 479.96 251.92 C 465.12 260.31 449.75 267.69 434.59 275.48 C 289.73 348.99 144.83 422.44 0.00 496.00 L 0.00 496.00 L 0.00 0.00 M 691.49 58.97 C 684.98 72.28 678.57 85.63 672.02 98.92 C 657.59 101.07 643.16 103.17 628.73 105.31 C 639.11 115.71 649.63 125.97 660.04 136.36 C 659.21 141.59 658.29 146.80 657.43 152.03 L 656.64 152.66 C 656.92 153.49 657.47 154.10 658.27 154.47 C 660.86 152.41 664.04 151.28 666.78 149.44 C 668.02 144.06 668.68 138.55 669.66 133.11 C 662.23 125.83 654.99 118.34 647.38 111.24 C 657.56 109.12 667.99 108.18 678.24 106.39 C 682.84 96.98 687.39 87.54 692.00 78.14 C 696.62 87.55 701.16 96.99 705.78 106.40 C 715.96 108.07 726.22 109.27 736.38 111.08 C 732.28 113.93 727.70 115.99 723.39 118.49 C 704.62 128.78 685.84 139.05 667.09 149.37 C 665.92 154.24 665.31 159.24 664.46 164.18 C 673.71 159.47 682.80 154.42 692.00 149.59 C 701.20 154.47 710.37 159.41 719.58 164.28 C 717.86 153.89 716.06 143.51 714.34 133.11 C 721.81 125.82 729.08 118.30 736.70 111.16 C 740.27 109.42 744.13 106.91 747.97 105.16 C 748.64 103.76 745.64 103.62 744.98 103.94 C 733.65 102.26 722.31 100.61 710.98 98.92 C 704.42 85.63 698.04 72.26 691.49 58.97 M 308.51 85.43 C 303.16 89.25 300.31 95.58 299.06 101.87 C 297.69 114.19 298.62 126.61 298.35 138.98 C 298.67 148.38 297.23 158.16 300.58 167.18 C 306.70 181.35 324.95 186.24 338.81 181.87 C 341.17 181.40 343.01 179.05 345.55 179.61 L 344.62 180.98 C 348.41 183.15 353.32 181.53 357.56 181.95 C 357.52 167.57 357.59 153.19 357.53 138.81 C 348.90 138.80 340.27 138.78 331.65 138.82 C 333.09 143.05 334.40 147.33 336.04 151.49 C 338.87 151.50 341.70 151.40 344.52 151.54 C 344.69 156.02 344.66 160.98 341.79 164.70 C 338.58 168.81 333.12 170.45 328.07 170.28 C 323.28 170.22 317.94 169.19 314.70 165.34 C 311.99 162.23 311.44 157.92 311.47 153.95 C 311.51 138.43 311.39 122.90 311.53 107.38 C 311.48 102.28 314.13 96.97 319.02 94.98 C 326.64 91.79 335.20 93.42 342.79 95.88 C 344.26 92.20 345.41 88.40 346.73 84.67 C 339.13 80.86 330.45 79.33 321.99 80.15 C 317.18 80.76 312.15 82.05 308.51 85.43 M 60.37 81.07 C 60.35 114.71 60.37 148.34 60.36 181.98 C 64.97 182.01 69.58 182.02 74.19 181.98 C 74.27 169.10 74.08 156.22 74.29 143.36 C 75.46 141.76 76.16 139.52 78.13 138.72 L 78.08 139.72 C 87.49 153.81 96.99 167.84 106.37 181.95 C 111.77 182.06 117.17 181.97 122.57 182.00 C 110.14 163.55 97.62 145.15 85.17 126.72 C 95.53 111.47 106.01 96.31 116.36 81.06 C 111.16 81.01 105.95 81.05 100.74 81.04 C 91.83 94.12 83.11 107.34 74.20 120.44 C 74.18 107.31 74.23 94.18 74.18 81.05 C 69.58 81.04 64.97 81.00 60.37 81.07 M 131.07 81.20 C 131.05 85.33 131.03 89.46 131.09 93.59 C 134.09 93.71 137.10 93.76 140.10 93.90 C 140.16 123.27 140.11 152.63 140.13 181.99 C 144.55 182.02 148.97 181.99 153.39 182.00 C 153.41 148.40 153.42 114.80 153.38 81.20 C 145.94 81.18 138.51 81.18 131.07 81.20 M 176.23 81.21 C 176.20 114.80 176.22 148.39 176.22 181.99 C 180.59 182.01 184.96 182.02 189.33 182.00 C 189.37 171.83 189.30 161.66 189.36 151.49 C 197.89 151.34 206.43 151.75 214.94 151.26 C 218.49 161.45 221.99 171.66 225.38 181.90 C 229.87 182.12 234.37 181.96 238.87 181.99 C 234.94 170.29 231.02 158.59 227.09 146.90 C 233.34 142.20 237.00 134.83 237.82 127.14 C 239.55 114.57 239.44 100.31 231.09 89.95 C 226.53 84.18 219.16 81.42 211.95 81.29 C 200.05 81.06 188.14 81.23 176.23 81.21 M 255.08 81.19 C 255.03 85.32 255.03 89.46 255.09 93.59 C 258.09 93.71 261.10 93.76 264.11 93.90 C 264.16 123.27 264.11 152.63 264.13 181.99 C 268.54 182.01 272.96 182.01 277.38 182.00 C 277.42 148.40 277.41 114.80 277.38 81.20 C 269.95 81.17 262.52 81.19 255.08 81.19 M 395.23 81.20 C 386.34 114.79 377.44 148.39 368.61 182.00 C 373.45 181.98 378.29 182.04 383.13 181.97 C 385.73 172.17 388.19 162.33 390.78 152.52 C 399.60 152.46 408.42 152.47 417.24 152.51 C 419.94 162.33 422.50 172.17 425.18 181.99 C 430.26 182.01 435.34 182.00 440.43 182.00 C 431.13 148.39 421.72 114.82 412.39 81.22 C 406.67 81.16 400.95 81.19 395.23 81.20 M 453.23 81.21 C 453.20 114.80 453.23 148.39 453.22 181.98 C 457.58 182.02 461.95 181.99 466.32 182.00 C 466.45 161.59 466.16 141.17 466.47 120.76 C 472.94 141.20 479.63 161.57 486.19 181.99 C 489.84 182.01 493.49 182.00 497.14 182.00 C 503.92 161.59 510.43 141.08 517.28 120.70 C 517.32 141.12 517.29 161.55 517.29 181.97 C 521.66 182.03 526.04 181.99 530.41 182.00 C 530.43 148.40 530.45 114.80 530.40 81.20 C 526.03 81.19 521.66 81.16 517.30 81.21 C 508.72 105.94 500.30 130.72 491.65 155.42 C 483.14 130.68 474.92 105.81 466.19 81.15 C 461.87 81.24 457.55 81.14 453.23 81.21 M 551.07 81.20 C 551.04 85.33 551.02 89.46 551.08 93.59 C 554.09 93.71 557.10 93.76 560.11 93.91 C 560.16 123.27 560.11 152.63 560.13 181.99 C 564.54 182.02 568.96 181.99 573.38 182.00 C 573.41 148.40 573.42 114.80 573.38 81.19 C 565.94 81.18 558.51 81.17 551.07 81.20 Z" />
<path fill="#9c6063" opacity="1.00" d=" M 189.35 94.32 C 198.20 94.80 207.45 93.00 215.98 95.97 C 223.25 98.59 225.14 107.11 225.00 113.99 C 224.54 120.20 225.15 127.03 221.42 132.43 C 219.53 136.50 215.05 138.52 210.75 138.67 C 203.62 138.95 196.48 138.74 189.35 138.79 C 189.34 123.96 189.33 109.14 189.35 94.32 Z" />
<path fill="#9c6063" opacity="1.00" d=" M 403.67 102.87 C 407.24 114.81 410.64 126.81 414.05 138.80 C 407.35 138.80 400.66 138.81 393.97 138.79 C 397.15 126.80 400.53 114.87 403.67 102.87 Z" />
</g>
<g id="#feffebff">
<path fill="#feffeb" opacity="1.00" d=" M 691.49 58.97 C 698.04 72.26 704.42 85.63 710.98 98.92 C 722.31 100.61 733.65 102.26 744.98 103.94 C 745.64 103.62 748.64 103.76 747.97 105.16 C 744.13 106.91 740.27 109.42 736.70 111.16 L 736.38 111.08 C 726.22 109.27 715.96 108.07 705.78 106.40 C 701.16 96.99 696.62 87.55 692.00 78.14 C 687.39 87.54 682.84 96.98 678.24 106.39 C 667.99 108.18 657.56 109.12 647.38 111.24 C 654.99 118.34 662.23 125.83 669.66 133.11 C 668.68 138.55 668.02 144.06 666.78 149.44 C 664.04 151.28 660.86 152.41 658.27 154.47 C 657.47 154.10 656.92 153.49 656.64 152.66 L 657.43 152.03 C 658.29 146.80 659.21 141.59 660.04 136.36 C 649.63 125.97 639.11 115.71 628.73 105.31 C 643.16 103.17 657.59 101.07 672.02 98.92 C 678.57 85.63 684.98 72.28 691.49 58.97 Z" />
<path fill="#feffeb" opacity="1.00" d=" M 308.51 85.43 C 312.15 82.05 317.18 80.76 321.99 80.15 C 330.45 79.33 339.13 80.86 346.73 84.67 C 345.41 88.40 344.26 92.20 342.79 95.88 C 335.20 93.42 326.64 91.79 319.02 94.98 C 314.13 96.97 311.48 102.28 311.53 107.38 C 311.39 122.90 311.51 138.43 311.47 153.95 C 311.44 157.92 311.99 162.23 314.70 165.34 C 317.94 169.19 323.28 170.22 328.07 170.28 C 333.12 170.45 338.58 168.81 341.79 164.70 C 344.66 160.98 344.69 156.02 344.52 151.54 C 341.70 151.40 338.87 151.50 336.04 151.49 C 334.40 147.33 333.09 143.05 331.65 138.82 C 340.27 138.78 348.90 138.80 357.53 138.81 C 357.59 153.19 357.52 167.57 357.56 181.95 C 353.32 181.53 348.41 183.15 344.62 180.98 L 345.55 179.61 C 343.01 179.05 341.17 181.40 338.81 181.87 C 324.95 186.24 306.70 181.35 300.58 167.18 C 297.23 158.16 298.67 148.38 298.35 138.98 C 298.62 126.61 297.69 114.19 299.06 101.87 C 300.31 95.58 303.16 89.25 308.51 85.43 Z" />
<path fill="#feffeb" opacity="1.00" d=" M 60.37 81.07 C 64.97 81.00 69.58 81.04 74.18 81.05 C 74.23 94.18 74.18 107.31 74.20 120.44 C 83.11 107.34 91.83 94.12 100.74 81.04 C 105.95 81.05 111.16 81.01 116.36 81.06 C 106.01 96.31 95.53 111.47 85.17 126.72 C 97.62 145.15 110.14 163.55 122.57 182.00 C 117.17 181.97 111.77 182.06 106.37 181.95 C 96.99 167.84 87.49 153.81 78.08 139.72 L 78.13 138.72 C 76.16 139.52 75.46 141.76 74.29 143.36 C 74.08 156.22 74.27 169.10 74.19 181.98 C 69.58 182.02 64.97 182.01 60.36 181.98 C 60.37 148.34 60.35 114.71 60.37 81.07 Z" />
<path fill="#feffeb" opacity="1.00" d=" M 131.07 81.20 C 138.51 81.18 145.94 81.18 153.38 81.20 C 153.42 114.80 153.41 148.40 153.39 182.00 C 148.97 181.99 144.55 182.02 140.13 181.99 C 140.11 152.63 140.16 123.27 140.10 93.90 C 137.10 93.76 134.09 93.71 131.09 93.59 C 131.03 89.46 131.05 85.33 131.07 81.20 Z" />
<path fill="#feffeb" opacity="1.00" d=" M 176.23 81.21 C 188.14 81.23 200.05 81.06 211.95 81.29 C 219.16 81.42 226.53 84.18 231.09 89.95 C 239.44 100.31 239.55 114.57 237.82 127.14 C 237.00 134.83 233.34 142.20 227.09 146.90 C 231.02 158.59 234.94 170.29 238.87 181.99 C 234.37 181.96 229.87 182.12 225.38 181.90 C 221.99 171.66 218.49 161.45 214.94 151.26 C 206.43 151.75 197.89 151.34 189.36 151.49 C 189.30 161.66 189.37 171.83 189.33 182.00 C 184.96 182.02 180.59 182.01 176.22 181.99 C 176.22 148.39 176.20 114.80 176.23 81.21 M 189.35 94.32 C 189.33 109.14 189.34 123.96 189.35 138.79 C 196.48 138.74 203.62 138.95 210.75 138.67 C 215.05 138.52 219.53 136.50 221.42 132.43 C 225.15 127.03 224.54 120.20 225.00 113.99 C 225.14 107.11 223.25 98.59 215.98 95.97 C 207.45 93.00 198.20 94.80 189.35 94.32 Z" />
<path fill="#feffeb" opacity="1.00" d=" M 255.08 81.19 C 262.52 81.19 269.95 81.17 277.38 81.20 C 277.41 114.80 277.42 148.40 277.38 182.00 C 272.96 182.01 268.54 182.01 264.13 181.99 C 264.11 152.63 264.16 123.27 264.11 93.90 C 261.10 93.76 258.09 93.71 255.09 93.59 C 255.03 89.46 255.03 85.32 255.08 81.19 Z" />
<path fill="#feffeb" opacity="1.00" d=" M 395.23 81.20 C 400.95 81.19 406.67 81.16 412.39 81.22 C 421.72 114.82 431.13 148.39 440.43 182.00 C 435.34 182.00 430.26 182.01 425.18 181.99 C 422.50 172.17 419.94 162.33 417.24 152.51 C 408.42 152.47 399.60 152.46 390.78 152.52 C 388.19 162.33 385.73 172.17 383.13 181.97 C 378.29 182.04 373.45 181.98 368.61 182.00 C 377.44 148.39 386.34 114.79 395.23 81.20 M 403.67 102.87 C 400.53 114.87 397.15 126.80 393.97 138.79 C 400.66 138.81 407.35 138.80 414.05 138.80 C 410.64 126.81 407.24 114.81 403.67 102.87 Z" />
<path fill="#feffeb" opacity="1.00" d=" M 453.23 81.21 C 457.55 81.14 461.87 81.24 466.19 81.15 C 474.92 105.81 483.14 130.68 491.65 155.42 C 500.30 130.72 508.72 105.94 517.30 81.21 C 521.66 81.16 526.03 81.19 530.40 81.20 C 530.45 114.80 530.43 148.40 530.41 182.00 C 526.04 181.99 521.66 182.03 517.29 181.97 C 517.29 161.55 517.32 141.12 517.28 120.70 C 510.43 141.08 503.92 161.59 497.14 182.00 C 493.49 182.00 489.84 182.01 486.19 181.99 C 479.63 161.57 472.94 141.20 466.47 120.76 C 466.16 141.17 466.45 161.59 466.32 182.00 C 461.95 181.99 457.58 182.02 453.22 181.98 C 453.23 148.39 453.20 114.80 453.23 81.21 Z" />
<path fill="#feffeb" opacity="1.00" d=" M 551.07 81.20 C 558.51 81.17 565.94 81.18 573.38 81.19 C 573.42 114.80 573.41 148.40 573.38 182.00 C 568.96 181.99 564.54 182.02 560.13 181.99 C 560.11 152.63 560.16 123.27 560.11 93.91 C 557.10 93.76 554.09 93.71 551.08 93.59 C 551.02 89.46 551.04 85.33 551.07 81.20 Z" />
</g>
</svg>
