
<svg width="940px" height="496px" viewBox="0 0 940 496" version="1.1" xmlns="http://www.w3.org/2000/svg" xmlns:xlink="http://www.w3.org/1999/xlink">
    <!-- Generator: Sketch 43.1 (39012) - http://www.bohemiancoding.com/sketch -->
    <desc>Created with Sketch.</desc>
    <defs>
        <polygon id="path-1" points="0 0 943.5 0 471.75 258.621329 0 498"></polygon>
    </defs>
    <g id="Welcome" stroke="none" stroke-width="1" fill="none" fill-rule="evenodd">
        <g id="Desktop-HD" transform="translate(0.000000, -2188.000000)">
            <g id="5-Kirigami" transform="translate(-9.000000, 2165.000000)">
                <g id="Kirigami" transform="translate(5.000000, 23.000000)">
                    <g id="Group-5">
                        <path d="M695.5,156.692085 L659.963046,175.651163 L666.75,135.495193 L638,107.056576 L677.731523,101.197899 L695.5,64.6627907 L713.268477,101.197899 L753,107.056576 L724.25,135.495193 L731.036954,175.651163 L695.5,156.692085 Z M696,152.409195 L726.901699,168.895349 L721,133.977114 L746,109.247882 L711.45085,104.153381 L696,72.3837209 L680.54915,104.153381 L646,109.247882 L671,133.977114 L665.098301,168.895349 L696,152.409195 Z" id="Combined-Shape" stroke="#956565" stroke-width="5"></path>
                        <mask id="mask-2" fill="white">
                            <use xlink:href="#path-1"></use>
                        </mask>
                        <use id="Mask" fill="#956565" xlink:href="#path-1"></use>
                        <path d="M695.5,156.692085 L659.963046,175.651163 L666.75,135.495193 L638,107.056576 L677.731523,101.197899 L695.5,64.6627907 L713.268477,101.197899 L753,107.056576 L724.25,135.495193 L731.036954,175.651163 L695.5,156.692085 Z M696,152.409195 L726.901699,168.895349 L721,133.977114 L746,109.247882 L711.45085,104.153381 L696,72.3837209 L680.54915,104.153381 L646,109.247882 L671,133.977114 L665.098301,168.895349 L696,152.409195 Z" id="Combined-Shape" stroke="#FFFEEC" stroke-width="5" mask="url(#mask-2)"></path>
                        <text id="KIRIGAMI" mask="url(#mask-2)" font-family="AdventPro-SemiBold, Advent Pro" font-size="144" font-weight="500" fill="#FFFEEC">
                            <tspan x="53.016" y="181.465116">KIRIGAMI</tspan>
                        </text>
                    </g>
                </g>
            </g>
        </g>
    </g>
</svg>